<?xml version="1.0" standalone="no"?>
<!DOCTYPE svg PUBLIC "-//W3C//DTD SVG 20010904//EN"
 "http://www.w3.org/TR/2001/REC-SVG-20010904/DTD/svg10.dtd">
<svg version="1.0" xmlns="http://www.w3.org/2000/svg"
 width="635.000000pt" height="393.000000pt" viewBox="0 0 635.000000 393.000000"
 preserveAspectRatio="xMidYMid meet">

<g transform="translate(0.000000,393.000000) scale(0.100000,-0.100000)"
fill="#000000" stroke="none">
<path d="M1330 2879 c-25 -11 -66 -25 -92 -30 -26 -6 -59 -20 -75 -32 -15 -12
-50 -33 -77 -47 -38 -18 -62 -41 -93 -85 -24 -33 -50 -70 -59 -83 -9 -12 -23
-55 -31 -94 -12 -54 -22 -78 -43 -98 -16 -15 -35 -48 -44 -76 -8 -27 -29 -87
-47 -134 -47 -128 -62 -211 -49 -283 7 -33 8 -92 5 -135 -5 -60 -3 -87 10
-122 9 -25 20 -68 25 -96 4 -28 17 -69 28 -90 12 -22 31 -66 43 -98 26 -67
113 -168 191 -221 26 -17 63 -51 81 -76 60 -78 185 -128 273 -109 49 11 113
50 153 94 14 14 29 26 34 26 5 0 30 -18 54 -41 69 -64 122 -83 207 -75 88 8
157 45 207 110 20 26 51 57 69 68 56 33 125 96 158 142 39 54 107 240 116 320
8 58 7 59 -11 41 -14 -14 -17 -30 -15 -69 3 -42 -1 -57 -22 -85 -14 -19 -26
-44 -26 -55 0 -12 -11 -43 -25 -71 -14 -27 -22 -40 -19 -27 4 15 0 24 -11 28
-25 10 -39 -10 -21 -29 9 -9 16 -22 16 -30 0 -23 -62 -72 -90 -70 -22 1 -22 1
-2 -4 12 -2 22 -7 22 -11 -1 -11 -90 -69 -134 -87 -30 -13 -36 -19 -25 -26 10
-6 11 -11 3 -16 -6 -5 -17 -19 -23 -31 -16 -30 -147 -91 -139 -64 2 4 -1 7 -7
7 -5 0 -9 -6 -9 -12 3 -20 -85 -17 -93 3 -3 10 -8 12 -12 5 -4 -7 -18 -3 -39
9 -18 11 -30 25 -27 30 3 6 0 10 -8 10 -8 0 -21 8 -30 18 -13 15 -14 21 -4 32
10 12 9 12 -5 2 -14 -11 -19 -9 -32 10 -9 12 -16 39 -16 60 0 31 3 36 17 31
13 -5 15 -2 10 11 -4 10 -7 21 -7 24 0 4 -5 0 -10 -8 -7 -11 -9 1 -8 40 1 54
1 54 8 15 7 -37 7 -38 9 -8 0 17 4 38 7 47 4 11 1 16 -10 16 -14 0 -16 15 -16
105 0 63 4 105 10 105 6 0 10 7 10 15 0 8 -4 15 -10 15 -17 0 -11 38 8 43 16
4 16 5 0 6 -14 1 -18 10 -18 35 0 19 6 36 13 39 10 4 10 7 0 18 -18 18 -18
178 -1 161 7 -7 24 -12 39 -12 15 0 31 -4 34 -10 8 -12 35 -13 35 -1 0 5 -14
11 -31 15 -19 3 -33 13 -36 25 -4 14 -11 18 -29 15 -13 -2 -24 0 -24 6 0 6 5
8 12 4 8 -5 9 -2 3 12 -12 28 -14 117 -2 132 6 8 6 12 -2 12 -6 0 -11 9 -11
20 0 16 7 20 38 21 l37 2 -35 6 c-35 6 -42 15 -27 39 5 6 4 12 -1 12 -5 0 -9
7 -9 15 0 8 4 15 8 15 5 0 4 12 -1 26 -6 14 -7 31 -3 37 4 6 6 81 5 167 -1
112 2 151 9 140 9 -12 9 -11 4 5 -4 11 -9 44 -11 73 -4 52 -4 53 22 50 16 -2
29 3 32 11 3 10 -3 12 -27 6 l-31 -7 2 57 c2 55 4 58 40 76 40 20 83 26 73 9
-3 -5 -17 -10 -31 -10 -24 0 -32 -14 -14 -25 6 -3 10 -2 10 3 0 21 40 20 55
-1 8 -12 15 -17 15 -11 0 6 10 16 23 23 18 10 29 9 57 -3 26 -11 31 -16 19
-21 -18 -7 -14 -54 5 -57 6 0 16 -2 21 -2 6 -1 16 -5 24 -10 11 -7 12 -6 5 5
-5 8 -7 22 -5 33 1 10 -3 23 -11 27 -9 6 -6 9 10 9 29 0 71 -22 96 -49 11 -12
26 -21 35 -21 27 0 79 -38 96 -69 12 -24 12 -29 2 -25 -8 3 -20 -2 -27 -11
-14 -17 -105 -21 -130 -5 -9 6 -17 5 -22 -3 -15 -23 -7 -26 62 -20 59 5 73 3
90 -12 18 -16 23 -17 45 -5 19 10 27 10 39 1 37 -31 59 -124 35 -148 -10 -10
4 -27 71 -85 12 -11 20 -30 20 -50 0 -18 9 -46 20 -63 11 -16 20 -41 20 -56 0
-14 5 -30 12 -37 6 -6 11 -33 11 -59 -1 -44 0 -45 6 -13 7 36 -11 146 -29 179
-5 10 -17 41 -26 67 -9 27 -26 59 -39 71 -13 13 -27 39 -30 58 -3 19 -8 51
-11 71 -3 20 -19 51 -38 72 -18 20 -41 51 -49 69 -19 36 -84 93 -107 93 -9 0
-34 13 -56 30 -21 16 -45 30 -53 30 -7 0 -53 14 -103 30 -103 35 -164 38 -216
11 -36 -19 -38 -19 -72 0 -47 25 -141 24 -200 -2z m186 -21 l44 -22 0 -63 c0
-70 -16 -84 -46 -38 -15 23 -23 25 -83 25 -39 0 -72 5 -79 12 -9 9 -12 7 -12
-11 0 -16 4 -21 15 -17 10 3 15 -1 15 -13 0 -16 6 -18 39 -14 22 3 57 2 78 -2
36 -6 37 -7 18 -21 -11 -9 -30 -13 -43 -11 -14 3 -26 -1 -29 -9 -3 -8 -11 -13
-18 -12 -8 2 -14 -1 -14 -7 0 -6 19 -9 47 -7 33 3 55 11 73 28 14 13 29 24 33
24 6 0 2 -555 -4 -608 0 -1 -5 -1 -11 0 -7 2 -12 -19 -13 -60 -1 -44 3 -62 12
-62 9 0 12 -41 12 -170 l0 -170 -90 0 -90 0 0 -95 c0 -57 -4 -95 -10 -95 -5 0
-10 -9 -10 -20 0 -19 -7 -20 -145 -20 l-145 0 0 45 0 45 90 0 c62 0 100 5 120
15 l30 16 0 135 c0 74 -4 133 -8 130 -5 -3 -7 -60 -5 -128 5 -156 4 -157 -139
-158 l-98 0 0 -55 0 -55 150 0 c143 0 150 -1 150 -20 0 -19 -7 -20 -160 -20
l-160 0 0 90 0 90 96 0 c139 0 134 -5 134 150 0 72 -3 130 -7 130 -5 0 -6 -55
-5 -122 5 -151 8 -148 -135 -148 l-103 0 0 -100 0 -100 170 0 c163 0 170 -1
170 -20 0 -19 -7 -20 -185 -20 l-185 0 0 130 0 130 95 0 c68 0 105 5 126 16
l31 15 -4 132 c-2 73 -7 130 -12 127 -4 -3 -7 -62 -7 -131 l2 -125 -26 -12
c-14 -7 -68 -12 -120 -12 l-95 0 0 -140 0 -140 190 0 c162 0 190 -2 190 -15 0
-8 5 -15 10 -15 6 0 10 -33 10 -80 0 -57 4 -80 13 -80 8 0 7 -4 -3 -11 -11 -8
-12 -10 -1 -7 11 3 13 24 12 91 -2 76 0 87 15 87 14 0 16 -11 12 -90 -2 -55 0
-89 5 -87 6 2 9 42 8 90 -2 76 0 87 15 87 14 0 16 -11 12 -90 -3 -59 -1 -89 6
-87 6 2 9 37 7 90 -2 74 0 87 13 87 12 0 16 10 16 40 0 22 5 40 10 40 6 0 10
-35 10 -85 0 -69 3 -85 15 -85 28 0 15 -38 -32 -90 -80 -89 -160 -110 -265
-70 -29 11 -68 33 -86 49 -31 29 -32 32 -32 110 0 47 4 81 10 81 6 0 9 -3 9
-7 -1 -5 0 -39 1 -78 2 -45 5 -57 7 -33 5 43 22 52 89 46 37 -3 39 -5 45 -43
l6 -40 2 48 1 47 -60 0 c-33 0 -60 3 -60 8 0 4 29 6 65 5 36 -1 65 2 65 7 0 5
-33 11 -72 13 l-73 3 77 2 77 2 4 -67 3 -68 2 73 2 72 -82 1 c-55 0 -76 3 -63
9 12 4 51 6 89 4 44 -2 66 0 64 7 -2 6 -7 10 -11 10 -4 -1 -52 -1 -107 -1
l-100 0 0 -77 c0 -63 -2 -74 -12 -62 -7 9 -36 30 -65 48 -92 57 -182 171 -198
251 -4 19 -18 51 -31 70 -13 19 -24 48 -24 65 0 16 -9 59 -21 95 -15 50 -18
76 -12 115 l7 50 6 -45 5 -45 193 -3 c165 -2 192 -5 192 -18 0 -13 -23 -15
-180 -12 -99 2 -179 -1 -177 -5 1 -5 82 -8 180 -7 174 1 177 0 177 -20 0 -21
-4 -21 -142 -19 -79 1 -143 -2 -143 -6 0 -4 64 -7 143 -6 123 2 142 0 142 -13
0 -14 -17 -16 -110 -16 l-110 0 0 -115 c0 -63 0 -117 0 -120 0 -3 3 -5 6 -5 4
0 6 52 5 115 l-2 115 110 0 111 0 0 73 0 72 -190 -1 -190 -1 0 74 c0 42 -4 73
-10 73 -5 0 -10 -10 -11 -22 -1 -14 -5 -7 -11 17 -11 47 -5 179 10 218 11 26
13 27 84 25 l73 -2 -72 -3 c-94 -5 -95 -23 -1 -23 90 0 80 -17 -12 -23 l-65
-3 70 -2 70 -2 -4 -51 c-4 -58 -18 -54 -24 6 l-4 40 -1 -42 c-1 -24 -6 -43
-12 -43 -5 0 -11 19 -12 43 l-1 42 -4 -42 c-2 -24 -8 -43 -14 -43 -5 0 -10 19
-10 43 l-2 42 -7 -50 c-4 -27 -6 -52 -4 -55 1 -3 26 -5 56 -4 l53 0 -3 47 c-2
25 0 52 5 59 4 7 9 37 9 66 l1 52 -63 0 c-64 0 -64 0 -64 29 0 15 9 40 20 54
12 15 20 40 20 62 0 29 7 43 35 69 32 28 37 41 46 101 17 125 29 99 29 -67 l0
-157 28 -4 c21 -3 19 -4 -12 -6 l-38 -1 4 75 c3 59 0 75 -10 75 -9 0 -12 -6
-8 -16 3 -9 6 -47 6 -85 l0 -69 41 0 c24 0 38 -4 34 -10 -3 -5 -15 -10 -26
-10 -18 0 -19 -8 -19 -144 l0 -144 -45 -26 c-39 -23 -45 -32 -47 -61 -1 -19
-2 -42 -2 -50 -1 -8 4 -15 9 -15 6 0 9 20 7 44 -4 43 -2 45 42 71 l46 27 0
144 c0 137 1 144 20 144 11 0 20 -4 20 -10 0 -5 7 -10 15 -10 10 0 15 -10 15
-30 0 -23 -4 -30 -20 -30 -19 0 -20 -7 -20 -125 l0 -125 -27 -1 c-70 -3 -68
-1 -71 -51 -2 -29 1 -48 7 -48 6 0 11 18 11 40 0 23 5 40 11 40 8 0 10 -17 7
-50 -4 -35 -1 -50 7 -50 8 0 11 15 7 50 -4 41 -2 50 12 50 12 0 16 -11 18 -42
l1 -43 4 43 c3 29 9 42 19 42 12 0 15 -10 12 -45 -2 -25 1 -45 7 -45 6 0 9 20
7 45 -3 28 0 45 7 45 6 0 12 -19 13 -42 l1 -43 4 43 c2 23 9 42 14 42 7 0 9
-18 7 -45 -2 -25 1 -45 7 -45 6 0 9 20 7 45 -3 28 0 45 7 45 6 0 11 -17 11
-39 0 -36 2 -38 26 -33 17 3 23 9 20 19 -3 8 -6 38 -6 67 0 51 -1 53 -50 90
l-50 38 2 97 2 96 3 -97 4 -98 32 -1 c67 -3 132 3 136 13 2 6 7 4 13 -3 8 -12
9 -12 6 0 -3 11 -24 13 -91 12 l-88 -2 3 82 c2 55 7 84 16 87 9 3 12 -15 12
-67 0 -67 1 -71 23 -72 12 0 30 -2 40 -4 9 -2 17 2 17 8 0 7 5 6 11 -3 9 -13
10 -13 7 0 -3 10 -16 14 -46 11 l-42 -3 0 66 c0 40 4 66 11 66 6 0 9 -22 8
-57 -2 -44 0 -58 11 -58 11 0 13 14 11 58 -2 37 1 57 9 57 6 0 9 -10 8 -22 -2
-13 2 -23 7 -23 6 0 10 9 11 20 3 81 -2 75 68 75 43 0 66 -4 69 -12 3 -9 10
-8 26 6 21 20 22 19 59 -17 31 -31 45 -37 80 -37 38 0 42 -2 42 -25 0 -20 -5
-25 -25 -25 -14 0 -25 6 -25 14 0 17 -133 22 -176 6 -27 -11 -28 -12 -11 -25
16 -11 16 -13 2 -19 -18 -6 -11 -26 8 -25 7 0 7 3 -2 6 -24 10 47 33 100 33
38 0 51 -4 63 -22 l16 -22 0 22 c0 18 6 22 30 22 28 0 30 3 30 35 0 35 -1 35
-43 35 -35 0 -49 6 -72 30 l-29 30 73 0 c45 0 70 4 66 10 -3 6 -36 10 -72 10
l-67 0 29 30 c21 22 39 30 74 33 l46 3 -51 2 c-45 2 -53 -1 -84 -33 -30 -31
-36 -34 -54 -22 -12 8 -37 12 -57 9 -31 -3 -37 -1 -42 20 -16 58 -8 91 32 133
38 39 39 43 43 123 3 52 1 81 -5 79 -6 -2 -9 -36 -8 -80 l2 -77 -39 -37 c-36
-34 -41 -44 -44 -95 -3 -36 -1 -55 5 -51 6 3 7 1 3 -5 -11 -18 -53 -14 -60 4
-4 9 -4 25 -1 35 5 13 1 19 -10 19 -13 0 -16 -6 -11 -25 4 -15 2 -25 -5 -25
-6 0 -9 19 -8 53 2 39 0 52 -11 52 -11 0 -13 -13 -11 -52 1 -33 -2 -53 -8 -53
-7 0 -11 27 -11 71 l0 72 45 -5 c35 -4 45 -2 45 9 0 10 -6 13 -16 9 -9 -3 -31
-6 -50 -6 l-34 0 0 -75 c0 -43 -4 -75 -10 -75 -6 0 -10 35 -10 86 l0 85 83 -2
c56 -1 82 1 82 9 0 7 -3 12 -7 12 -5 0 -44 0 -88 0 l-80 0 0 -95 c0 -57 -4
-95 -10 -95 -6 0 -10 40 -10 99 l0 99 33 21 c18 11 40 28 49 38 20 22 28 124
11 130 -8 3 -10 -13 -6 -54 l5 -58 -51 -34 -51 -34 0 -104 c0 -85 -3 -103 -15
-103 -8 0 -15 -4 -15 -10 0 -5 -9 -10 -20 -10 -19 0 -20 7 -20 149 l0 148 50
31 c43 27 50 36 50 62 0 43 15 66 46 74 14 4 43 20 64 37 22 18 56 33 86 38
27 5 72 18 99 30 65 26 108 26 161 -1z m-21 -118 c4 -7 -11 -9 -44 -7 -67 4
-77 17 -13 17 28 0 54 -5 57 -10z m-454 -83 c-5 -7 -24 -20 -43 -30 -18 -10
-26 -12 -17 -5 9 7 27 33 40 58 23 44 24 44 27 17 2 -16 -1 -34 -7 -40z m442
6 c-7 -2 -19 -2 -25 0 -7 3 -2 5 12 5 14 0 19 -2 13 -5z m-313 -413 l0 -50
-80 0 -80 0 0 50 0 50 80 0 80 0 0 -50z m180 10 c0 -4 -7 -10 -15 -14 -10 -4
-15 1 -15 14 0 13 5 18 15 14 8 -4 15 -10 15 -14z m-42 5 c-8 -8 -118 -8 -125
-1 -4 3 24 6 62 6 38 0 66 -2 63 -5z m-403 -115 c-3 -5 -33 -10 -66 -10 -33 0
-59 4 -59 10 0 6 29 10 66 10 41 0 63 -4 59 -10z m543 -12 c8 -10 -8 -13 -74
-12 -47 1 -88 5 -92 9 -4 5 0 6 9 3 9 -4 22 -2 30 3 21 13 115 11 127 -3z
m-418 -82 l0 -64 49 -36 c48 -36 49 -38 53 -95 2 -38 -1 -57 -7 -54 -6 2 -11
18 -10 36 0 32 -1 32 -50 33 -27 1 -53 2 -57 3 -5 1 -8 55 -8 121 0 100 3 120
15 120 12 0 15 -14 15 -64z m517 -48 c-2 -13 -4 -3 -4 22 0 25 2 35 4 23 2
-13 2 -33 0 -45z m-67 -397 l-75 -6 -6 -85 -5 -85 -2 93 -2 92 83 -2 82 -2
-75 -5z m13 -28 c-48 -3 -63 -8 -66 -21 -3 -12 -5 -11 -6 6 -1 21 2 22 67 20
l67 -2 -62 -3z m57 -103 c0 -53 -4 -90 -10 -90 -5 0 -10 23 -10 50 l0 50 -39
0 c-36 0 -40 -3 -44 -27 -2 -16 -5 2 -6 40 l-1 67 55 0 55 0 0 -90z m-123 -17
c-2 -16 -4 -3 -4 27 0 30 2 43 4 28 2 -16 2 -40 0 -55z m91 -35 c2 -34 7 -48
18 -48 11 0 14 -19 12 -102 l-2 -103 -3 88 c-3 79 -6 87 -23 87 -17 0 -20 7
-20 45 0 38 -3 45 -20 45 -14 0 -20 7 -20 21 0 16 5 20 28 17 25 -3 27 -7 30
-50z m-30 -75 l-2 -78 -3 73 -4 74 -59 -4 c-33 -1 -60 0 -60 5 0 4 29 7 65 7
l65 0 -2 -77z m-18 -2 l0 -59 -45 1 -45 0 0 59 0 58 45 0 45 0 0 -59z"/>
<path d="M1393 2801 l-122 -6 -51 -50 -50 -49 2 -76 2 -75 3 70 c4 69 4 71 56
123 l52 53 125 -2 c84 -1 125 2 128 10 2 6 -2 10 -10 9 -7 -1 -68 -4 -135 -7z"/>
<path d="M1253 2730 c-41 -46 -43 -51 -43 -114 0 -37 4 -66 10 -66 6 0 10 30
10 69 0 67 1 69 40 105 22 20 34 36 28 36 -9 0 -8 4 2 10 8 5 11 10 5 9 -5 0
-29 -22 -52 -49z"/>
<path d="M1260 2678 c-1 -2 -2 -35 -3 -74 -2 -58 1 -70 12 -66 10 4 12 1 6 -9
-4 -8 -4 -11 0 -6 12 10 6 130 -7 138 -6 4 -5 9 3 12 10 4 10 6 2 6 -7 1 -13
0 -13 -1z"/>
<path d="M1348 2579 l4 -101 -40 -41 c-33 -34 -41 -51 -44 -86 -2 -28 1 -46 9
-48 9 -3 11 7 8 34 -4 41 12 75 50 108 21 18 24 29 26 124 2 62 -1 106 -7 108
-6 2 -8 -34 -6 -98z"/>
<path d="M1450 2583 c93 -6 102 -23 11 -23 -95 0 -84 -17 13 -19 72 -1 74 -1
74 24 0 25 -1 25 -82 23 -80 -2 -80 -2 -16 -5z"/>
<path d="M1450 2523 c93 -6 102 -23 11 -23 -45 0 -70 -4 -66 -10 3 -5 39 -10
79 -10 72 0 74 1 74 25 0 25 -1 25 -82 23 -80 -2 -80 -2 -16 -5z"/>
<path d="M1400 2460 c-1 -8 -2 -27 -1 -42 0 -16 -10 -38 -29 -58 -34 -36 -35
-40 -17 -40 6 1 22 17 35 37 17 26 22 47 19 77 -2 23 -5 34 -7 26z"/>
<path d="M1432 2438 c-1 -20 -4 -43 -7 -50 -5 -11 7 -15 54 -16 l60 -1 -6 47
c-8 61 -13 66 -13 12 0 -51 -16 -44 -23 10 -4 33 -4 33 -5 -7 -1 -24 -6 -43
-11 -43 -6 0 -12 19 -14 43 l-4 42 -1 -42 c-1 -24 -6 -43 -11 -43 -6 0 -12 19
-14 43 -3 41 -4 41 -5 5z"/>
<path d="M1354 2076 l-22 -12 25 -11 c18 -9 29 -8 49 2 22 11 23 13 7 19 -10
3 -22 8 -28 10 -5 2 -20 -1 -31 -8z m38 -11 c0 -5 -5 -11 -11 -13 -6 -2 -11 4
-11 13 0 9 5 15 11 13 6 -2 11 -8 11 -13z"/>
<path d="M1454 2035 c-5 -11 -22 -15 -69 -15 -35 0 -67 5 -70 10 -10 16 -25 1
-25 -25 0 -12 7 -26 16 -29 28 -11 140 -6 152 6 20 20 14 32 -7 14 -14 -13
-33 -16 -77 -14 -31 2 -59 8 -61 13 -2 6 22 9 62 7 40 -2 71 1 80 8 10 9 16 7
24 -7 6 -10 11 -13 11 -6 0 6 -7 18 -15 26 -11 12 -12 17 -2 20 9 4 9 6 -1 6
-7 1 -15 -6 -18 -14z"/>
<path d="M1119 1979 c-12 -7 -12 -9 0 -9 8 0 25 -10 39 -22 22 -22 35 -23 193
-28 109 -3 169 -1 169 5 0 6 5 3 11 -5 7 -10 9 -11 7 -2 -3 11 -39 14 -173 13
l-170 -1 -31 29 c-22 20 -35 26 -45 20z"/>
<path d="M1355 1890 c-161 -5 -205 -15 -205 -47 0 -21 17 -15 35 13 l16 25
170 -3 c130 -2 169 0 169 10 0 6 -6 11 -12 10 -7 -1 -85 -5 -173 -8z"/>
<path d="M1418 1852 l-98 -3 2 -82 2 -82 5 75 6 75 95 1 c52 0 96 5 98 10 4
11 8 10 -110 6z"/>
<path d="M1348 1823 c-2 -4 -1 -37 3 -73 3 -37 6 -50 7 -29 l2 36 64 2 65 2 4
-38 4 -38 1 43 2 42 -57 0 c-32 0 -65 5 -73 11 -11 7 6 9 60 7 54 -1 74 1 73
10 -2 7 2 12 8 12 6 0 9 -21 8 -55 -1 -30 0 -58 4 -62 4 -3 7 24 7 60 l0 67
-74 0 c-41 0 -81 3 -89 6 -8 3 -17 2 -19 -3z m109 -20 c-20 -2 -52 -2 -70 0
-17 2 0 4 38 4 39 0 53 -2 32 -4z"/>
<path d="M840 1540 c0 -33 4 -60 10 -60 6 0 10 27 10 60 0 33 -4 60 -10 60 -6
0 -10 -27 -10 -60z"/>
<path d="M890 1540 c0 -33 4 -60 10 -60 6 0 10 27 10 60 0 33 -4 60 -10 60 -6
0 -10 -27 -10 -60z"/>
<path d="M980 1250 c0 -5 25 -10 55 -10 30 0 55 5 55 10 0 6 -25 10 -55 10
-30 0 -55 -4 -55 -10z"/>
<path d="M1631 2784 c0 -11 3 -14 6 -6 3 7 2 16 -1 19 -3 4 -6 -2 -5 -13z"/>
<path d="M1694 2772 c-10 -15 -8 -18 7 -19 13 -1 19 5 19 18 0 24 -12 25 -26
1z"/>
<path d="M1785 2751 c-11 -5 -26 -6 -33 -3 -12 4 -12 1 0 -19 7 -13 13 -25 14
-27 5 -11 33 14 37 34 2 13 4 24 3 23 0 0 -10 -4 -21 -8z"/>
<path d="M1828 2713 c6 -2 18 -2 25 0 6 3 1 5 -13 5 -14 0 -19 -2 -12 -5z"/>
<path d="M1907 2714 c-8 -8 1 -24 14 -24 5 0 9 7 9 15 0 15 -12 20 -23 9z"/>
<path d="M1682 2638 c4 -30 43 -33 43 -3 0 13 -8 21 -23 23 -20 3 -23 0 -20
-20z"/>
<path d="M1813 2594 c-8 -21 13 -42 28 -27 13 13 5 43 -11 43 -6 0 -13 -7 -17
-16z"/>
<path d="M1601 2561 c-17 -11 -7 -41 13 -41 21 0 27 15 13 33 -8 11 -17 14
-26 8z"/>
<path d="M2151 2553 c7 -12 15 -20 18 -17 3 2 -3 12 -13 22 -17 16 -18 16 -5
-5z"/>
<path d="M1990 2521 c0 -23 25 -34 39 -17 7 9 7 16 -1 24 -18 18 -38 14 -38
-7z"/>
<path d="M1785 2519 c-4 -6 -5 -12 -2 -15 2 -3 7 2 10 11 7 17 1 20 -8 4z"/>
<path d="M1595 2499 c-4 -6 -5 -12 -2 -15 2 -3 7 2 10 11 7 17 1 20 -8 4z"/>
<path d="M1955 2490 c-3 -6 1 -7 9 -4 18 7 21 14 7 14 -6 0 -13 -4 -16 -10z"/>
<path d="M2074 2475 c25 -27 41 -31 51 -15 11 17 -15 42 -30 30 -9 -8 -15 -8
-20 0 -3 5 -10 10 -15 10 -5 0 1 -11 14 -25z"/>
<path d="M1747 2477 c-15 -5 -27 -13 -27 -18 0 -5 -12 -10 -27 -10 -28 -2 -28
-2 -3 -6 14 -3 30 -8 35 -12 38 -29 80 -4 60 35 -8 17 -15 19 -38 11z"/>
<path d="M1876 2455 c-3 -9 1 -18 10 -22 19 -7 28 2 21 22 -8 19 -23 19 -31 0z"/>
<path d="M1623 2433 c9 -2 23 -2 30 0 6 3 -1 5 -18 5 -16 0 -22 -2 -12 -5z"/>
<path d="M2160 2426 c0 -2 8 -10 18 -17 15 -13 16 -12 3 4 -13 16 -21 21 -21
13z"/>
<path d="M1663 2384 l-28 -25 33 22 c17 13 32 24 32 26 0 8 -11 1 -37 -23z"/>
<path d="M1852 2390 c-18 -29 -15 -38 4 -12 9 13 14 25 12 27 -2 2 -9 -5 -16
-15z"/>
<path d="M2230 2360 c0 -11 7 -20 15 -20 8 0 15 6 15 14 0 8 -7 16 -15 20 -10
4 -15 -1 -15 -14z"/>
<path d="M1706 2355 c-9 -26 -7 -32 5 -12 6 10 9 21 6 23 -2 3 -7 -2 -11 -11z"/>
<path d="M1781 2344 c0 -11 3 -14 6 -6 3 7 2 16 -1 19 -3 4 -6 -2 -5 -13z"/>
<path d="M2138 2333 c6 -2 18 -2 25 0 6 3 1 5 -13 5 -14 0 -19 -2 -12 -5z"/>
<path d="M1991 2318 c2 -26 17 -63 18 -45 1 9 6 17 11 17 6 0 10 9 10 20 0 13
-7 20 -20 20 -11 0 -20 -6 -19 -12z"/>
<path d="M2078 2323 c6 -2 18 -2 25 0 6 3 1 5 -13 5 -14 0 -19 -2 -12 -5z"/>
<path d="M1784 2295 c-7 -18 3 -35 21 -35 15 0 28 27 19 41 -8 14 -34 11 -40
-6z"/>
<path d="M1948 2303 c7 -3 16 -2 19 1 4 3 -2 6 -13 5 -11 0 -14 -3 -6 -6z"/>
<path d="M2216 2284 c-4 -14 -5 -28 -3 -31 3 -2 8 8 11 23 4 14 5 28 3 31 -3
2 -8 -8 -11 -23z"/>
<path d="M1868 2293 c12 -2 30 -2 40 0 9 3 -1 5 -23 4 -22 0 -30 -2 -17 -4z"/>
<path d="M1645 2251 c-8 -15 3 -31 21 -31 9 0 14 7 12 17 -4 20 -24 28 -33 14z"/>
<path d="M2090 2240 c0 -5 7 -10 16 -10 8 0 12 5 9 10 -3 6 -10 10 -16 10 -5
0 -9 -4 -9 -10z"/>
<path d="M1987 2224 c-8 -8 1 -24 14 -24 5 0 9 7 9 15 0 15 -12 20 -23 9z"/>
<path d="M2170 2220 c-14 -4 -19 -8 -12 -9 6 -1 12 -10 12 -20 0 -25 14 -34
40 -26 22 7 26 35 8 53 -13 13 -13 13 -48 2z"/>
<path d="M1900 2194 c0 -8 4 -14 9 -14 5 0 21 6 36 14 l27 14 -36 0 c-24 0
-36 -5 -36 -14z"/>
<path d="M1732 2173 c2 -10 14 -19 26 -21 19 -3 23 1 20 15 -2 10 -14 19 -26
21 -19 3 -23 -1 -20 -15z"/>
<path d="M2253 2183 c9 -2 25 -2 35 0 9 3 1 5 -18 5 -19 0 -27 -2 -17 -5z"/>
<path d="M1683 2147 c-3 -5 -1 -13 4 -18 5 -5 13 -1 20 10 9 14 8 18 -3 18 -8
0 -17 -4 -21 -10z"/>
<path d="M2202 2125 c0 -16 2 -22 5 -12 2 9 2 23 0 30 -3 6 -5 -1 -5 -18z"/>
<path d="M2070 2130 c0 -5 5 -10 10 -10 6 0 10 5 10 10 0 6 -4 10 -10 10 -5 0
-10 -4 -10 -10z"/>
<path d="M1614 2104 c-18 -14 -18 -15 4 -4 12 6 22 13 22 15 0 8 -5 6 -26 -11z"/>
<path d="M1817 2113 c-3 -5 -2 -15 2 -22 7 -10 10 -10 16 -1 4 6 3 16 -3 22
-5 5 -12 6 -15 1z"/>
<path d="M1945 2111 c-8 -14 2 -31 19 -31 18 0 46 -33 46 -53 0 -11 8 -17 24
-17 34 0 24 31 -17 50 -20 9 -32 22 -32 35 0 21 -29 33 -40 16z"/>
<path d="M2018 2113 c7 -3 16 -2 19 1 4 3 -2 6 -13 5 -11 0 -14 -3 -6 -6z"/>
<path d="M2371 2104 c0 -11 3 -14 6 -6 3 7 2 16 -1 19 -3 4 -6 -2 -5 -13z"/>
<path d="M1710 2105 c0 -5 5 -17 10 -25 5 -8 10 -10 10 -5 0 6 -5 17 -10 25
-5 8 -10 11 -10 5z"/>
<path d="M1681 2088 c0 -10 -11 -20 -23 -22 -13 -3 -32 -7 -43 -9 -12 -3 -7
-5 13 -6 27 -1 32 -5 32 -26 0 -13 -7 -28 -16 -33 -10 -5 -14 -15 -9 -21 9
-15 30 -9 31 10 0 8 2 23 3 34 l2 20 15 -20 c16 -20 16 -20 9 3 -5 17 -2 22
11 22 16 0 16 1 2 13 -9 6 -18 21 -21 32 -4 16 -5 16 -6 3z"/>
<path d="M2133 2078 c2 -7 10 -13 17 -13 7 0 15 6 18 13 2 7 -5 12 -18 12 -13
0 -20 -5 -17 -12z"/>
<path d="M1746 2042 c-3 -6 -1 -14 5 -17 15 -10 25 3 12 16 -7 7 -13 7 -17 1z"/>
<path d="M2216 2041 c-4 -7 -5 -15 -2 -18 9 -9 19 4 14 18 -4 11 -6 11 -12 0z"/>
<path d="M2315 2031 l-30 -7 38 -5 c26 -4 37 -1 37 8 0 14 0 14 -45 4z"/>
<path d="M5050 2020 c0 -6 7 -13 15 -17 24 -9 27 1 5 15 -13 8 -20 8 -20 2z"/>
<path d="M1968 2013 c7 -3 16 -2 19 1 4 3 -2 6 -13 5 -11 0 -14 -3 -6 -6z"/>
<path d="M2390 1973 c-3 -29 -1 -48 3 -44 5 5 7 28 5 52 l-3 44 -5 -52z"/>
<path d="M1928 2003 c7 -3 16 -2 19 1 4 3 -2 6 -13 5 -11 0 -14 -3 -6 -6z"/>
<path d="M1837 1994 c-8 -8 1 -24 14 -24 5 0 9 7 9 15 0 15 -12 20 -23 9z"/>
<path d="M2800 1996 c0 -2 8 -10 18 -17 15 -13 16 -12 3 4 -13 16 -21 21 -21
13z"/>
<path d="M2316 1975 c-9 -26 -7 -32 5 -12 6 10 9 21 6 23 -2 3 -7 -2 -11 -11z"/>
<path d="M1770 1965 c-9 -11 -9 -18 3 -29 8 -8 17 -12 21 -9 3 4 20 -7 37 -23
23 -22 29 -36 27 -59 -2 -16 2 -30 7 -30 6 0 10 13 10 30 1 21 -9 38 -32 58
-18 16 -33 37 -33 47 0 23 -25 33 -40 15z"/>
<path d="M2116 1973 c-11 -11 -6 -23 9 -23 8 0 15 4 15 9 0 13 -16 22 -24 14z"/>
<path d="M1715 1951 c-7 -12 12 -24 25 -16 11 7 4 25 -10 25 -5 0 -11 -4 -15
-9z"/>
<path d="M4783 1945 c-3 -9 -3 -19 1 -22 3 -4 6 1 6 10 0 8 6 18 13 20 9 4 9
6 -1 6 -7 1 -15 -6 -19 -14z"/>
<path d="M5068 1953 c6 -2 18 -2 25 0 6 3 1 5 -13 5 -14 0 -19 -2 -12 -5z"/>
<path d="M5207 1940 c9 -11 19 -17 21 -15 6 6 -18 35 -29 35 -5 0 -1 -9 8 -20z"/>
<path d="M1922 1938 c7 -19 38 -22 38 -4 0 10 -9 16 -21 16 -12 0 -19 -5 -17
-12z"/>
<path d="M5598 1943 c6 -2 18 -2 25 0 6 3 1 5 -13 5 -14 0 -19 -2 -12 -5z"/>
<path d="M2066 1911 c-16 -17 -40 -31 -55 -33 -38 -4 -37 -49 2 -59 25 -7 27
-5 27 24 0 21 10 41 32 64 18 18 30 33 27 33 -3 0 -18 -13 -33 -29z"/>
<path d="M4640 1925 c0 -8 4 -15 10 -15 5 0 7 7 4 15 -4 8 -8 15 -10 15 -2 0
-4 -7 -4 -15z"/>
<path d="M1861 1914 c0 -11 3 -14 6 -6 3 7 2 16 -1 19 -3 4 -6 -2 -5 -13z"/>
<path d="M5620 1920 c0 -5 7 -7 15 -4 8 4 15 8 15 10 0 2 -7 4 -15 4 -8 0 -15
-4 -15 -10z"/>
<path d="M2280 1905 c0 -10 7 -15 18 -13 21 4 19 22 -2 26 -10 2 -16 -3 -16
-13z"/>
<path d="M1740 1905 c0 -5 5 -17 10 -25 5 -8 10 -10 10 -5 0 6 -5 17 -10 25
-5 8 -10 11 -10 5z"/>
<path d="M2132 1880 c0 -19 2 -27 5 -17 2 9 2 25 0 35 -3 9 -5 1 -5 -18z"/>
<path d="M2381 1884 c0 -11 3 -14 6 -6 3 7 2 16 -1 19 -3 4 -6 -2 -5 -13z"/>
<path d="M5442 1880 c0 -14 2 -19 5 -12 2 6 2 18 0 25 -3 6 -5 1 -5 -13z"/>
<path d="M2230 1859 c0 -5 5 -7 10 -4 6 3 10 8 10 11 0 2 -4 4 -10 4 -5 0 -10
-5 -10 -11z"/>
<path d="M2330 1850 c6 -11 13 -20 16 -20 2 0 0 9 -6 20 -6 11 -13 20 -16 20
-2 0 0 -9 6 -20z"/>
<path d="M1710 1856 c0 -2 9 -6 20 -9 11 -3 18 -1 14 4 -5 9 -34 13 -34 5z"/>
<path d="M1766 1851 c-4 -6 -4 -15 -1 -21 3 -5 -3 -10 -13 -10 -11 0 -26 -10
-35 -23 -13 -20 -13 -24 7 -39 19 -13 25 -14 40 -2 13 9 17 20 13 36 -4 12 -1
28 5 35 8 10 8 17 1 24 -8 8 -13 7 -17 0z"/>
<path d="M2087 1839 c7 -7 15 -10 18 -7 3 3 -2 9 -12 12 -14 6 -15 5 -6 -5z"/>
<path d="M5450 1842 c0 -6 5 -14 11 -18 8 -4 8 -9 0 -17 -6 -6 -11 -16 -11
-21 0 -6 5 -3 11 7 12 21 31 23 23 2 -4 -8 -4 -15 -1 -15 17 0 12 31 -9 51
-13 12 -24 17 -24 11z"/>
<path d="M1623 1830 c-29 -12 -29 -14 5 -36 23 -15 25 -15 13 -1 -11 14 -11
20 -1 32 14 17 13 17 -17 5z"/>
<path d="M2150 1800 c0 -15 5 -20 18 -18 9 2 17 10 17 18 0 8 -8 16 -17 18
-13 2 -18 -3 -18 -18z"/>
<path d="M2292 1796 c1 -10 8 -17 13 -17 15 1 12 24 -3 29 -9 3 -13 -2 -10
-12z"/>
<path d="M2381 1784 c0 -11 3 -14 6 -6 3 7 2 16 -1 19 -3 4 -6 -2 -5 -13z"/>
<path d="M1593 1773 c-3 -10 -8 -22 -11 -27 -3 -5 0 -6 5 -3 11 7 25 47 17 47
-3 0 -7 -8 -11 -17z"/>
<path d="M1945 1780 c3 -5 10 -10 16 -10 5 0 9 5 9 10 0 6 -7 10 -16 10 -8 0
-12 -4 -9 -10z"/>
<path d="M1650 1760 c0 -5 6 -10 14 -10 8 0 18 5 21 10 3 6 -3 10 -14 10 -12
0 -21 -4 -21 -10z"/>
<path d="M2316 1738 c13 -43 23 -68 28 -68 3 0 -2 20 -11 45 -15 45 -31 65
-17 23z"/>
<path d="M5456 1745 c4 -8 11 -15 16 -15 6 0 5 6 -2 15 -7 8 -14 15 -16 15 -2
0 -1 -7 2 -15z"/>
<path d="M4490 1741 c0 -5 5 -13 10 -16 6 -3 10 -2 10 4 0 5 -4 13 -10 16 -5
3 -10 2 -10 -4z"/>
<path d="M1841 1731 c-20 -13 -4 -51 23 -51 12 0 28 -6 35 -12 11 -11 12 -10
5 2 -4 8 -8 26 -8 40 -1 27 -29 38 -55 21z"/>
<path d="M2030 1710 c0 -13 7 -20 20 -20 13 0 20 7 20 20 0 13 -7 20 -20 20
-13 0 -20 -7 -20 -20z"/>
<path d="M5600 1713 c12 -18 12 -24 -1 -40 -13 -16 -13 -17 4 -4 21 17 22 35
0 52 -15 13 -15 12 -3 -8z"/>
<path d="M1651 1713 c-1 -6 -4 -20 -7 -30 -5 -17 -5 -17 6 0 6 10 9 23 6 30
-3 9 -5 9 -5 0z"/>
<path d="M4958 1713 c7 -3 16 -2 19 1 4 3 -2 6 -13 5 -11 0 -14 -3 -6 -6z"/>
<path d="M5358 1713 c7 -3 16 -2 19 1 4 3 -2 6 -13 5 -11 0 -14 -3 -6 -6z"/>
<path d="M1717 1693 c-12 -11 -8 -23 8 -23 8 0 15 7 15 15 0 16 -12 20 -23 8z"/>
<path d="M2100 1690 c8 -5 22 -9 30 -9 10 0 8 3 -5 9 -27 12 -43 12 -25 0z"/>
<path d="M2200 1660 c0 -11 7 -20 15 -20 8 0 15 9 15 20 0 11 -7 20 -15 20 -8
0 -15 -9 -15 -20z"/>
<path d="M1675 1660 c-3 -6 1 -7 9 -4 18 7 21 14 7 14 -6 0 -13 -4 -16 -10z"/>
<path d="M1798 1663 c-28 -4 -34 -17 -20 -40 10 -16 47 6 48 30 1 9 1 16 0 16
0 -1 -13 -4 -28 -6z"/>
<path d="M1615 1651 c-8 -15 3 -31 21 -31 9 0 14 7 12 17 -4 20 -24 28 -33 14z"/>
<path d="M2258 1653 c6 -2 18 -2 25 0 6 3 1 5 -13 5 -14 0 -19 -2 -12 -5z"/>
<path d="M1853 1623 c9 -2 23 -2 30 0 6 3 -1 5 -18 5 -16 0 -22 -2 -12 -5z"/>
<path d="M1922 1619 c2 -6 8 -10 13 -10 5 0 11 4 13 10 2 6 -4 11 -13 11 -9 0
-15 -5 -13 -11z"/>
<path d="M2096 1565 c-3 -10 -21 -16 -53 -17 l-48 -1 45 -4 c25 -3 53 -12 62
-20 17 -15 20 -15 38 2 15 13 17 22 9 36 -12 23 -45 25 -53 4z"/>
<path d="M1700 1551 c0 -24 13 -33 35 -25 23 9 14 38 -13 42 -16 3 -22 -2 -22
-17z"/>
<path d="M1946 1553 c-9 -22 0 -28 24 -17 20 9 20 9 1 21 -16 10 -20 9 -25 -4z"/>
<path d="M2260 1545 c-7 -9 -6 -16 4 -25 18 -14 36 -5 36 19 0 20 -25 24 -40
6z"/>
<path d="M2208 1533 c7 -3 16 -2 19 1 4 3 -2 6 -13 5 -11 0 -14 -3 -6 -6z"/>
<path d="M1600 1525 c0 -5 5 -17 10 -25 5 -8 10 -10 10 -5 0 6 -5 17 -10 25
-5 8 -10 11 -10 5z"/>
<path d="M1825 1510 c-4 -7 0 -19 9 -28 15 -15 18 -15 26 -2 5 8 8 20 7 25 -5
15 -34 18 -42 5z"/>
<path d="M1980 1505 c0 -5 5 -17 10 -25 5 -8 10 -10 10 -5 0 6 -5 17 -10 25
-5 8 -10 11 -10 5z"/>
<path d="M1613 1464 c-8 -21 13 -42 28 -27 13 13 5 43 -11 43 -6 0 -13 -7 -17
-16z"/>
<path d="M2247 1459 c7 -7 15 -10 18 -7 3 3 -2 9 -12 12 -14 6 -15 5 -6 -5z"/>
<path d="M1802 1425 c-7 -14 -23 -30 -37 -35 -14 -5 -25 -14 -25 -20 0 -5 -12
-11 -27 -11 l-28 -1 25 -8 c56 -16 70 -23 70 -34 0 -6 7 2 15 18 10 19 12 33
6 39 -7 7 -5 20 5 39 9 17 14 32 11 34 -2 2 -9 -7 -15 -21z"/>
<path d="M2010 1431 c0 -11 4 -22 8 -25 14 -9 35 12 29 28 -9 23 -37 20 -37
-3z"/>
<path d="M1610 1399 c-7 -11 -10 -23 -7 -25 2 -2 9 7 15 21 14 30 7 33 -8 4z"/>
<path d="M2103 1394 c-8 -20 9 -36 30 -28 13 5 14 10 6 25 -12 23 -28 25 -36
3z"/>
<path d="M1897 1365 c-8 -18 11 -31 25 -17 11 11 3 32 -12 32 -4 0 -10 -7 -13
-15z"/>
<path d="M1638 1343 c7 -3 16 -2 19 1 4 3 -2 6 -13 5 -11 0 -14 -3 -6 -6z"/>
<path d="M2022 1320 c0 -19 2 -27 5 -17 2 9 2 25 0 35 -3 9 -5 1 -5 -18z"/>
<path d="M2180 1336 c0 -2 8 -10 18 -17 15 -13 16 -12 3 4 -13 16 -21 21 -21
13z"/>
<path d="M1684 1298 l-19 -23 23 19 c21 18 27 26 19 26 -2 0 -12 -10 -23 -22z"/>
<path d="M1865 1290 c-9 -16 -13 -30 -11 -30 3 0 12 14 21 30 9 17 13 30 11
30 -3 0 -12 -13 -21 -30z"/>
<path d="M1725 1269 c-9 -17 -15 -33 -13 -35 3 -2 12 12 21 31 21 43 13 47 -8
4z"/>
<path d="M1791 1290 c0 -8 4 -22 9 -30 12 -18 12 -2 0 25 -6 13 -9 15 -9 5z"/>
<path d="M2013 1238 c-6 -9 -6 -21 2 -35 l12 -23 13 24 c18 35 -4 63 -27 34z"/>
<path d="M2088 1233 c6 -2 18 -2 25 0 6 3 1 5 -13 5 -14 0 -19 -2 -12 -5z"/>
<path d="M1800 1200 c0 -23 35 -28 43 -6 7 18 -1 26 -25 26 -11 0 -18 -7 -18
-20z"/>
<path d="M1878 1203 c6 -2 18 -2 25 0 6 3 1 5 -13 5 -14 0 -19 -2 -12 -5z"/>
<path d="M1664 1159 c-8 -14 18 -31 30 -19 9 9 0 30 -14 30 -5 0 -12 -5 -16
-11z"/>
<path d="M1920 1105 c0 -8 6 -15 14 -15 7 0 19 7 26 15 11 13 8 15 -14 15 -16
0 -26 -5 -26 -15z"/>
<path d="M1746 1085 c-3 -8 -4 -15 -3 -15 1 0 16 -4 33 -9 30 -8 31 -8 20 15
-12 27 -41 32 -50 9z"/>
<path d="M1697 1064 c-3 -3 -3 -13 0 -21 5 -12 7 -12 14 -1 15 23 4 40 -14 22z"/>
</g>
</svg>
