<?xml version="1.0" standalone="no"?>
<!DOCTYPE svg PUBLIC "-//W3C//DTD SVG 20010904//EN"
 "http://www.w3.org/TR/2001/REC-SVG-20010904/DTD/svg10.dtd">
<svg version="1.0" xmlns="http://www.w3.org/2000/svg"
 width="2000.000000pt" height="1239.000000pt" viewBox="0 0 2000.000000 1239.000000"
 preserveAspectRatio="xMidYMid meet">

<g transform="translate(0.000000,1239.000000) scale(0.100000,-0.100000)"
fill="#000000" stroke="none">
<path d="M0 6195 l0 -6195 10000 0 10000 0 0 6195 0 6195 -10000 0 -10000 0 0
-6195z m4692 2866 c61 -21 88 -36 161 -90 l47 -35 0 -198 0 -198 -29 0 c-24 0
-43 16 -106 85 l-77 85 -201 0 -201 0 -28 27 -28 27 0 -67 c0 -37 4 -67 8 -67
5 0 17 9 27 20 10 11 29 20 42 20 22 0 23 -3 23 -65 0 -36 3 -65 6 -65 3 0 20
11 38 25 31 23 41 25 150 25 109 0 121 -2 191 -32 41 -18 75 -35 75 -38 0 -3
-31 -22 -69 -43 -51 -27 -80 -37 -115 -37 -40 0 -46 3 -46 20 0 22 -11 19 -55
-15 -19 -15 -19 -16 10 -40 l30 -24 -47 -1 c-43 0 -48 2 -48 22 0 21 -2 21
-32 -10 l-33 -32 30 -24 c29 -23 30 -23 37 -5 7 17 18 19 122 19 l114 0 79 80
c60 61 85 80 106 80 l27 0 0 -1148 c0 -632 -3 -1392 -7 -1690 l-6 -542 -279 0
-278 0 0 -294 0 -295 -42 -3 -43 -3 -3 -62 -3 -63 -449 0 -450 0 0 140 0 140
274 0 275 0 95 44 96 45 0 390 c0 341 2 391 15 391 21 0 19 12 -7 45 l-22 28
-23 -27 c-27 -31 -29 -46 -8 -46 13 0 15 -49 15 -378 l0 -378 -85 -42 -85 -42
-290 0 -290 0 0 -170 0 -170 470 0 470 0 0 -60 0 -60 -510 0 -510 0 0 275 0
275 276 0 277 0 93 41 94 41 0 379 c0 341 2 379 17 387 15 9 14 13 -7 42 l-23
32 -23 -29 c-27 -33 -29 -43 -9 -43 13 0 15 -48 15 -374 l0 -373 -87 -37 -88
-36 -282 0 -283 0 0 -305 0 -305 525 0 525 0 0 -65 0 -65 -572 2 -573 3 0 405
0 405 295 5 295 5 83 39 82 39 0 393 c0 337 2 393 15 396 12 2 10 9 -7 37
l-22 34 -23 -29 c-27 -34 -29 -44 -8 -44 13 0 15 -49 15 -382 l0 -383 -83 -37
-82 -38 -295 -2 -295 -3 0 -435 0 -435 588 -3 587 -2 0 -40 0 -40 45 0 45 0 0
-246 c0 -205 -2 -248 -15 -260 -19 -20 -19 -39 1 -58 22 -22 50 -20 68 6 14
20 14 24 -4 54 -19 30 -20 47 -18 265 l3 234 48 3 47 3 0 -246 c0 -206 -2
-249 -15 -261 -19 -20 -19 -39 1 -58 22 -22 50 -20 68 6 14 20 14 25 1 45 -12
18 -15 68 -15 268 l0 246 48 -3 47 -3 3 -241 c2 -206 0 -243 -13 -254 -36 -30
-6 -88 39 -76 32 8 42 40 22 71 -14 20 -16 62 -16 265 l0 240 45 0 45 0 0 120
0 120 40 0 40 0 0 -270 0 -270 45 0 45 0 0 -58 c0 -51 -4 -64 -30 -93 -16 -19
-64 -76 -106 -127 -118 -143 -233 -229 -369 -273 -96 -32 -255 -32 -373 0
-253 67 -433 194 -533 376 -46 85 -47 86 -164 155 -356 210 -607 513 -689 830
-32 123 -54 174 -104 234 -50 60 -63 110 -60 231 1 87 0 93 -40 175 -83 170
-104 352 -62 552 21 101 19 131 -15 268 -8 36 -18 124 -22 196 -9 192 15 351
77 518 l21 56 206 0 c176 0 209 -2 234 -17 35 -21 64 -9 64 27 0 32 -29 49
-55 32 -22 -14 -430 -18 -430 -4 0 4 7 18 16 30 15 21 20 22 204 22 115 0 191
-4 195 -10 9 -15 51 -12 65 5 29 35 -25 82 -59 51 -15 -13 -47 -16 -195 -16
-166 0 -178 1 -171 18 14 34 25 88 25 130 0 56 20 102 72 163 42 50 42 51 48
147 9 138 29 176 132 250 82 60 105 112 117 272 11 136 29 208 70 285 l26 50
5 -495 5 -495 78 -3 77 -3 0 -29 0 -30 -110 0 -110 0 0 205 c0 127 4 205 10
205 16 0 23 49 10 65 -15 18 -51 20 -68 3 -17 -17 -15 -57 3 -64 13 -5 15 -40
15 -230 l0 -224 125 0 125 0 0 -30 0 -30 -80 0 -80 0 -2 -466 -3 -466 -140
-78 -140 -78 -3 -117 c-2 -87 -6 -121 -17 -132 -30 -29 -11 -73 30 -73 42 0
62 54 30 80 -12 10 -15 36 -15 115 l0 103 145 82 145 81 0 460 0 459 64 0 65
0 3 -42 c3 -43 3 -43 46 -46 l42 -3 0 -80 0 -79 -55 0 -55 0 -2 -407 -3 -408
-155 -5 -155 -5 0 -145 c0 -122 2 -145 15 -145 12 0 15 23 18 133 l3 132 39 0
40 0 0 -127 c0 -105 -3 -130 -17 -145 -23 -26 -6 -53 33 -53 23 0 30 5 32 24
2 13 -1 28 -7 34 -7 7 -11 60 -11 139 l0 128 45 0 45 0 0 -135 c0 -113 2 -135
15 -135 13 0 15 22 15 135 l0 135 45 0 45 0 0 -119 c0 -69 -4 -122 -10 -126
-16 -10 -12 -53 6 -63 9 -5 25 -7 36 -4 22 5 35 49 19 65 -7 7 -11 55 -11 129
l0 118 35 0 35 0 0 -135 c0 -113 2 -135 15 -135 13 0 15 22 15 135 l0 135 30
0 30 0 0 -119 c0 -69 -4 -122 -10 -126 -16 -10 -12 -53 6 -63 9 -5 25 -7 36
-4 22 5 35 49 19 65 -7 7 -11 55 -11 129 l0 118 35 0 35 0 0 -135 c0 -113 2
-135 15 -135 13 0 15 23 15 150 l0 150 -175 0 -175 0 2 393 3 392 35 0 35 0 5
-202 5 -202 130 -101 c72 -56 142 -113 158 -126 l27 -24 0 -154 c0 -124 -3
-156 -15 -166 -22 -19 -19 -67 6 -80 43 -23 91 39 54 70 -12 10 -15 47 -17
183 l-3 172 -157 124 -158 123 0 289 0 289 25 0 25 0 0 -285 0 -285 244 0
c204 0 246 -2 256 -15 27 -33 70 -10 70 36 0 39 -54 55 -80 24 -10 -13 -50
-15 -236 -15 l-224 0 0 270 0 270 45 0 45 0 0 -220 0 -220 107 0 c84 0 110 -3
124 -16 23 -21 65 -11 74 16 15 46 -45 82 -75 45 -9 -11 -35 -15 -106 -15
l-94 0 0 205 0 205 35 0 35 0 0 -125 c0 -98 -4 -131 -16 -150 -9 -14 -13 -33
-9 -44 8 -26 50 -38 70 -21 17 14 21 70 5 70 -6 0 -10 52 -10 135 l0 135 35 0
c33 0 35 -2 35 -32 0 -17 -7 -39 -16 -49 -21 -23 -11 -65 16 -74 46 -15 82 45
45 75 -8 7 -15 28 -15 46 0 27 4 34 20 34 19 0 20 7 20 90 l0 90 200 0 200 0
0 -45 c0 -25 3 -45 6 -45 3 0 41 27 84 60 43 33 83 60 89 60 5 0 56 -49 112
-110 l103 -110 138 0 138 0 0 -90 0 -90 -80 0 -79 0 -3 57 c-2 34 -8 58 -15
61 -8 2 -13 -6 -13 -22 0 -30 -7 -32 -34 -11 -16 12 -59 15 -215 15 -177 0
-199 -2 -225 -19 -19 -13 -39 -18 -56 -14 -47 9 -80 -48 -46 -77 22 -17 59 -8
72 18 7 13 26 32 43 43 28 17 52 19 211 19 164 0 182 -2 214 -21 30 -17 36
-27 36 -55 0 -39 -9 -43 -35 -14 -17 19 -31 20 -207 20 -184 0 -191 -1 -232
-25 -25 -15 -50 -23 -60 -19 -21 8 -56 -22 -56 -47 0 -10 11 -26 24 -34 30
-20 66 -6 66 25 0 12 16 30 40 45 38 24 45 25 213 25 l172 0 38 -31 c20 -17
37 -40 37 -51 0 -41 25 -10 28 35 l3 46 97 3 97 3 3 118 3 117 -148 0 -148 0
-100 100 -99 100 239 2 c321 4 322 21 2 28 l-238 5 96 102 96 102 142 3 c193
4 188 22 -7 26 l-149 3 -111 -117 -111 -116 -80 61 c-44 33 -83 61 -87 61 -5
0 -8 -13 -8 -30 l0 -30 -200 0 -200 0 0 34 c0 25 -5 35 -20 39 -15 4 -20 14
-20 40 0 22 6 37 15 41 16 6 20 43 7 62 -13 19 -39 23 -61 8 -25 -18 -27 -46
-6 -64 9 -7 15 -29 15 -51 0 -38 -1 -39 -35 -39 l-35 0 0 129 c0 76 4 132 10
136 14 9 13 48 -2 63 -17 17 -44 15 -62 -4 -20 -19 -20 -38 -1 -58 12 -11 15
-42 15 -140 l0 -126 -35 0 -35 0 0 220 0 220 99 0 c75 0 101 -4 111 -15 29
-35 74 -7 68 42 -2 23 -8 29 -34 31 -19 2 -36 -3 -44 -12 -10 -13 -35 -16
-121 -16 l-109 0 -2 -232 -3 -233 -32 -3 -33 -3 0 275 0 276 217 0 c188 0 219
-2 235 -17 28 -25 68 -4 68 37 0 38 -33 55 -67 34 -16 -10 -76 -14 -250 -16
l-228 -3 -5 -290 -5 -290 -32 -3 -33 -3 0 309 0 310 160 117 160 117 0 143 c0
114 3 145 15 155 37 31 -11 94 -54 70 -25 -13 -28 -61 -6 -80 13 -11 15 -36
13 -143 l-3 -130 -157 -115 -158 -116 0 -318 0 -318 -45 0 c-45 0 -45 0 -45
-35 l0 -35 -65 0 -65 0 2 473 3 472 163 107 162 108 0 104 c0 59 4 108 10 111
6 3 10 17 10 31 0 20 10 29 53 49 28 14 76 30 106 36 45 9 64 21 128 80 112
104 185 136 325 145 81 5 98 10 201 60 62 29 147 63 188 73 101 27 247 28 321
2z m658 10 c0 -34 -82 -66 -146 -56 -44 6 -44 6 -44 -24 0 -25 6 -33 33 -44
31 -13 32 -13 40 14 6 23 17 31 58 43 l51 15 39 -32 c40 -32 40 -32 34 -87 -4
-30 -8 -66 -11 -80 -2 -14 6 4 17 40 28 90 30 93 83 110 40 13 46 19 46 43 0
15 2 27 5 27 3 0 50 -20 104 -45 54 -25 112 -48 129 -51 18 -4 32 -9 32 -13 0
-8 -82 -51 -97 -51 -7 0 -13 -1 -13 -2 0 -2 9 -34 19 -72 20 -78 28 -84 107
-85 50 -1 52 -2 98 -61 26 -33 50 -60 52 -60 7 0 -1 14 -49 82 -37 54 -38 58
-27 91 8 20 10 49 6 70 -6 30 -14 41 -47 58 -23 11 -39 22 -37 25 3 2 46 0 95
-5 114 -12 166 -37 267 -130 61 -57 85 -73 133 -86 122 -34 185 -69 250 -137
32 -34 103 -144 103 -161 0 -6 -20 -7 -48 -3 -48 6 -48 6 -81 -39 l-32 -45
-152 -2 c-203 -2 -196 -3 -234 34 -36 35 -44 32 -62 -21 -16 -48 -14 -56 14
-69 36 -16 40 -15 71 13 26 25 30 25 195 25 l169 0 15 -36 c10 -23 25 -40 45
-47 l30 -11 0 -171 c0 -170 0 -172 -25 -195 -70 -65 22 -150 98 -90 l25 20
-19 39 c-10 22 -28 42 -39 46 -19 6 -20 15 -20 176 l0 169 35 14 c19 8 40 26
47 40 6 15 19 26 28 26 32 0 138 -108 170 -173 36 -73 60 -178 60 -262 0 -57
-2 -61 -35 -84 -31 -21 -34 -26 -22 -40 8 -9 17 -23 20 -33 3 -9 18 -22 33
-30 22 -10 32 -28 50 -83 21 -66 34 -65 15 1 l-9 32 51 -37 c115 -81 147 -140
147 -266 0 -61 4 -77 29 -117 16 -25 34 -49 40 -52 24 -15 44 -75 52 -154 7
-67 16 -96 44 -146 l35 -63 -10 -99 c-12 -125 -12 -164 -1 -164 5 0 12 51 16
112 8 126 12 126 55 -2 56 -166 81 -457 45 -526 -9 -18 -12 -42 -9 -64 3 -19
-1 -64 -9 -100 -16 -68 -23 -184 -14 -210 14 -37 27 -141 27 -218 0 -69 -3
-87 -17 -98 -15 -10 -16 -17 -7 -41 11 -30 5 -65 -23 -142 -11 -30 -18 -39
-24 -30 -6 10 -15 11 -36 3 -23 -8 -28 -15 -28 -44 0 -30 3 -35 23 -33 22 3
22 3 5 -30 -12 -24 -17 -61 -19 -142 -1 -60 -7 -123 -13 -139 -10 -24 -15 -27
-39 -22 -26 5 -26 5 -4 -6 12 -6 22 -14 22 -18 0 -4 -22 -33 -50 -64 -27 -31
-50 -59 -50 -60 0 -2 -7 -41 -16 -86 -20 -109 -64 -227 -116 -314 -40 -68 -42
-69 -50 -44 -7 20 -4 34 11 59 28 45 26 63 -5 88 -35 27 -57 26 -90 -4 -15
-14 -32 -25 -38 -25 -6 0 -4 -6 5 -13 9 -7 21 -22 28 -35 7 -13 23 -27 36 -32
16 -6 27 -22 34 -47 9 -33 8 -42 -15 -75 -14 -20 -49 -61 -78 -91 l-51 -55
-185 -37 c-102 -20 -189 -41 -195 -47 -11 -11 6 -8 210 32 77 16 141 27 143
25 1 -1 -29 -32 -69 -69 -70 -65 -205 -160 -324 -228 -33 -18 -70 -48 -82 -66
l-21 -32 -7 30 c-10 44 -25 47 -58 10 l-29 -33 23 -13 c13 -7 32 -13 42 -14 9
0 17 -2 17 -5 0 -7 -52 -85 -56 -85 -2 0 -1 15 3 33 9 48 -11 22 -31 -40 -22
-68 -103 -141 -223 -202 -53 -27 -212 -31 -233 -6 -7 8 -25 15 -41 15 -25 0
-29 -4 -29 -30 0 -17 7 -33 17 -38 56 -32 -64 -60 -198 -47 -76 8 -89 16 -119
75 -18 35 -40 60 -40 45 0 -3 9 -24 21 -46 11 -23 19 -43 16 -45 -5 -5 -77 24
-93 37 -14 11 8 107 33 145 14 22 14 25 -8 44 -29 23 -39 25 -39 5 0 -8 -11
-22 -25 -31 l-26 -17 23 -11 c13 -6 24 -20 26 -30 5 -25 -7 -86 -17 -86 -4 0
-39 24 -77 53 l-69 52 33 3 c48 5 39 22 -12 22 -41 0 -47 4 -95 59 -28 32 -51
63 -51 68 0 5 20 24 45 42 24 17 47 36 51 42 9 15 -49 -16 -83 -45 l-29 -24
-51 49 c-28 27 -51 49 -50 50 1 1 29 7 62 15 l60 13 -67 -5 -68 -6 1 154 c2
157 14 487 17 456 1 -10 9 -18 17 -18 23 0 22 -282 0 -300 -27 -23 -14 -55 23
-58 40 -4 51 18 28 53 -24 37 -23 300 1 327 16 18 15 20 -5 41 -19 18 -25 20
-42 9 -11 -6 -22 -12 -25 -12 -3 0 -5 155 -5 344 l0 343 23 -3 c12 -3 30 2 40
10 18 14 18 16 1 41 -13 20 -24 25 -41 22 -23 -4 -23 -3 -23 74 0 76 1 79 24
79 13 0 44 3 70 6 42 6 48 5 53 -15 4 -16 13 -21 37 -21 40 0 52 9 66 44 9 24
7 31 -7 42 -29 22 -73 17 -95 -11 -17 -22 -27 -25 -84 -25 l-64 0 0 110 0 110
25 0 c18 0 29 8 37 26 11 23 10 28 -7 41 -11 7 -28 12 -37 9 -17 -4 -18 18
-18 357 0 198 2 358 4 356 2 -2 16 -33 30 -68 27 -66 24 -80 -14 -81 -11 0
-11 -3 -2 -12 7 -7 12 -22 12 -33 0 -44 59 -73 99 -49 26 16 31 15 87 -5 32
-13 68 -34 80 -48 15 -19 26 -24 42 -19 18 6 22 15 22 47 0 38 -2 40 -22 32
-36 -12 -94 -7 -134 13 -30 15 -40 28 -50 62 -11 38 -10 49 8 88 23 53 17 71
-7 22 -49 -95 -70 -91 -117 22 -37 86 -38 94 -38 206 l0 117 68 -6 c37 -4 95
-7 129 -7 57 0 63 -2 82 -29 l21 -29 -21 -56 c-15 -41 -29 -60 -51 -72 -23
-12 -29 -20 -24 -37 3 -12 6 -30 6 -39 0 -21 29 -23 76 -6 l31 11 -20 34 c-18
31 -18 39 -8 76 7 23 19 52 28 65 20 32 37 16 78 -74 18 -39 38 -74 44 -78 16
-10 15 -6 -30 88 -55 115 -43 141 53 116 69 -17 72 -5 4 16 -41 13 -64 27 -83
52 -25 34 -25 35 -13 110 7 43 22 99 33 125 l20 48 -23 22 c-18 18 -23 19 -28
7 -3 -8 -15 -23 -28 -34 l-22 -20 22 -11 c28 -14 31 -41 11 -131 -12 -50 -23
-77 -34 -81 -9 -3 -28 -17 -42 -30 -25 -23 -31 -24 -150 -21 l-124 3 0 120 0
120 147 10 c80 6 150 14 155 19 4 5 -33 6 -87 2 -52 -3 -122 -7 -155 -8 l-60
-2 -3 51 -3 51 61 47 c33 25 60 48 60 51 0 6 -12 -1 -67 -38 -23 -15 -44 -28
-48 -28 -3 0 -5 28 -3 62 l3 62 60 13 60 12 -63 -5 -63 -5 3 113 c3 109 4 113
26 116 31 5 38 28 20 61 -18 32 -17 303 1 325 19 23 0 52 -31 47 -5 0 -8 149
-8 332 l0 333 31 15 31 15 -31 33 c-28 30 -31 39 -31 102 0 61 2 69 19 69 10
0 33 3 50 6 27 6 33 3 38 -15 4 -15 13 -21 33 -21 30 0 44 13 53 49 12 49 -58
70 -87 26 -14 -21 -25 -25 -61 -25 l-45 0 0 111 c0 65 4 108 9 104 11 -6 41
33 41 52 0 8 -11 18 -25 23 -38 14 -30 42 23 82 67 50 110 70 132 63 15 -5 18
-2 14 8 -4 10 6 18 33 25 49 13 163 15 163 3z m-626 -447 c42 -48 36 -55 -24
-24 -33 17 -59 20 -167 20 -121 0 -130 1 -158 25 l-30 24 170 0 170 -1 39 -44z
m-1406 -142 l3 -91 -133 -89 c-73 -49 -144 -95 -158 -102 -24 -12 -24 -11 4
19 16 17 46 42 66 56 28 20 44 42 64 95 31 78 121 213 139 207 8 -2 13 -36 15
-95z m272 -8 c11 -12 10 -18 -4 -32 -16 -16 -18 -16 -31 2 -11 14 -12 23 -4
33 15 17 24 16 39 -3z m1115 -64 c-25 -27 -35 -30 -87 -30 -45 0 -58 3 -58 15
0 12 13 15 58 15 36 0 66 6 78 15 33 25 39 16 9 -15z m-840 -546 c12 -12 13
-19 4 -30 -6 -8 -18 -14 -26 -14 -19 0 -28 27 -13 45 15 19 15 19 35 -1z
m-132 -118 c3 -8 -1 -20 -9 -27 -12 -10 -18 -9 -31 3 -8 9 -12 21 -9 27 10 16
43 14 49 -3z m-150 -158 c7 -21 -4 -38 -23 -38 -23 0 -34 16 -26 35 7 18 43
20 49 3z m1384 -190 c-1 -40 -3 -10 -3 67 0 77 1 110 3 73 2 -37 2 -100 0
-140z m-2029 160 c-2 -15 -10 -23 -23 -23 -13 0 -21 8 -23 23 -3 18 1 22 23
22 22 0 26 -4 23 -22z m750 -162 c-2 -13 -10 -21 -23 -21 -23 0 -33 34 -14 45
20 13 40 -1 37 -24z m2 -306 l0 -160 -250 0 -250 0 0 160 0 160 250 0 250 0 0
-160z m526 78 c30 -22 51 -44 47 -48 -4 -4 -32 -23 -60 -44 l-53 -38 0 86 c0
47 2 86 5 86 3 0 31 -19 61 -42z m-96 -28 l0 -30 -200 0 -200 0 0 30 0 30 200
0 200 0 0 -30z m-432 -364 c-2 -13 -10 -21 -23 -21 -23 0 -33 34 -14 45 20 13
40 -1 37 -24z m390 -54 c3 -16 -2 -22 -17 -22 -24 0 -35 15 -27 36 9 23 40 13
44 -14z m-3 -113 c0 -28 -23 -32 -39 -6 -8 14 -8 20 4 27 22 14 35 6 35 -21z
m-492 -11 c7 -21 -4 -38 -23 -38 -23 0 -34 16 -26 35 7 18 43 20 49 3z m12482
-113 c54 -53 16 -145 -60 -145 -66 0 -102 61 -74 124 23 49 95 61 134 21z
m-12340 -20 c0 -30 -39 -27 -43 3 -3 20 0 23 20 20 15 -2 23 -10 23 -23z
m4956 11 c196 -35 336 -156 395 -341 29 -90 33 -255 9 -344 -50 -190 -194
-325 -387 -365 -57 -12 -136 -16 -303 -16 l-225 0 0 540 0 540 218 0 c138 -1
245 -6 293 -14z m3671 -468 l3 -483 233 -3 232 -2 0 -55 0 -55 -300 0 -300 0
0 540 0 540 65 0 65 0 2 -482z m-8479 338 c7 -19 -18 -40 -38 -32 -15 6 -20
28 -8 39 12 12 41 7 46 -7z m7566 -195 c53 -28 105 -89 132 -157 20 -52 23
-76 23 -194 0 -158 -17 -216 -86 -294 -105 -120 -291 -139 -405 -41 -23 19
-44 35 -47 35 -3 0 -6 -79 -6 -175 l0 -175 -55 0 -55 0 0 505 0 505 44 0 c49
0 50 -1 62 -83 l6 -48 52 49 c57 54 96 77 153 92 52 13 137 4 182 -19z m2706
-2 c56 -29 73 -46 104 -104 l26 -50 3 -292 3 -293 -34 0 c-41 0 -53 12 -62 63
-4 20 -11 40 -17 43 -5 3 -27 -11 -50 -31 -105 -95 -279 -113 -369 -38 -78 66
-79 208 0 271 66 52 182 87 328 100 l88 7 -1 72 c-2 94 -25 140 -85 171 -61
32 -130 25 -224 -23 -38 -19 -76 -35 -82 -35 -7 0 -19 13 -28 29 -15 29 -14
31 18 55 107 82 282 107 382 55z m754 25 c32 -7 32 -7 29 -63 l-3 -56 -65 3
c-90 4 -143 -23 -187 -98 l-33 -54 0 -248 0 -248 -60 0 -60 0 0 376 0 375 48
-3 47 -3 9 -82 c5 -46 12 -83 16 -83 4 0 15 19 26 41 26 59 93 124 140 137 50
13 55 13 93 6z m-5167 -20 c60 -20 117 -70 150 -131 28 -51 55 -179 45 -207
-6 -14 -40 -16 -278 -16 l-272 0 6 -64 c8 -80 25 -123 72 -174 50 -56 105 -75
197 -71 59 3 88 11 143 38 l68 34 24 -28 c30 -34 23 -44 -58 -84 -196 -98
-423 -46 -512 117 -78 143 -75 334 8 459 65 98 151 142 281 143 48 0 99 -6
126 -16z m800 6 c67 -19 129 -71 167 -140 29 -53 35 -76 39 -142 l5 -78 -271
0 c-166 0 -273 -4 -277 -10 -19 -31 39 -203 82 -242 75 -68 219 -77 331 -20
34 18 67 32 72 32 5 0 17 -12 27 -26 17 -27 17 -27 -17 -56 -59 -49 -133 -71
-240 -72 -118 -1 -181 19 -248 79 -90 81 -128 187 -120 341 8 165 87 280 227
330 44 16 172 18 223 4z m2853 -17 c96 -51 155 -149 163 -270 l5 -73 -274 -2
-274 -3 2 -47 c7 -220 204 -322 416 -217 l68 34 19 -25 c11 -14 18 -29 17 -35
-7 -24 -101 -74 -166 -89 -93 -21 -156 -20 -234 4 -87 27 -163 95 -201 179
-50 112 -53 272 -6 378 35 79 122 155 210 184 14 5 68 7 120 6 73 -3 104 -8
135 -24z m2191 8 c22 -10 55 -36 72 -57 56 -68 62 -106 62 -411 l0 -273 -60 0
-60 0 0 273 c0 263 -1 274 -22 317 -57 113 -210 117 -333 9 l-35 -31 0 -285 0
-284 -57 3 -58 3 -3 373 -2 372 49 0 50 0 6 -47 c11 -79 11 -79 63 -31 77 72
111 86 217 87 48 0 83 -5 111 -18z m492 -358 l2 -373 -60 0 -60 0 0 375 0 376
58 -3 57 -3 3 -372z m753 354 c56 -30 102 -97 117 -172 7 -35 12 -159 12 -312
l0 -253 -59 0 -60 0 -3 278 c-3 259 -4 280 -24 317 -29 56 -74 80 -149 80 -68
0 -130 -26 -182 -75 l-33 -31 0 -285 0 -284 -60 0 -60 0 0 376 0 375 48 -3 47
-3 9 -57 8 -58 47 41 c72 65 132 89 222 89 60 0 85 -5 120 -23z m748 3 c34
-16 65 -20 142 -20 98 0 99 0 99 -24 0 -26 -8 -30 -78 -41 -30 -5 -42 -11 -38
-20 32 -85 29 -154 -11 -223 -47 -82 -166 -130 -293 -117 -61 6 -69 5 -88 -15
-41 -45 -32 -93 22 -115 20 -8 96 -19 171 -25 74 -5 152 -14 173 -20 115 -31
161 -121 113 -225 -53 -117 -204 -185 -381 -172 -105 8 -174 33 -228 82 -41
37 -45 46 -50 96 -4 51 -2 59 28 92 17 20 49 44 71 53 44 20 49 30 19 39 -31
10 -60 54 -60 92 0 44 23 83 66 112 19 13 34 26 34 30 0 3 -16 17 -36 30 -57
40 -89 104 -89 181 1 98 43 161 140 206 67 32 208 34 274 4z m-13979 -456 c11
-12 10 -18 -3 -31 -22 -23 -52 0 -36 28 12 23 22 24 39 3z m-852 -52 c3 -16
-2 -22 -17 -22 -24 0 -35 15 -27 36 9 23 40 13 44 -14z m2152 -562 c0 -19 -8
-20 -232 -22 l-233 -3 -3 -258 -2 -258 -28 3 -27 3 -3 265 c-1 146 0 270 3
277 3 10 64 13 265 13 253 0 260 -1 260 -20z m0 -80 c0 -19 -7 -20 -200 -20
l-200 0 0 -220 c0 -189 -2 -220 -15 -220 -13 0 -15 33 -15 240 l0 240 215 0
c208 0 215 -1 215 -20z m0 -335 l0 -285 -40 0 -40 0 0 160 0 160 -125 0 -125
0 0 -80 c0 -73 -2 -80 -20 -80 -19 0 -20 7 -20 205 l0 205 185 0 185 0 0 -285z
m-110 -155 l0 -160 55 0 55 0 0 -316 0 -315 -27 3 -28 3 -3 268 -2 267 -55 0
-55 0 0 140 0 140 -65 0 -65 0 0 58 c0 32 3 62 7 65 3 4 46 7 95 7 l88 0 0
-160z m-92 -247 l2 -243 -210 0 -210 0 0 238 c0 131 3 242 7 246 4 3 97 5 207
4 l201 -3 3 -242z m-315 -795 c7 -21 -4 -38 -23 -38 -23 0 -34 16 -26 35 7 18
43 20 49 3z m130 0 c7 -21 -4 -38 -23 -38 -23 0 -34 16 -26 35 7 18 43 20 49
3z m132 -13 c0 -13 -8 -21 -22 -23 -19 -3 -23 1 -23 23 0 22 4 26 23 23 14 -2
22 -10 22 -23z m1320 -280 c-16 -7 -54 -20 -82 -28 -44 -13 -53 -14 -53 -2 0
31 30 45 98 44 64 -1 66 -1 37 -14z"/>
<path d="M4774 8855 c-16 -12 -78 -14 -374 -15 l-355 -1 -178 -172 -178 -172
3 -229 c2 -173 6 -230 16 -234 9 -3 12 46 12 221 l0 224 170 167 169 166 349
0 c299 0 351 -2 362 -15 7 -8 22 -15 34 -15 43 0 61 44 30 74 -19 20 -35 20
-60 1z m54 -33 c3 -18 -1 -22 -22 -22 -19 0 -26 5 -26 18 0 39 43 43 48 4z"/>
<path d="M4068 8749 c-10 -5 -18 -20 -18 -32 0 -15 -37 -60 -115 -137 l-115
-115 2 -214 c2 -161 6 -215 16 -219 9 -3 12 42 12 204 l0 207 112 114 c72 73
119 113 133 113 42 0 60 44 29 74 -18 18 -32 20 -56 5z m47 -34 c0 -13 -8 -21
-22 -23 -17 -3 -23 2 -23 16 0 10 3 22 7 26 13 13 38 1 38 -19z"/>
<path d="M3964 8419 c-18 -20 -18 -22 -1 -51 14 -24 17 -55 17 -168 0 -113 -3
-144 -17 -168 -17 -29 -17 -31 1 -51 34 -38 76 -21 76 30 0 15 -4 31 -10 34
-6 4 -10 67 -10 155 0 88 4 151 10 155 6 3 10 19 10 34 0 51 -42 68 -76 30z
m53 -10 c16 -16 5 -39 -17 -39 -23 0 -34 16 -26 35 6 18 28 19 43 4z m6 -393
c7 -19 -18 -40 -38 -32 -15 6 -20 28 -8 39 12 12 41 7 46 -7z"/>
<path d="M4224 8419 c-18 -20 -18 -22 -1 -51 15 -26 17 -62 17 -301 l0 -272
-115 -115 -115 -115 0 -106 c0 -83 -3 -109 -15 -119 -32 -26 -12 -80 30 -80
42 0 62 54 30 80 -11 10 -15 36 -15 112 l0 99 115 111 115 111 0 282 c0 239 2
284 15 295 8 7 15 24 15 39 0 51 -42 67 -76 30z m53 -10 c16 -16 5 -39 -17
-39 -23 0 -34 16 -26 35 6 18 28 19 43 4z m-229 -1102 c4 -20 -25 -34 -40 -19
-15 15 -1 44 19 40 10 -2 19 -11 21 -21z"/>
<path d="M4117 8329 c-15 -21 -12 -59 4 -59 5 0 9 -93 9 -208 l0 -207 -125
-125 -125 -125 0 -147 c0 -85 -4 -148 -9 -148 -16 0 -23 -38 -11 -60 14 -27
55 -26 74 2 14 20 14 24 -4 53 -17 28 -20 50 -20 156 l0 124 130 130 130 130
0 202 c0 172 2 206 17 231 17 29 17 31 -1 51 -24 27 -51 27 -69 0z m58 -24 c0
-23 -34 -33 -45 -14 -13 20 1 40 24 37 13 -2 21 -10 21 -23z m-252 -1017 c7
-21 -4 -38 -23 -38 -23 0 -34 16 -26 35 7 18 43 20 49 3z"/>
<path d="M4815 8170 c-4 -6 -87 -10 -216 -10 -202 0 -209 -1 -209 -20 0 -19 7
-20 205 -20 146 0 211 -4 225 -12 37 -23 77 24 50 57 -14 17 -46 20 -55 5z"/>
<path d="M4815 8071 c-4 -7 -79 -11 -216 -11 -179 0 -209 -2 -209 -15 0 -13
29 -15 199 -15 170 0 204 -3 229 -17 26 -15 32 -15 46 -3 10 7 16 24 14 39 -2
20 -9 27 -30 29 -14 2 -29 -2 -33 -7z"/>
<path d="M4815 7980 c-4 -6 -87 -10 -216 -10 -179 0 -209 -2 -209 -15 0 -13
29 -15 204 -15 172 0 206 -2 216 -16 8 -8 25 -14 39 -12 46 5 37 78 -10 78
-10 0 -21 -4 -24 -10z"/>
<path d="M4815 7881 c-4 -7 -79 -11 -216 -11 -179 0 -209 -2 -209 -15 0 -13
29 -15 204 -15 169 0 206 -3 216 -15 27 -33 75 -7 68 37 -2 16 -11 24 -30 26
-14 2 -29 -2 -33 -7z"/>
<path d="M4400 7661 l0 -129 -62 -76 c-34 -42 -69 -76 -79 -76 -24 0 -42 -25
-34 -49 13 -41 75 -34 75 9 0 10 29 54 65 98 l65 79 0 137 c0 114 -2 136 -15
136 -13 0 -15 -21 -15 -129z"/>
<path d="M4500 7667 c0 -75 -4 -127 -11 -134 -19 -19 -6 -58 19 -61 44 -7 70
41 37 68 -12 10 -15 38 -15 131 0 99 -3 119 -15 119 -13 0 -15 -20 -15 -123z"/>
<path d="M4600 7665 c0 -69 -4 -125 -9 -125 -13 0 -20 -35 -9 -54 12 -22 55
-20 68 3 10 21 4 51 -11 51 -5 0 -9 56 -9 125 0 104 -2 125 -15 125 -13 0 -15
-21 -15 -125z"/>
<path d="M4700 7675 c0 -88 -4 -121 -16 -140 -22 -33 -4 -67 34 -63 22 2 28 9
30 36 2 18 -1 32 -7 32 -7 0 -11 43 -11 125 0 104 -2 125 -15 125 -12 0 -15
-19 -15 -115z"/>
<path d="M4797 7783 c-4 -3 -7 -57 -7 -120 0 -73 -4 -120 -12 -133 -17 -26 0
-55 32 -55 32 0 49 29 32 55 -8 13 -12 61 -12 140 0 93 -3 120 -13 120 -8 0
-17 -3 -20 -7z"/>
<path d="M2876 6683 c-4 -5 -105 -10 -223 -13 -161 -4 -217 -8 -221 -17 -3
-10 41 -13 198 -13 187 0 203 -1 228 -20 16 -12 35 -18 45 -15 25 10 31 44 11
66 -19 21 -27 23 -38 12z"/>
<path d="M4801 6581 c-7 -13 -6 -24 4 -37 20 -26 20 -241 1 -267 -26 -34 3
-75 44 -62 26 8 33 34 15 61 -22 33 -21 225 1 259 12 18 13 28 4 44 -14 26
-56 28 -69 2z"/>
<path d="M2865 6581 c-6 -6 -95 -12 -220 -13 -179 -3 -210 -5 -210 -18 0 -13
33 -16 210 -21 116 -4 223 -8 239 -10 35 -5 57 21 40 49 -13 20 -45 27 -59 13z"/>
<path d="M4322 6579 c-11 -4 -28 -19 -38 -33 -13 -22 -24 -26 -61 -26 -58 0
-54 -24 5 -28 29 -2 50 -11 67 -28 32 -32 74 -31 105 0 15 17 36 26 63 28 55
4 62 28 9 28 -33 0 -44 5 -61 29 -22 31 -55 42 -89 30z m56 -25 c41 -28 22
-94 -28 -94 -57 0 -78 79 -27 100 30 12 30 12 55 -6z"/>
<path d="M2550 6366 c0 -98 -3 -126 -15 -136 -21 -17 -19 -36 7 -54 15 -11 26
-12 40 -5 19 10 25 54 8 64 -6 4 -10 58 -10 131 0 104 -2 124 -15 124 -13 0
-15 -20 -15 -124z"/>
<path d="M2650 6375 c0 -89 -4 -121 -16 -140 -28 -42 7 -87 50 -63 18 10 22
53 6 63 -6 4 -10 58 -10 131 0 104 -2 124 -15 124 -12 0 -15 -19 -15 -115z"/>
<path d="M2747 6484 c-4 -4 -7 -60 -7 -125 0 -68 -4 -120 -10 -124 -18 -11
-11 -54 10 -65 40 -21 82 34 50 66 -5 5 -11 63 -12 128 -3 111 -10 140 -31
120z"/>
<path d="M2840 6366 c0 -73 -4 -127 -10 -131 -17 -11 -11 -54 9 -65 28 -14 66
18 57 48 -4 12 -12 22 -17 22 -5 0 -9 54 -9 125 0 104 -2 125 -15 125 -13 0
-15 -20 -15 -124z"/>
<path d="M4596 6444 c-9 -8 -16 -23 -16 -33 0 -10 -10 -27 -23 -39 -22 -21
-32 -22 -196 -22 -172 0 -173 0 -212 28 -25 17 -39 35 -39 50 0 13 -6 22 -15
22 -12 0 -15 -19 -15 -110 0 -91 3 -110 15 -110 8 0 15 4 15 10 0 5 15 1 33
-10 29 -18 50 -20 219 -20 l187 0 33 29 c19 16 47 31 63 33 24 2 31 8 33 31 4
32 -13 57 -38 57 -20 0 -50 -31 -50 -52 0 -8 -10 -24 -23 -36 -22 -21 -32 -22
-211 -22 -174 0 -190 2 -217 21 -22 16 -29 28 -29 55 0 40 3 41 37 14 24 -18
41 -20 218 -20 191 0 192 0 215 25 13 14 33 25 45 25 42 0 60 44 29 74 -8 9
-22 16 -29 16 -7 0 -21 -7 -29 -16z m52 -28 c4 -21 -14 -37 -35 -29 -14 5 -18
35 -6 47 12 12 38 1 41 -18z m11 -89 c8 -10 7 -19 -4 -33 -13 -18 -15 -18 -31
-2 -14 14 -15 20 -4 32 15 19 24 20 39 3z"/>
<path d="M3506 6284 c-9 -8 -16 -24 -16 -34 0 -23 35 -49 58 -44 10 2 59 -30
122 -81 l105 -84 494 -1 c441 0 496 -2 512 -16 23 -21 65 -11 74 16 15 47 -43
80 -79 45 -12 -13 -82 -15 -499 -15 l-484 0 -106 83 c-59 45 -106 90 -107 99
0 20 -26 48 -45 48 -7 0 -21 -7 -29 -16z m52 -28 c4 -21 -14 -37 -35 -29 -14
5 -18 35 -6 47 12 12 38 1 41 -18z m1277 -201 c0 -23 -34 -33 -45 -14 -13 20
1 40 24 37 13 -2 21 -10 21 -23z"/>
<path d="M4776 5975 c-12 -13 -83 -15 -508 -15 l-494 0 -44 -45 c-26 -27 -53
-45 -66 -45 -43 0 -70 -50 -42 -78 7 -7 24 -12 39 -12 27 0 39 15 39 50 0 10
21 37 46 59 l47 41 487 0 c421 0 489 -2 500 -15 17 -21 44 -19 65 5 39 44 -27
97 -69 55z m58 -14 c9 -13 -4 -41 -18 -41 -18 0 -35 21 -29 36 6 16 39 19 47
5z m-1156 -139 c3 -16 -2 -22 -17 -22 -24 0 -35 15 -27 36 9 23 40 13 44 -14z"/>
<path d="M2401 5951 c-25 -35 -26 -41 -6 -41 13 0 15 -31 15 -220 l0 -220 611
0 610 0 -3 -52 -3 -53 -537 -3 c-474 -2 -538 0 -538 13 0 21 -20 18 -50 -5
l-25 -20 30 -25 c35 -29 45 -31 45 -10 0 13 67 15 540 15 l540 0 0 -65 0 -65
-420 0 c-367 0 -420 2 -420 15 0 21 -12 19 -45 -7 l-28 -22 29 -23 c34 -27 44
-29 44 -8 0 13 53 15 420 15 l420 0 0 -50 0 -50 -350 0 -350 0 0 -360 c0 -313
-2 -360 -15 -360 -21 0 -19 -12 7 -45 l22 -28 23 29 c27 34 29 44 8 44 -13 0
-15 44 -15 340 l0 340 348 2 347 3 3 232 2 233 -607 2 -608 3 -3 195 c-2 170
0 196 14 207 15 11 14 14 -2 42 -10 17 -22 31 -25 31 -4 0 -17 -13 -28 -29z"/>
<path d="M4775 5840 c-4 -6 -117 -10 -306 -10 l-299 0 0 -255 c0 -220 2 -255
15 -255 13 0 15 33 15 235 l0 235 280 0 c206 0 286 -3 300 -12 37 -23 77 24
50 57 -14 17 -46 20 -55 5z"/>
<path d="M4240 5755 c-29 -35 25 -82 59 -51 15 14 52 16 249 16 l232 0 0 -200
c0 -171 2 -200 15 -200 13 0 15 31 15 215 l0 215 -249 0 c-156 0 -252 4 -256
10 -9 15 -51 12 -65 -5z"/>
<path d="M4675 5681 c-6 -6 -95 -12 -220 -13 l-210 -3 -3 -172 c-2 -150 0
-173 13 -173 13 0 15 19 15 122 0 117 1 120 18 105 21 -19 57 -22 67 -7 4 6
70 10 166 10 l159 0 0 -116 c0 -105 2 -115 18 -112 15 3 17 17 17 128 l0 125
-176 3 c-141 2 -179 5 -189 17 -16 20 -39 19 -62 -2 -17 -15 -18 -15 -18 10
l0 27 198 0 c134 0 202 -4 209 -11 7 -7 23 -9 38 -5 22 6 26 11 23 39 -2 26
-8 33 -28 35 -14 2 -30 -2 -35 -7z"/>
<path d="M2652 5038 c-15 -15 -16 -44 -2 -53 15 -9 13 -241 -2 -265 -17 -26 0
-55 32 -55 32 0 49 29 32 55 -8 13 -12 60 -12 135 0 75 4 122 12 135 24 37
-29 79 -60 48z"/>
<path d="M2802 5038 c-15 -15 -16 -44 -2 -53 14 -9 13 -248 -1 -262 -7 -7 -9
-23 -5 -38 5 -21 12 -26 33 -23 35 4 52 31 35 58 -8 13 -12 60 -12 135 0 75 4
122 12 135 24 37 -29 79 -60 48z"/>
<path d="M4114 4005 c-16 -12 -70 -14 -311 -15 l-293 0 0 -255 c0 -220 2 -255
15 -255 13 0 15 33 15 240 l0 240 275 0 c238 0 279 -2 301 -16 23 -16 26 -15
44 1 25 22 25 37 2 58 -23 21 -23 21 -48 2z"/>
<path d="M3105 3953 c-11 -30 27 -65 49 -43 13 13 212 13 237 -1 26 -13 51 5
47 34 -3 19 -11 20 -165 21 -122 1 -164 -2 -168 -11z"/>
<path d="M3588 3929 c-21 -12 -23 -40 -6 -57 15 -15 54 -16 63 -2 4 6 95 10
241 10 l234 0 0 -200 c0 -171 2 -200 15 -200 13 0 15 31 15 215 l0 215 -249 0
c-209 0 -251 2 -261 15 -14 17 -28 18 -52 4z"/>
<path d="M4016 3845 c-12 -12 -51 -15 -225 -15 l-211 0 0 -175 c0 -149 2 -175
15 -175 13 0 15 24 15 160 l0 160 200 0 c110 0 200 -4 200 -9 0 -13 35 -20 54
-9 22 12 20 55 -3 68 -25 13 -27 13 -45 -5z"/>
<path d="M3624 3743 c-5 -19 -2 -30 11 -40 22 -15 41 -17 50 -3 4 6 72 10 171
10 l164 0 0 -115 c0 -96 3 -115 15 -115 13 0 15 22 15 135 l0 135 -180 0
c-113 0 -180 4 -180 10 0 6 -13 10 -30 10 -24 0 -31 -5 -36 -27z"/>
<path d="M5167 8863 c-10 -16 -47 -151 -47 -169 1 -16 2 -16 9 -4 24 41 61
211 38 173z"/>
<path d="M5372 8783 c-7 -3 -19 -20 -27 -38 -11 -27 -29 -42 -85 -70 -40 -20
-70 -38 -67 -41 2 -2 35 9 73 26 49 22 78 30 99 26 19 -4 38 -1 50 8 17 13 18
17 5 55 -13 40 -21 45 -48 34z"/>
<path d="M5690 8691 c-37 -32 -50 -38 -76 -34 -17 3 -40 1 -50 -5 -15 -8 -28
-5 -59 14 -56 33 -65 30 -19 -7 38 -30 56 -67 56 -117 0 -20 3 -22 37 -16 20
3 49 15 65 26 28 20 31 20 115 5 104 -20 218 -32 210 -23 -3 3 -70 17 -149 31
-171 29 -190 43 -129 101 26 25 56 65 47 64 -2 0 -23 -18 -48 -39z"/>
<path d="M6004 8533 c-5 -19 -2 -30 11 -40 27 -19 44 -16 57 11 15 35 4 56
-31 56 -25 0 -32 -5 -37 -27z"/>
<path d="M5280 8404 c41 -44 42 -48 25 -60 -24 -18 -20 -18 -145 6 -116 22
-134 24 -126 12 3 -5 60 -17 126 -27 l121 -19 20 -37 c29 -58 81 -63 141 -16
17 13 17 17 2 59 -15 45 -16 46 -64 50 -39 4 -58 13 -90 41 -56 51 -61 46 -10
-9z"/>
<path d="M4980 8251 c0 -18 63 -145 67 -134 5 14 -49 143 -59 143 -5 0 -8 -4
-8 -9z"/>
<path d="M5933 8235 c-29 -13 -53 -26 -53 -29 0 -7 102 33 115 45 16 16 -7 10
-62 -16z"/>
<path d="M5723 8204 c-27 -14 -33 -22 -33 -48 0 -42 17 -62 63 -75 l39 -10 19
42 c27 60 24 74 -17 92 -20 8 -37 15 -38 15 0 0 -16 -8 -33 -16z"/>
<path d="M6162 8203 c2 -5 20 -38 41 -75 38 -66 57 -90 57 -69 0 15 -84 151
-93 151 -5 0 -7 -3 -5 -7z"/>
<path d="M6772 8062 c39 -66 56 -87 62 -81 8 7 -63 119 -75 119 -6 0 0 -17 13
-38z"/>
<path d="M5036 8067 c-28 -20 -18 -85 16 -110 27 -20 29 -20 64 -4 35 17 35
19 29 60 -4 23 -14 48 -23 55 -21 16 -63 15 -86 -1z"/>
<path d="M5671 8008 c-17 -29 -43 -80 -58 -115 -20 -45 -34 -65 -50 -68 -13
-3 -33 -7 -45 -10 -44 -9 -88 -44 -88 -69 0 -28 5 -27 -212 -52 -82 -10 -148
-21 -148 -26 0 -10 -11 -11 185 13 125 15 170 18 173 9 11 -31 51 -63 87 -69
36 -6 39 -9 52 -56 38 -134 76 -249 80 -239 2 7 -14 76 -37 155 l-41 142 28
31 c51 56 49 56 183 56 114 0 129 -2 145 -20 23 -26 71 -26 85 -1 24 46 9 70
-52 85 -23 5 -28 3 -28 -13 0 -33 -32 -41 -163 -41 l-124 0 -28 41 -27 41 47
97 c58 118 77 161 70 161 -2 0 -18 -23 -34 -52z"/>
<path d="M6284 7984 c-32 -31 -26 -68 15 -101 l28 -23 -3 -212 c-2 -126 0
-201 5 -183 5 17 9 112 10 212 l1 182 26 20 c14 11 30 21 37 24 19 6 -21 83
-49 96 -35 16 -42 14 -70 -15z"/>
<path d="M5048 7914 c-12 -19 -68 -165 -68 -176 0 -24 19 9 50 86 17 43 29 83
27 89 -2 7 -6 7 -9 1z"/>
<path d="M6158 7849 c-38 -22 -68 -45 -68 -50 0 -12 87 35 128 68 43 35 13 26
-60 -18z"/>
<path d="M6440 7886 c0 -12 99 -55 105 -46 3 5 -9 16 -28 24 -49 20 -77 28
-77 22z"/>
<path d="M6766 7672 c80 -71 157 -132 166 -132 14 0 9 6 -85 84 -37 31 -73 56
-79 56 -7 0 -8 -3 -2 -8z"/>
<path d="M6496 7595 c-21 -36 -36 -69 -32 -72 8 -8 6 -10 50 65 39 67 40 72
28 72 -4 0 -25 -29 -46 -65z"/>
<path d="M5236 7518 c-60 -45 -104 -84 -98 -86 13 -4 212 144 212 158 0 6 -1
10 -2 10 -2 0 -52 -37 -112 -82z"/>
<path d="M5822 7494 c-30 -52 -51 -98 -48 -101 3 -4 8 -4 10 -2 9 10 106 186
106 192 0 23 -21 -5 -68 -89z"/>
<path d="M5375 7410 c-32 -72 -55 -133 -51 -137 8 -9 6 -14 69 129 61 135 62
138 49 138 -5 0 -35 -59 -67 -130z"/>
<path d="M7024 7466 c-32 -50 7 -107 60 -86 21 8 26 16 26 44 0 35 -11 49 -47
60 -17 5 -26 1 -39 -18z"/>
<path d="M6685 7358 c-110 -22 -202 -42 -204 -44 -2 -2 -2 -6 1 -9 7 -8 430
75 443 86 16 16 -35 9 -240 -33z"/>
<path d="M6307 7353 c-9 -2 -26 -22 -37 -43 -20 -39 -20 -39 0 -50 31 -17 43
-49 43 -119 l-1 -66 10 55 c14 82 24 100 53 100 23 0 25 4 25 44 0 36 -5 48
-26 65 -27 21 -34 23 -67 14z"/>
<path d="M6996 7243 c-24 -76 -47 -174 -44 -185 2 -6 19 38 37 98 19 60 36
115 38 122 3 6 1 12 -5 12 -6 0 -17 -21 -26 -47z"/>
<path d="M5632 7257 c-27 -28 -28 -67 -4 -97 15 -19 24 -21 65 -15 41 6 47 10
47 31 0 17 8 28 28 36 l27 12 -25 3 c-14 3 -29 10 -35 17 -13 16 -50 36 -68
36 -7 0 -23 -10 -35 -23z"/>
<path d="M6020 7253 c-189 -21 -219 -26 -190 -31 36 -6 380 30 380 40 0 10
-36 9 -190 -9z"/>
<path d="M5208 7103 c-10 -2 -18 -10 -18 -18 0 -7 -7 -18 -15 -25 -13 -11 -9
-17 31 -40 46 -26 48 -26 66 -8 20 20 23 50 8 79 -10 18 -34 22 -72 12z"/>
<path d="M6595 7090 c-5 -8 0 -44 12 -80 4 -13 6 -12 14 3 6 9 19 17 29 17 24
0 25 18 4 48 -16 23 -48 30 -59 12z"/>
<path d="M6276 7014 c-28 -35 -28 -38 -11 -50 24 -18 61 -18 68 -1 3 8 -2 30
-11 51 l-17 37 -29 -37z"/>
<path d="M6755 6992 c62 -33 70 -40 71 -68 1 -16 5 -40 8 -52 7 -22 53 -52 80
-52 9 0 14 -11 14 -35 0 -58 35 -285 44 -285 10 0 11 -11 -13 163 -18 127 -20
152 -8 156 8 2 29 20 48 39 l33 36 127 -17 c141 -19 175 -21 151 -8 -8 4 -75
16 -148 26 l-133 18 -15 36 c-8 20 -27 45 -41 57 l-27 21 -59 -24 -60 -24 -57
25 c-86 39 -95 31 -15 -12z"/>
<path d="M6007 6963 c-21 -3 -27 -9 -23 -20 3 -8 6 -23 6 -34 0 -10 11 -26 25
-35 23 -15 27 -15 49 0 14 8 27 25 31 36 4 14 23 25 61 36 71 20 63 30 -11 13
-44 -10 -61 -10 -76 -1 -10 7 -22 11 -26 11 -5 -1 -21 -4 -36 -6z"/>
<path d="M6236 6836 c-27 -89 -32 -117 -17 -100 5 5 19 42 31 83 12 40 24 80
27 87 3 8 1 14 -5 14 -5 0 -21 -38 -36 -84z"/>
<path d="M5483 6903 c-30 -4 -31 -6 -26 -38 5 -31 3 -35 -36 -54 -52 -27 -53
-34 0 -16 36 13 44 13 62 0 12 -8 39 -15 61 -15 35 0 47 -7 93 -52 67 -66 68
-57 3 18 -38 44 -48 62 -44 80 4 13 -2 35 -12 53 -19 32 -25 33 -101 24z"/>
<path d="M6550 6755 c-7 -8 -16 -12 -21 -9 -15 9 -21 -21 -9 -50 8 -22 15 -27
38 -24 32 4 40 31 19 71 -12 24 -16 25 -27 12z"/>
<path d="M7273 6693 c-16 -16 -57 -57 -89 -93 -47 -52 -40 -47 34 25 51 49 92
91 92 92 0 7 -7 2 -37 -24z"/>
<path d="M6132 6660 l-26 -30 -157 0 c-127 0 -159 3 -169 15 -7 8 -23 15 -36
15 -21 0 -24 -5 -24 -34 0 -21 6 -36 15 -40 8 -3 15 -13 15 -23 1 -11 6 -6 15
14 7 17 22 34 32 37 10 3 85 4 166 3 l149 -2 20 -27 c16 -23 27 -28 62 -28 37
0 47 -6 94 -53 51 -52 53 -55 46 -95 -11 -67 21 -85 114 -66 26 5 30 9 22 24
-5 9 -8 30 -7 46 2 28 -1 29 -57 41 -51 10 -66 19 -113 66 l-55 54 15 35 c15
35 14 36 -14 57 -40 30 -76 27 -107 -9z"/>
<path d="M6366 6674 c-75 -18 -86 -29 -21 -20 81 11 105 17 105 27 0 12 -12
11 -84 -7z"/>
<path d="M5056 6618 c-50 -28 -84 -54 -78 -56 13 -4 181 89 182 101 0 14 -15
7 -104 -45z"/>
<path d="M5377 6664 c-5 -5 12 -39 63 -124 4 -8 12 -12 15 -8 4 4 -10 35 -30
70 -44 74 -40 70 -48 62z"/>
<path d="M6726 6587 c-43 -31 10 -98 67 -83 22 5 27 12 27 39 0 18 -5 38 -12
45 -16 16 -60 15 -82 -1z"/>
<path d="M6595 6494 c-46 -17 -75 -41 -35 -29 31 9 99 44 85 44 -5 0 -28 -7
-50 -15z"/>
<path d="M5502 6434 c-22 -15 -22 -16 -5 -45 20 -34 24 -35 52 -11 18 15 19
20 8 41 -16 32 -27 35 -55 15z"/>
<path d="M6954 6426 c-13 -33 0 -51 36 -51 32 0 35 2 35 30 0 27 -4 30 -33 33
-22 2 -34 -2 -38 -12z"/>
<path d="M7360 6415 c-10 -12 -41 -15 -154 -16 -104 -1 -129 -4 -96 -10 25 -4
90 -8 146 -8 72 -1 106 -5 120 -16 29 -22 42 -18 49 16 5 22 3 34 -6 40 -21
13 -45 11 -59 -6z"/>
<path d="M6090 6333 c-138 -36 -147 -39 -138 -48 6 -6 280 59 313 75 46 20
-44 7 -175 -27z"/>
<path d="M5800 6305 c0 -8 -7 -18 -15 -21 -23 -9 -19 -54 4 -54 23 0 46 -26
47 -54 1 -44 37 -206 45 -206 12 0 12 -3 -12 113 -13 66 -19 118 -15 149 6 43
4 48 -24 68 -25 18 -30 19 -30 5z"/>
<path d="M7060 6285 c0 -15 94 -164 101 -160 9 6 -81 164 -93 165 -5 0 -8 -2
-8 -5z"/>
<path d="M7003 6248 c3 -18 11 -85 18 -148 7 -63 16 -119 22 -125 6 -6 7 13 3
55 -16 165 -29 250 -38 250 -6 0 -8 -14 -5 -32z"/>
<path d="M7291 6180 c-17 -43 -31 -86 -31 -94 0 -8 -17 -23 -37 -33 -32 -15
-38 -24 -41 -54 -3 -31 1 -37 20 -43 38 -10 48 -7 72 19 14 15 46 30 82 39
l59 15 -67 -6 c-95 -8 -99 5 -48 132 44 107 44 105 31 105 -5 0 -23 -36 -40
-80z"/>
<path d="M5569 6189 c-34 -35 -45 -40 -67 -34 -92 23 -108 17 -97 -35 4 -20
13 -30 25 -30 29 0 50 11 50 26 0 7 16 16 36 20 30 6 40 2 65 -22 28 -26 30
-33 24 -73 -4 -24 -10 -79 -14 -122 -6 -50 -14 -84 -25 -94 -19 -19 -19 -21
-6 -46 8 -13 7 -25 0 -40 -10 -18 -18 -20 -59 -14 l-47 6 -31 -58 c-37 -72
-66 -89 -150 -86 -62 1 -63 1 -63 -26 0 -21 8 -31 35 -44 45 -22 45 -22 45 7
0 28 12 39 64 54 44 12 58 7 99 -35 26 -28 27 -31 16 -87 -16 -86 -5 -90 17
-6 l19 74 46 14 47 15 6 55 c6 48 4 58 -15 78 -25 27 -19 57 16 80 35 23 40
45 14 65 -21 16 -22 18 -10 115 16 131 20 142 43 150 16 5 37 -11 100 -72 93
-92 123 -142 114 -192 -3 -19 -13 -43 -22 -53 -17 -18 -16 -21 7 -52 21 -29
24 -42 24 -130 l0 -98 -50 -27 c-27 -15 -51 -28 -53 -28 -2 -1 4 -30 13 -64 9
-34 15 -65 13 -70 -2 -4 -24 -26 -51 -48 -38 -33 -52 -40 -69 -33 -12 4 -36 4
-54 -2 -26 -8 -39 -5 -80 18 l-49 27 48 -43 c43 -40 48 -49 50 -91 1 -27 7
-48 12 -48 27 0 91 24 101 38 8 11 21 13 50 9 21 -3 82 -13 134 -21 52 -9 106
-16 119 -16 52 0 8 12 -128 35 -77 13 -145 27 -151 30 -20 12 -9 43 30 87 l40
46 70 -4 c66 -3 73 -6 98 -36 15 -18 37 -44 50 -58 31 -34 15 -1 -31 64 -34
47 -35 49 -21 82 22 52 5 105 -41 127 l-35 17 0 103 c0 91 3 106 20 122 18 16
18 20 4 46 -8 16 -19 29 -24 29 -19 0 -10 41 15 64 42 39 25 86 -33 86 -22 0
-166 145 -177 178 -4 13 -4 38 -1 56 6 31 4 33 -33 44 -51 16 -46 17 -92 -29z"/>
<path d="M6665 6210 c-4 -6 -4 -23 -1 -37 6 -21 11 -24 34 -18 33 8 31 6 34
36 3 20 -2 24 -29 27 -17 2 -34 -2 -38 -8z"/>
<path d="M6075 6147 c-14 -11 -16 -21 -11 -50 7 -35 9 -37 46 -37 42 0 44 2
54 42 11 48 -45 76 -89 45z"/>
<path d="M6528 6037 c-57 -52 -109 -101 -117 -110 -10 -13 -30 -17 -81 -17
l-68 0 -16 -40 c-21 -52 -20 -73 3 -101 16 -20 26 -22 85 -21 36 1 66 -2 66
-7 0 -41 34 -248 42 -256 7 -7 9 3 5 30 -24 169 -30 237 -21 243 11 8 12 67 2
78 -5 4 -8 19 -8 34 0 20 27 55 111 143 61 64 108 117 106 117 -3 0 -52 -42
-109 -93z"/>
<path d="M6701 6084 c1 -54 35 -324 42 -331 12 -11 7 65 -12 210 -17 128 -32
188 -30 121z"/>
<path d="M5460 6055 c0 -15 81 -177 86 -172 8 8 -66 177 -78 177 -4 0 -8 -2
-8 -5z"/>
<path d="M7017 5896 c-3 -8 -3 -24 0 -36 8 -32 54 -24 64 12 4 15 4 29 1 32
-11 12 -60 6 -65 -8z"/>
<path d="M5033 5830 c0 -41 2 -58 4 -37 2 20 2 54 0 75 -2 20 -4 3 -4 -38z"/>
<path d="M7300 5892 c0 -11 89 -126 101 -130 17 -7 9 10 -36 68 -46 60 -65 78
-65 62z"/>
<path d="M5735 5858 c-85 -33 -72 -36 38 -7 20 5 37 14 37 19 0 14 -17 11 -75
-12z"/>
<path d="M5370 5861 c0 -5 10 -12 23 -15 12 -3 43 -12 70 -20 70 -22 57 -1
-15 23 -69 24 -78 25 -78 12z"/>
<path d="M5165 5790 c-22 -22 -33 -40 -25 -39 16 1 88 79 73 79 -5 0 -27 -18
-48 -40z"/>
<path d="M6540 5812 c0 -7 102 -62 115 -62 3 0 5 4 5 8 0 7 -102 62 -115 62
-3 0 -5 -4 -5 -8z"/>
<path d="M5054 5746 c-11 -30 1 -50 35 -57 19 -4 51 -25 77 -50 57 -56 57 -38
-1 30 -25 29 -45 61 -45 72 0 15 -7 19 -30 19 -17 0 -33 -6 -36 -14z"/>
<path d="M6777 5722 c-20 -22 -22 -61 -4 -85 6 -10 28 -20 49 -23 31 -6 38 -3
53 20 20 31 14 91 -11 100 -30 12 -71 6 -87 -12z"/>
<path d="M5682 5698 c-29 -12 -51 -23 -48 -25 7 -7 126 29 126 38 0 13 -19 10
-78 -13z"/>
<path d="M7051 5692 c-7 -14 -6 -24 4 -38 13 -18 15 -18 32 -1 13 13 15 21 7
34 -16 25 -31 27 -43 5z"/>
<path d="M7222 5690 c-19 -31 -15 -67 10 -84 36 -25 57 -20 74 19 19 47 19 48
-25 68 -46 21 -44 21 -59 -3z"/>
<path d="M5047 5643 c-17 -28 -55 -143 -48 -148 9 -5 66 143 58 151 -3 3 -7 1
-10 -3z"/>
<path d="M6133 5634 c-7 -3 -8 -15 -4 -32 5 -20 15 -28 35 -30 36 -4 49 8 40
42 -5 20 -12 26 -33 25 -14 0 -31 -3 -38 -5z"/>
<path d="M6892 5468 c30 -91 48 -127 48 -97 0 28 -56 183 -68 187 -6 2 3 -38
20 -90z"/>
<path d="M7327 5403 c41 -125 63 -176 63 -147 0 24 -89 279 -99 282 -5 2 11
-59 36 -135z"/>
<path d="M7127 5463 c-37 -52 -61 -93 -53 -93 5 0 68 91 90 128 18 30 -5 8
-37 -35z"/>
<path d="M6407 5443 c-16 -4 -18 -11 -12 -51 8 -57 10 -59 62 -68 39 -6 42 -4
57 24 40 78 -9 120 -107 95z"/>
<path d="M5211 5403 c-6 -21 -17 -60 -25 -88 -14 -45 -14 -66 -1 -53 12 12 52
169 44 173 -4 3 -13 -11 -18 -32z"/>
<path d="M5429 5353 c-8 -2 -21 -19 -28 -38 -10 -28 -24 -40 -88 -70 -41 -20
-73 -38 -71 -41 3 -2 37 9 77 26 51 22 81 29 104 25 20 -3 39 0 51 9 17 14 17
18 4 53 -16 39 -22 43 -49 36z"/>
<path d="M6586 5342 c12 -11 227 -72 251 -72 32 1 -6 16 -122 49 -114 32 -146
38 -129 23z"/>
<path d="M6931 5271 c-28 -52 -1 -96 57 -89 25 3 27 6 27 53 l0 50 -37 3 c-28
2 -39 -1 -47 -17z"/>
<path d="M7090 5222 c0 -9 222 -53 229 -46 9 9 -10 15 -110 34 -119 23 -119
23 -119 12z"/>
<path d="M6067 5123 c-17 -16 -6 -54 19 -65 30 -14 44 0 44 45 0 23 -4 27 -28
27 -16 0 -32 -3 -35 -7z"/>
<path d="M5334 4977 c35 -44 37 -50 23 -64 -14 -14 -26 -14 -130 6 -123 23
-163 26 -137 12 8 -5 67 -17 131 -26 116 -18 117 -19 133 -52 26 -55 85 -66
136 -25 22 18 23 21 11 64 -13 45 -14 46 -62 51 -37 5 -62 16 -97 44 l-47 38
39 -48z"/>
<path d="M6608 4936 l-33 -45 -173 -1 -173 0 -40 32 c-21 17 -41 29 -43 27 -2
-2 -11 -26 -20 -53 -17 -54 -15 -60 32 -72 17 -5 31 1 51 20 27 26 27 26 197
26 l170 0 15 -32 c8 -19 28 -39 46 -48 l33 -15 0 -164 0 -163 -30 -35 c-35
-39 -35 -44 -15 -83 12 -23 22 -30 46 -30 46 0 90 29 83 55 -9 30 -33 65 -50
72 -11 4 -14 37 -14 179 0 165 1 174 19 174 11 0 33 16 49 36 l30 36 158 -11
159 -11 23 -30 c28 -35 68 -40 103 -11 21 17 22 21 11 60 -7 23 -11 45 -8 49
2 4 -18 7 -45 7 -44 0 -50 -3 -61 -29 l-12 -29 -100 7 c-56 4 -130 9 -165 13
-63 6 -63 6 -83 49 -22 51 -20 50 -80 58 -46 7 -47 7 -80 -38z"/>
<path d="M5046 4793 c9 -21 23 -55 32 -75 8 -21 19 -38 24 -38 11 0 4 25 -29
96 -27 60 -53 76 -27 17z"/>
<path d="M6005 4814 c-46 -17 -75 -41 -35 -29 31 9 99 44 85 44 -5 0 -28 -7
-50 -15z"/>
<path d="M5773 4770 c-29 -17 -32 -23 -27 -52 8 -42 20 -54 65 -66 34 -9 38
-8 49 17 7 14 16 41 20 59 8 31 6 33 -27 47 -44 19 -42 19 -80 -5z"/>
<path d="M6220 4775 c0 -18 88 -157 93 -148 3 4 -12 37 -33 72 -40 66 -60 92
-60 76z"/>
<path d="M6985 4671 c-2 -5 23 -26 58 -48 34 -22 75 -48 91 -58 19 -13 28 -15
25 -6 -7 19 -167 122 -174 112z"/>
<path d="M6810 4663 c0 -5 52 -92 67 -112 2 -2 6 -1 9 2 8 7 -56 117 -68 117
-4 0 -8 -3 -8 -7z"/>
<path d="M5092 4637 c-20 -9 -23 -16 -18 -46 3 -19 17 -46 30 -60 25 -25 26
-25 61 -8 32 15 35 20 35 62 0 40 -3 47 -26 55 -32 12 -53 12 -82 -3z"/>
<path d="M5727 4578 c-14 -24 -40 -73 -58 -110 -31 -62 -35 -67 -77 -78 -71
-18 -102 -37 -102 -65 0 -13 -4 -26 -8 -29 -5 -3 -83 -15 -173 -26 -168 -21
-196 -27 -187 -36 3 -3 80 4 171 16 92 11 172 20 179 20 7 0 19 -13 26 -28 13
-31 49 -52 87 -52 20 0 26 -7 35 -42 29 -112 71 -243 81 -253 13 -12 8 10 -37
165 -19 63 -34 120 -34 126 0 6 17 30 38 53 l37 41 130 0 c119 0 132 -2 148
-21 25 -29 68 -22 86 15 12 25 11 30 -5 46 -11 10 -30 20 -44 23 -20 5 -28 1
-42 -23 l-17 -30 -130 0 c-128 0 -130 0 -150 27 -38 47 -36 63 24 183 56 111
70 161 22 78z"/>
<path d="M6342 4564 c-33 -23 -29 -69 10 -105 l31 -30 -6 -182 c-3 -100 -2
-198 2 -217 6 -23 9 31 10 167 1 111 5 213 11 228 5 14 23 31 39 38 l30 13
-19 41 c-27 60 -65 77 -108 47z"/>
<path d="M5071 4408 c-18 -46 -35 -89 -38 -95 -3 -7 0 -13 5 -13 6 0 25 37 42
83 18 45 35 88 37 95 3 6 1 12 -4 12 -6 0 -25 -37 -42 -82z"/>
<path d="M6480 4464 c0 -2 27 -17 60 -34 39 -20 60 -26 60 -18 0 7 -27 23 -60
35 -33 12 -60 20 -60 17z"/>
<path d="M6208 4418 c-37 -22 -65 -44 -63 -49 5 -7 155 77 155 87 0 12 -32 -1
-92 -38z"/>
<path d="M6820 4246 c0 -5 137 -119 157 -130 30 -17 3 13 -68 74 -60 52 -89
70 -89 56z"/>
<path d="M6584 4219 c-26 -33 -75 -129 -66 -129 12 0 84 119 80 132 -2 6 -8 4
-14 -3z"/>
<path d="M5310 4103 c-47 -36 -94 -71 -104 -79 -11 -7 -17 -16 -13 -20 7 -7
217 146 217 158 0 15 -16 6 -100 -59z"/>
<path d="M5881 4070 c-47 -82 -65 -129 -42 -104 10 10 111 183 111 190 0 2 -4
4 -9 4 -6 0 -33 -40 -60 -90z"/>
<path d="M5435 3990 c-31 -71 -55 -135 -52 -142 2 -7 11 3 20 22 8 19 35 81
60 137 25 57 42 105 38 108 -5 2 -34 -54 -66 -125z"/>
<path d="M6357 3919 c-17 -10 -47 -59 -47 -78 0 -5 9 -12 19 -16 30 -9 44 -58
38 -128 -7 -71 6 -50 18 28 8 59 19 75 51 75 21 0 24 5 24 40 0 66 -54 107
-103 79z"/>
<path d="M5681 3824 c-27 -34 -26 -57 2 -89 21 -25 26 -26 67 -18 38 7 45 13
48 34 2 17 12 29 30 36 26 11 26 11 3 12 -13 1 -36 12 -53 26 -38 32 -71 32
-97 -1z"/>
<path d="M6070 3824 c-183 -21 -220 -27 -190 -32 34 -6 373 29 385 40 12 11
-43 9 -195 -8z"/>
<path d="M5258 3669 c-10 -5 -18 -17 -18 -24 0 -8 -4 -15 -10 -15 -23 0 -7
-17 40 -43 40 -22 50 -25 50 -13 0 9 6 16 13 16 10 0 12 11 8 43 -5 38 -9 42
-36 44 -16 2 -38 -2 -47 -8z"/>
<path d="M5108 3603 c7 -3 16 -2 19 1 4 3 -2 6 -13 5 -11 0 -14 -3 -6 -6z"/>
<path d="M6058 3533 c-20 -5 -23 -29 -8 -67 8 -21 16 -26 44 -26 29 0 38 5 51
29 11 23 28 34 70 47 71 23 62 30 -15 14 -46 -10 -64 -10 -73 -1 -11 11 -37
13 -69 4z"/>
<path d="M5539 3473 c-23 -4 -27 -9 -25 -35 1 -27 -5 -35 -39 -55 -41 -23 -26
-32 19 -11 21 9 29 8 45 -6 12 -11 32 -16 60 -15 38 3 46 -2 103 -57 l62 -59
-42 51 c-23 28 -48 57 -57 64 -8 7 -15 28 -15 49 0 69 -26 87 -111 74z"/>
<path d="M8305 6378 c-3 -7 -4 -204 -3 -438 l3 -425 175 0 c107 0 191 5 215
12 67 21 147 75 187 128 128 169 112 481 -32 625 -82 82 -181 110 -398 110
-105 0 -144 -3 -147 -12z"/>
<path d="M11208 6080 c-42 -13 -93 -47 -127 -86 l-31 -35 0 -184 0 -183 26
-32 c41 -48 98 -73 169 -72 33 0 72 5 86 10 46 18 96 70 120 124 21 46 24 68
24 173 0 105 -3 127 -24 173 -13 29 -37 63 -53 77 -47 40 -126 54 -190 35z"/>
<path d="M14050 5754 c-182 -28 -250 -72 -250 -160 0 -138 197 -164 333 -44
l38 33 -3 86 -3 86 -45 1 c-25 1 -56 0 -70 -2z"/>
<path d="M9555 6091 c-80 -21 -141 -84 -165 -171 -18 -63 -30 -60 211 -60
l221 0 -4 54 c-8 102 -81 172 -186 181 -26 2 -60 1 -77 -4z"/>
<path d="M10365 6089 c-79 -18 -146 -97 -161 -188 l-7 -41 222 0 221 0 0 29
c0 70 -50 155 -111 186 -36 19 -116 26 -164 14z"/>
<path d="M13165 6086 c-81 -23 -155 -121 -155 -205 0 -21 2 -21 220 -21 215 0
220 0 220 21 0 73 -51 163 -109 194 -42 21 -120 26 -176 11z"/>
<path d="M17343 6081 c-78 -37 -110 -158 -60 -231 36 -54 68 -72 138 -77 118
-8 192 54 192 161 0 102 -53 156 -162 163 -51 3 -76 -1 -108 -16z"/>
<path d="M17262 5433 c-37 -36 -42 -45 -42 -86 0 -90 77 -137 225 -137 147 0
245 56 245 139 0 82 -52 104 -271 117 l-116 6 -41 -39z"/>
<path d="M4300 4265 l0 -215 185 0 185 0 0 215 0 215 -185 0 -185 0 0 -215z
m340 0 l0 -185 -155 0 -155 0 0 185 0 185 155 0 155 0 0 -185z"/>
</g>
</svg>
