<?xml version="1.0" encoding="UTF-8"?>
<!DOCTYPE svg PUBLIC "-//W3C//DTD SVG 1.1//EN" "http://www.w3.org/Graphics/SVG/1.1/DTD/svg11.dtd">
<svg xmlns="http://www.w3.org/2000/svg" version="1.1" width="539px" height="200px" style="shape-rendering:geometricPrecision; text-rendering:geometricPrecision; image-rendering:optimizeQuality; fill-rule:evenodd; clip-rule:evenodd" xmlns:xlink="http://www.w3.org/1999/xlink">
<g><path style="opacity:0.789" fill="#25264a" d="M 538.5,163.5 C 538.5,176.167 538.5,188.833 538.5,201.5C 536.356,208.082 533.523,214.415 530,220.5C 529.833,222 529.667,223.5 529.5,225C 530.641,233.391 532.474,241.557 535,249.5C 536.861,262.675 534.527,275.008 528,286.5C 524.745,290.868 520.578,293.868 515.5,295.5C 525.901,288.716 531.734,279.049 533,266.5C 533.667,261.5 533.667,256.5 533,251.5C 530.658,242.336 528.492,233.169 526.5,224C 526.565,221.409 527.065,218.909 528,216.5C 533.595,208.015 536.095,198.681 535.5,188.5C 536.971,163.351 529.971,141.017 514.5,121.5C 509.44,116.27 503.94,111.604 498,107.5C 494.349,102.379 492.183,96.7119 491.5,90.5C 491.59,87.8478 490.924,85.5145 489.5,83.5C 485.494,69.5061 476.828,59.5061 463.5,53.5C 457.071,51.8769 450.738,50.0436 444.5,48C 441.924,45.349 440.591,42.1823 440.5,38.5C 440.59,35.8478 439.924,33.5145 438.5,31.5C 436.879,28.4328 434.879,25.5995 432.5,23C 417.145,11.4546 399.812,7.12127 380.5,10C 377.425,11.6203 374.258,13.1203 371,14.5C 366.848,10.8502 362.348,7.85022 357.5,5.5C 354.305,3.97041 350.805,3.30375 347,3.5C 344.31,3.50291 341.81,3.83625 339.5,4.5C 336.522,5.7454 333.689,7.41207 331,9.5C 327.495,6.83129 323.662,4.83129 319.5,3.5C 315.689,2.35472 311.689,2.18806 307.5,3C 303.088,4.70428 298.754,6.70428 294.5,9C 288.779,13.3876 283.779,18.3876 279.5,24C 280.381,24.7083 281.047,25.5416 281.5,26.5C 277.716,25.582 274.383,23.9154 271.5,21.5C 273.262,21.3573 274.929,21.6906 276.5,22.5C 276.833,22.3333 277.167,22.1667 277.5,22C 276.619,21.2917 275.953,20.4584 275.5,19.5C 277.258,19.8769 278.925,20.5435 280.5,21.5C 292.675,2.16382 309.508,-3.50285 331,4.5C 343.284,-1.01486 355.451,-0.681531 367.5,5.5C 368.5,7.16667 369.833,8.5 371.5,9.5C 397.012,-0.552594 419.845,3.78074 440,22.5C 440.789,24.5802 441.956,26.4135 443.5,28C 444.711,33.065 446.044,38.065 447.5,43C 478.55,48.7044 495.55,67.0377 498.5,98C 500.518,99.8573 502.185,102.024 503.5,104.5C 513.146,111.65 521.313,120.316 528,130.5C 530.097,136.292 532.263,141.625 534.5,146.5C 535.855,152.298 537.188,157.964 538.5,163.5 Z"/></g>
<g><path style="opacity:1" fill="#446382" d="M 339.5,4.5 C 341.81,3.83625 344.31,3.50291 347,3.5C 350.805,3.30375 354.305,3.97041 357.5,5.5C 351.536,4.69322 345.536,4.35988 339.5,4.5 Z"/></g>
<g><path style="opacity:0.782" fill="#25264a" d="M 317.5,5.5 C 322.595,6.63116 327.095,8.96449 331,12.5C 342.114,4.49997 353.281,4.66663 364.5,13C 366.46,15.1061 368.294,17.2728 370,19.5C 373.192,17.7262 376.358,16.0595 379.5,14.5C 386.822,13.9625 394.155,13.6291 401.5,13.5C 404.219,14.913 407.219,15.5797 410.5,15.5C 418.401,17.545 425.234,21.545 431,27.5C 435.16,33.4474 437.494,40.1141 438,47.5C 439.5,49 441,50.5 442.5,52C 452.181,54.7549 461.514,58.4215 470.5,63C 481.061,73.2881 486.894,85.7881 488,100.5C 489.667,103.5 491.333,106.5 493,109.5C 513.13,123.754 525.13,143.087 529,167.5C 529.667,177.833 529.667,188.167 529,198.5C 527.842,205.311 525.509,211.645 522,217.5C 521.333,222.167 521.333,226.833 522,231.5C 524.401,238.036 526.401,244.703 528,251.5C 528.732,259.253 528.232,266.919 526.5,274.5C 525.833,274.833 525.167,275.167 524.5,275.5C 526.964,261.674 525.464,248.341 520,235.5C 517.889,227.449 518.055,219.449 520.5,211.5C 522.671,208.495 524.171,205.161 525,201.5C 528.124,177.45 523.457,155.117 511,134.5C 507.848,130.348 504.348,126.515 500.5,123C 495.2,119.425 490.367,115.258 486,110.5C 484.52,106.385 482.853,102.385 481,98.5C 478.856,74.5926 465.856,61.2592 442,58.5C 439.913,56.8742 437.747,55.3742 435.5,54C 433.962,52.0679 432.795,49.9012 432,47.5C 430.352,42.6459 429.019,37.6459 428,32.5C 415.222,20.5074 400.056,16.0074 382.5,19C 380.5,19.6667 378.5,20.3333 376.5,21C 374.223,24.1024 371.223,26.2691 367.5,27.5C 365.201,19.0752 359.867,13.5752 351.5,11C 342.989,9.36094 335.989,11.8609 330.5,18.5C 322.99,8.24991 313.324,5.41657 301.5,10C 299.448,11.8119 297.115,13.1452 294.5,14C 289.998,17.3358 285.998,21.1691 282.5,25.5C 287.635,15.5366 295.635,9.03655 306.5,6C 310.152,5.50137 313.818,5.3347 317.5,5.5 Z"/></g>
<g><path style="opacity:1" fill="#619ab5" d="M 319.5,3.5 C 315.818,3.3347 312.152,3.50137 308.5,4C 311.695,4.18052 314.695,4.68052 317.5,5.5C 313.818,5.3347 310.152,5.50137 306.5,6C 295.635,9.03655 287.635,15.5366 282.5,25.5C 282.5,26.1667 282.167,26.5 281.5,26.5C 281.047,25.5416 280.381,24.7083 279.5,24C 283.779,18.3876 288.779,13.3876 294.5,9C 298.754,6.70428 303.088,4.70428 307.5,3C 311.689,2.18806 315.689,2.35472 319.5,3.5 Z"/></g>
<g><path style="opacity:0.767" fill="#252549" d="M 273.5,18.5 C 265.781,17.037 258.115,17.2037 250.5,19C 243.754,22.5804 238.087,27.4137 233.5,33.5C 229.834,31.0552 225.834,29.3885 221.5,28.5C 208.042,25.705 197.209,29.705 189,40.5C 187.272,45.8361 185.105,50.8361 182.5,55.5C 177.821,55.3342 173.155,55.5008 168.5,56C 167.944,56.3826 167.611,56.8826 167.5,57.5C 156.062,61.1009 147.895,68.4342 143,79.5C 142.088,86.5457 141.088,93.5457 140,100.5C 137.314,105.704 133.147,108.704 127.5,109.5C 125.368,109.446 124.035,108.446 123.5,106.5C 127.092,104.581 130.425,102.248 133.5,99.5C 134.923,94.2751 135.757,88.9417 136,83.5C 143.08,62.8592 157.58,51.6925 179.5,50C 182.248,43.3983 185.915,37.3983 190.5,32C 201.072,24.5033 212.739,22.5033 225.5,26C 228.275,26.591 230.775,27.7577 233,29.5C 237.941,23.434 244.108,18.934 251.5,16C 258.211,13.9703 264.878,14.137 271.5,16.5C 272.713,16.7472 273.38,17.4138 273.5,18.5 Z"/></g>
<g><path style="opacity:1" fill="#70b8d0" d="M 273.5,18.5 C 274.492,18.3284 275.158,18.6618 275.5,19.5C 275.953,20.4584 276.619,21.2917 277.5,22C 277.167,22.1667 276.833,22.3333 276.5,22.5C 274.929,21.6906 273.262,21.3573 271.5,21.5C 265.866,18.1716 259.866,17.6716 253.5,20C 245.761,23.9077 239.427,29.4077 234.5,36.5C 229.962,34.432 225.295,32.7653 220.5,31.5C 220.5,31.1667 220.5,30.8333 220.5,30.5C 222.698,30.5912 223.031,29.9245 221.5,28.5C 225.834,29.3885 229.834,31.0552 233.5,33.5C 238.087,27.4137 243.754,22.5804 250.5,19C 258.115,17.2037 265.781,17.037 273.5,18.5 Z"/></g>
<g><path style="opacity:0.588" fill="#0493af" d="M 344.5,84.5 C 335.167,84.5 325.833,84.5 316.5,84.5C 316.5,91.5 316.5,98.5 316.5,105.5C 315.167,106.833 313.833,106.833 312.5,105.5C 312.5,97.5 312.5,89.5 312.5,81.5C 322.167,81.5 331.833,81.5 341.5,81.5C 341.5,64.1667 341.5,46.8333 341.5,29.5C 356.833,29.5 372.167,29.5 387.5,29.5C 386.988,34.5853 387.655,39.4186 389.5,44C 388.852,45.4397 388.519,46.9397 388.5,48.5C 385.881,48.7683 383.381,48.435 381,47.5C 381.703,42.744 382.537,37.9107 383.5,33C 370.833,32.3333 358.167,32.3333 345.5,33C 346.658,49.4259 346.824,65.9259 346,82.5C 345.283,83.0442 344.783,83.7109 344.5,84.5 Z"/></g>
<g><path style="opacity:1" fill="#446281" d="M 220.5,30.5 C 220.5,30.8333 220.5,31.1667 220.5,31.5C 214.797,31.3748 209.13,31.7081 203.5,32.5C 204.263,31.7321 205.263,31.2321 206.5,31C 211.155,30.5008 215.821,30.3342 220.5,30.5 Z"/></g>
<g><path style="opacity:0.797" fill="#25274a" d="M 271.5,21.5 C 261.887,19.029 253.387,21.029 246,27.5C 242.254,31.9977 238.754,36.6644 235.5,41.5C 234.183,39.8409 232.517,38.6743 230.5,38C 225.263,36.4995 220.096,34.9995 215,33.5C 210.516,35.0004 206.016,36.5004 201.5,38C 194.612,45.4292 190.612,54.2626 189.5,64.5C 181.646,63.9114 173.979,64.7447 166.5,67C 163.937,69.5303 161.103,71.697 158,73.5C 155.813,77.0605 153.813,80.7272 152,84.5C 151.965,93.0167 150.798,101.35 148.5,109.5C 147.508,109.328 146.842,109.662 146.5,110.5C 145.833,110.5 145.5,110.833 145.5,111.5C 144.5,112.167 143.5,112.833 142.5,113.5C 141.833,113.5 141.5,113.833 141.5,114.5C 140.833,114.5 140.5,114.833 140.5,115.5C 139.833,115.5 139.5,115.833 139.5,116.5C 139.167,116.5 138.833,116.5 138.5,116.5C 136.566,115.89 134.899,114.89 133.5,113.5C 136.1,111.084 138.933,108.751 142,106.5C 144.675,98.7331 146.175,90.7331 146.5,82.5C 150.847,72.1528 158.181,64.8195 168.5,60.5C 174.43,60.8718 180.097,60.2051 185.5,58.5C 186.784,55.5982 187.784,52.5982 188.5,49.5C 190.245,47.9674 191.245,45.9674 191.5,43.5C 194.243,38.4216 198.243,34.7549 203.5,32.5C 209.13,31.7081 214.797,31.3748 220.5,31.5C 225.295,32.7653 229.962,34.432 234.5,36.5C 239.427,29.4077 245.761,23.9077 253.5,20C 259.866,17.6716 265.866,18.1716 271.5,21.5 Z"/></g>
<g><path style="opacity:0.722" fill="#058ca9" d="M 271.5,88.5 C 270.5,89.8333 269.5,89.8333 268.5,88.5C 268.5,78.5 268.5,68.5 268.5,58.5C 276.5,58.5 284.5,58.5 292.5,58.5C 292.653,51.3108 292.153,44.3108 291,37.5C 298.343,35.1784 300.343,37.5118 297,44.5C 296.501,50.1569 296.334,55.8236 296.5,61.5C 288.167,61.5 279.833,61.5 271.5,61.5C 271.5,70.5 271.5,79.5 271.5,88.5 Z"/></g>
<g><path style="opacity:1" fill="#517b98" d="M 438.5,31.5 C 439.924,33.5145 440.59,35.8478 440.5,38.5C 439.076,36.4855 438.41,34.1522 438.5,31.5 Z"/></g>
<g><path style="opacity:0.689" fill="#028fab" d="M 322.5,107.5 C 320.872,108.853 319.538,108.519 318.5,106.5C 318.188,99.5778 318.521,92.7445 319.5,86C 328.01,85.8294 336.343,85.3294 344.5,84.5C 346.5,84.5 348.5,84.5 350.5,84.5C 350.168,71.8158 350.501,59.1492 351.5,46.5C 357.115,45.7109 362.782,45.2109 368.5,45C 372.611,42.5509 375.277,43.7176 376.5,48.5C 374.876,52.9975 372.209,53.9975 368.5,51.5C 363.88,50.5067 359.214,50.1734 354.5,50.5C 354.5,63.5 354.5,76.5 354.5,89.5C 343.833,89.5 333.167,89.5 322.5,89.5C 322.5,95.5 322.5,101.5 322.5,107.5 Z"/></g>
<g><path style="opacity:0.592" fill="#048ca9" d="M 262.5,87.5 C 261.528,89.4931 260.195,89.8264 258.5,88.5C 258.5,76.8333 258.5,65.1667 258.5,53.5C 252.301,53.3498 246.301,53.8498 240.5,55C 236.46,51.207 237.293,48.707 243,47.5C 249.281,49.3444 255.781,50.011 262.5,49.5C 262.5,62.1667 262.5,74.8333 262.5,87.5 Z"/></g>
<g><path style="opacity:0.696" fill="#098daa" d="M 374.5,107.5 C 364.164,106.203 353.831,106.203 343.5,107.5C 342.167,107.5 340.833,107.5 339.5,107.5C 339.5,108.5 339.5,109.5 339.5,110.5C 339.027,111.906 338.027,112.573 336.5,112.5C 336.5,109.833 336.5,107.167 336.5,104.5C 348.5,104.5 360.5,104.5 372.5,104.5C 372.5,93.8333 372.5,83.1667 372.5,72.5C 378.29,72.9038 383.956,72.4038 389.5,71C 381.841,70.5003 374.174,70.3336 366.5,70.5C 366.5,81.1667 366.5,91.8333 366.5,102.5C 355.5,102.5 344.5,102.5 333.5,102.5C 333.5,106.167 333.5,109.833 333.5,113.5C 333.5,114.833 333.5,116.167 333.5,117.5C 332.5,117.5 331.5,117.5 330.5,117.5C 330.5,116.167 330.5,114.833 330.5,113.5C 330.5,108.833 330.5,104.167 330.5,99.5C 341.5,99.5 352.5,99.5 363.5,99.5C 363.5,88.1667 363.5,76.8333 363.5,65.5C 379.833,65.5 396.167,65.5 412.5,65.5C 412.88,60.604 412.214,55.9373 410.5,51.5C 410.57,50.2284 410.903,49.0617 411.5,48C 413.769,47.2419 415.936,47.4086 418,48.5C 417.373,55.4621 416.539,62.4621 415.5,69.5C 408.216,70.2998 400.883,70.7998 393.5,71C 395.648,73.0749 395.982,75.4082 394.5,78C 388.687,76.9422 382.687,76.4422 376.5,76.5C 377.142,87.2208 376.475,97.5541 374.5,107.5 Z"/></g>
<g><path style="opacity:1" fill="#4e7593" d="M 191.5,43.5 C 191.245,45.9674 190.245,47.9674 188.5,49.5C 188.755,47.0326 189.755,45.0326 191.5,43.5 Z"/></g>
<g><path style="opacity:1" fill="#4c728f" d="M 182.5,55.5 C 177.637,56.2656 172.637,56.9322 167.5,57.5C 167.611,56.8826 167.944,56.3826 168.5,56C 173.155,55.5008 177.821,55.3342 182.5,55.5 Z"/></g>
<g><path style="opacity:0.791" fill="#028baa" d="M 327.5,111.5 C 325.973,111.573 324.973,110.906 324.5,109.5C 324.19,103.242 324.524,97.0758 325.5,91C 335.494,90.5002 345.494,90.3335 355.5,90.5C 355.18,79.9179 355.513,69.4179 356.5,59C 369.513,58.8327 382.513,58.3327 395.5,57.5C 399.888,54.3469 402.888,55.3469 404.5,60.5C 404.029,63.3024 402.362,64.6358 399.5,64.5C 397.681,64.6578 396.348,63.9911 395.5,62.5C 383.852,61.5011 372.186,61.1678 360.5,61.5C 360.667,72.505 360.5,83.505 360,94.5C 349.248,95.487 338.415,95.8203 327.5,95.5C 327.5,100.833 327.5,106.167 327.5,111.5 Z"/></g>
<g><path style="opacity:1" fill="#456382" d="M 185.5,58.5 C 180.097,60.2051 174.43,60.8718 168.5,60.5C 173.916,58.8827 179.583,58.216 185.5,58.5 Z"/></g>
<g><path style="opacity:1" fill="#7acae1" d="M 221.5,28.5 C 223.031,29.9245 222.698,30.5912 220.5,30.5C 215.821,30.3342 211.155,30.5008 206.5,31C 205.263,31.2321 204.263,31.7321 203.5,32.5C 198.243,34.7549 194.243,38.4216 191.5,43.5C 189.755,45.0326 188.755,47.0326 188.5,49.5C 187.784,52.5982 186.784,55.5982 185.5,58.5C 179.583,58.216 173.916,58.8827 168.5,60.5C 158.181,64.8195 150.847,72.1528 146.5,82.5C 146.175,90.7331 144.675,98.7331 142,106.5C 138.933,108.751 136.1,111.084 133.5,113.5C 131.118,112.649 129.118,111.316 127.5,109.5C 133.147,108.704 137.314,105.704 140,100.5C 141.088,93.5457 142.088,86.5457 143,79.5C 147.895,68.4342 156.062,61.1009 167.5,57.5C 172.637,56.9322 177.637,56.2656 182.5,55.5C 185.105,50.8361 187.272,45.8361 189,40.5C 197.209,29.705 208.042,25.705 221.5,28.5 Z"/></g>
<g><path style="opacity:0.737" fill="#078da9" d="M 222.5,89.5 C 221.041,89.5674 219.708,89.2341 218.5,88.5C 218.5,84.5 218.5,80.5 218.5,76.5C 213.981,76.6015 209.648,77.1015 205.5,78C 203.396,76.1644 203.062,73.9977 204.5,71.5C 205.446,71.0133 206.446,70.6799 207.5,70.5C 212.327,72.243 217.327,72.9097 222.5,72.5C 222.5,78.1667 222.5,83.8333 222.5,89.5 Z"/></g>
<g><path style="opacity:0.649" fill="#018ca9" d="M 390.5,164.5 C 391.08,162.251 392.413,160.585 394.5,159.5C 409.324,160.496 424.324,160.829 439.5,160.5C 439.5,136.833 439.5,113.167 439.5,89.5C 443.5,89.5 447.5,89.5 451.5,89.5C 451.618,83.6354 451.118,77.9687 450,72.5C 451.808,70.6041 453.975,70.1041 456.5,71C 457.923,73.62 457.757,76.12 456,78.5C 455.501,83.4889 455.334,88.4889 455.5,93.5C 451.5,93.5 447.5,93.5 443.5,93.5C 443.667,116.836 443.5,140.169 443,163.5C 425.577,164.492 408.077,164.825 390.5,164.5 Z"/></g>
<g><path style="opacity:0.797" fill="#008da9" d="M 395.5,158.5 C 395.443,157.391 395.11,156.391 394.5,155.5C 406.833,155.5 419.167,155.5 431.5,155.5C 431.5,132.5 431.5,109.5 431.5,86.5C 428.737,86.7964 426.237,87.7964 424,89.5C 420.418,87.4062 419.585,84.4062 421.5,80.5C 423.966,79.1193 425.966,79.6193 427.5,82C 429.81,82.4966 432.143,82.6633 434.5,82.5C 434.5,107.833 434.5,133.167 434.5,158.5C 421.5,158.5 408.5,158.5 395.5,158.5 Z"/></g>
<g><path style="opacity:0.715" fill="#048ca9" d="M 383.5,113.5 C 380.966,113.741 379.3,112.741 378.5,110.5C 380.471,101.895 381.138,92.8955 380.5,83.5C 386.833,83.5 393.167,83.5 399.5,83.5C 399.382,89.3646 399.882,95.0313 401,100.5C 398.756,102.994 396.423,102.994 394,100.5C 394.898,96.3519 395.398,92.0185 395.5,87.5C 391.5,87.5 387.5,87.5 383.5,87.5C 383.5,96.1667 383.5,104.833 383.5,113.5 Z"/></g>
<g><path style="opacity:0.48" fill="#2b93af" d="M 189.5,88.5 C 188.432,89.4345 187.099,89.7678 185.5,89.5C 185.88,91.698 185.213,93.3646 183.5,94.5C 182.463,92.2625 182.297,89.9291 183,87.5C 185.552,85.9797 187.718,86.3131 189.5,88.5 Z"/></g>
<g><path style="opacity:1" fill="#517b98" d="M 489.5,83.5 C 490.924,85.5145 491.59,87.8478 491.5,90.5C 490.076,88.4855 489.41,86.1522 489.5,83.5 Z"/></g>
<g><path style="opacity:0.976" fill="#fafbfc" d="M 262.5,87.5 C 264.265,88.4614 266.265,88.7947 268.5,88.5C 269.5,89.8333 270.5,89.8333 271.5,88.5C 274.698,87.9644 277.365,88.631 279.5,90.5C 278.167,94.1667 278.167,97.8333 279.5,101.5C 279.5,102.167 279.5,102.833 279.5,103.5C 278.596,104.209 278.263,105.209 278.5,106.5C 281.649,107.165 284.982,107.498 288.5,107.5C 292.239,107.486 295.572,106.82 298.5,105.5C 299.5,105.5 300.5,105.5 301.5,105.5C 302.5,106.833 303.5,106.833 304.5,105.5C 305.609,105.443 306.609,105.11 307.5,104.5C 307.56,105.043 307.893,105.376 308.5,105.5C 309.182,104.757 309.849,104.091 310.5,103.5C 310.5,104.833 311.167,105.5 312.5,105.5C 313.833,106.833 315.167,106.833 316.5,105.5C 317.167,105.833 317.833,106.167 318.5,106.5C 319.538,108.519 320.872,108.853 322.5,107.5C 323.167,108.167 323.833,108.833 324.5,109.5C 324.973,110.906 325.973,111.573 327.5,111.5C 328.29,112.401 329.29,113.068 330.5,113.5C 330.5,114.833 330.5,116.167 330.5,117.5C 331.5,117.5 332.5,117.5 333.5,117.5C 333.5,116.167 333.5,114.833 333.5,113.5C 334.609,113.443 335.609,113.11 336.5,112.5C 338.027,112.573 339.027,111.906 339.5,110.5C 341.23,109.974 342.564,108.974 343.5,107.5C 353.831,106.203 364.164,106.203 374.5,107.5C 375.436,108.974 376.77,109.974 378.5,110.5C 379.3,112.741 380.966,113.741 383.5,113.5C 383.427,115.027 384.094,116.027 385.5,116.5C 386.151,119.803 387.818,122.47 390.5,124.5C 392.541,127.454 393.708,130.787 394,134.5C 394.499,139.155 394.666,143.821 394.5,148.5C 393.566,149.568 393.232,150.901 393.5,152.5C 393.263,153.791 393.596,154.791 394.5,155.5C 395.11,156.391 395.443,157.391 395.5,158.5C 395.5,159.167 395.167,159.5 394.5,159.5C 392.413,160.585 391.08,162.251 390.5,164.5C 390.167,165.167 389.833,165.833 389.5,166.5C 387.167,166.833 385.833,168.167 385.5,170.5C 384.5,170.833 383.833,171.5 383.5,172.5C 380.911,172.461 378.911,173.461 377.5,175.5C 376.711,175.783 376.044,176.283 375.5,177C 389.129,178.337 402.796,178.837 416.5,178.5C 416.232,180.099 416.566,181.432 417.5,182.5C 417.5,183.167 417.5,183.833 417.5,184.5C 416.714,204.007 416.048,223.673 415.5,243.5C 414.508,245.456 413.508,247.456 412.5,249.5C 410.003,250.129 408.67,251.796 408.5,254.5C 401.5,261.769 392.834,265.436 382.5,265.5C 381.348,264.375 380.348,264.375 379.5,265.5C 378.167,265.5 376.833,265.5 375.5,265.5C 374.295,264.314 372.961,264.314 371.5,265.5C 368.904,264.735 366.237,264.401 363.5,264.5C 360.447,262.032 356.78,260.699 352.5,260.5C 352.5,260.167 352.5,259.833 352.5,259.5C 349.073,257.129 345.406,255.129 341.5,253.5C 341.715,251.821 341.048,250.821 339.5,250.5C 338.5,249.167 337.5,249.167 336.5,250.5C 335.5,250.5 334.5,250.5 333.5,250.5C 332.5,249.167 331.5,249.167 330.5,250.5C 329.5,250.5 328.5,250.5 327.5,250.5C 326.5,249.167 325.5,249.167 324.5,250.5C 323.833,250.5 323.167,250.5 322.5,250.5C 321.039,249.314 319.705,249.314 318.5,250.5C 317.833,250.5 317.167,250.5 316.5,250.5C 315.295,249.314 313.961,249.314 312.5,250.5C 306.167,250.5 299.833,250.5 293.5,250.5C 291.901,250.232 290.568,250.566 289.5,251.5C 286.396,250.225 283.396,250.225 280.5,251.5C 278.833,248.833 277.167,248.833 275.5,251.5C 272.038,250.518 268.371,250.185 264.5,250.5C 261.833,249.167 259.167,249.167 256.5,250.5C 250.974,250.179 245.64,250.512 240.5,251.5C 239.849,250.909 239.182,250.243 238.5,249.5C 237.818,250.243 237.151,250.909 236.5,251.5C 225.679,250.505 214.679,250.172 203.5,250.5C 203.5,242.5 203.5,234.5 203.5,226.5C 204.833,225.5 204.833,224.5 203.5,223.5C 203.378,219.162 203.045,218.828 202.5,222.5C 201.167,224.167 201.167,225.833 202.5,227.5C 202.5,235.167 202.5,242.833 202.5,250.5C 198.833,250.5 195.167,250.5 191.5,250.5C 172.506,249.231 153.506,249.231 134.5,250.5C 131.781,250.603 129.115,250.269 126.5,249.5C 122.567,247.286 118.734,244.952 115,242.5C 113.699,242.639 112.866,243.305 112.5,244.5C 109.561,245.456 107.228,247.123 105.5,249.5C 100.397,250.387 95.3974,251.387 90.5,252.5C 83.8123,251.161 77.1457,249.495 70.5,247.5C 70.5,248.5 70.5,249.5 70.5,250.5C 47.1667,250.5 23.8333,250.5 0.5,250.5C 0.5,197.167 0.5,143.833 0.5,90.5C 11.8382,90.3335 23.1716,90.5001 34.5,91C 37.5449,96.2595 40.7116,101.426 44,106.5C 47.8283,101.456 50.9949,96.1225 53.5,90.5C 65.1667,90.5 76.8333,90.5 88.5,90.5C 88.3338,96.8421 88.5005,103.175 89,109.5C 92.1527,107.498 95.6527,106.332 99.5,106C 107.528,105.302 115.528,105.468 123.5,106.5C 124.035,108.446 125.368,109.446 127.5,109.5C 129.118,111.316 131.118,112.649 133.5,113.5C 134.899,114.89 136.566,115.89 138.5,116.5C 138.833,117.833 139.167,117.833 139.5,116.5C 140.167,116.5 140.5,116.167 140.5,115.5C 140.5,114.833 140.833,114.5 141.5,114.5C 142.167,114.5 142.5,114.167 142.5,113.5C 143.5,112.833 144.5,112.167 145.5,111.5C 146.167,111.5 146.5,111.167 146.5,110.5C 147.492,110.672 148.158,110.338 148.5,109.5C 159.482,103.979 170.815,103.312 182.5,107.5C 183.492,103.217 183.826,98.8839 183.5,94.5C 185.213,93.3646 185.88,91.698 185.5,89.5C 187.099,89.7678 188.432,89.4345 189.5,88.5C 199.167,88.5 208.833,88.5 218.5,88.5C 219.708,89.2341 221.041,89.5674 222.5,89.5C 222.5,94.5 222.5,99.5 222.5,104.5C 226.163,104.952 229.83,105.452 233.5,106C 236.133,106.423 238.299,107.59 240,109.5C 240.499,105.848 240.665,102.182 240.5,98.5C 242.673,95.7778 243.006,92.7778 241.5,89.5C 246.975,88.5111 252.642,88.1778 258.5,88.5C 260.195,89.8264 261.528,89.4931 262.5,87.5 Z M 343.5,107.5 C 342.564,108.974 341.23,109.974 339.5,110.5C 339.5,109.5 339.5,108.5 339.5,107.5C 340.833,107.5 342.167,107.5 343.5,107.5 Z"/></g>
<g><path style="opacity:0.768" fill="#2192ac" d="M 241.5,89.5 C 243.006,92.7778 242.673,95.7778 240.5,98.5C 235.228,97.7365 233.561,94.9032 235.5,90C 237.402,88.2041 239.402,88.0374 241.5,89.5 Z"/></g>
<g><path style="opacity:0.616" fill="#0e92b1" d="M 279.5,90.5 C 289.506,90.3335 299.506,90.5002 309.5,91C 310.464,95.0659 310.797,99.2325 310.5,103.5C 309.849,104.091 309.182,104.757 308.5,105.5C 307.893,105.376 307.56,105.043 307.5,104.5C 307.5,101.5 307.5,98.5 307.5,95.5C 305.801,95.3398 304.134,95.5065 302.5,96C 304.344,98.8037 305.011,101.97 304.5,105.5C 303.5,106.833 302.5,106.833 301.5,105.5C 301.5,103.833 301.5,102.167 301.5,100.5C 293.981,100.175 286.648,100.508 279.5,101.5C 278.167,97.8333 278.167,94.1667 279.5,90.5 Z M 307.5,104.5 C 306.609,105.11 305.609,105.443 304.5,105.5C 305.011,101.97 304.344,98.8037 302.5,96C 304.134,95.5065 305.801,95.3398 307.5,95.5C 307.5,98.5 307.5,101.5 307.5,104.5 Z"/></g>
<g><path style="opacity:0.632" fill="#018baa" d="M 393.5,152.5 C 393.232,150.901 393.566,149.568 394.5,148.5C 403.652,149.494 412.985,149.827 422.5,149.5C 422.5,133.167 422.5,116.833 422.5,100.5C 420.5,100.5 418.5,100.5 416.5,100.5C 416.5,111.167 416.5,121.833 416.5,132.5C 410.301,132.35 404.301,132.85 398.5,134C 397.167,131.667 397.167,129.333 398.5,127C 403.121,127.482 407.788,127.982 412.5,128.5C 412.5,117.5 412.5,106.5 412.5,95.5C 416.902,95.2281 421.235,95.5614 425.5,96.5C 426.5,115.155 426.833,133.821 426.5,152.5C 415.5,152.5 404.5,152.5 393.5,152.5 Z"/></g>
<g><path style="opacity:1" fill="#628fb1" d="M 209.5,100.5 C 205.167,100.5 200.833,100.5 196.5,100.5C 196.5,122.5 196.5,144.5 196.5,166.5C 195.503,144.34 195.169,122.006 195.5,99.5C 200.363,99.1805 205.03,99.5139 209.5,100.5 Z"/></g>
<g><path style="opacity:1" fill="#064b82" d="M 209.5,100.5 C 209.169,108.196 209.503,115.862 210.5,123.5C 211.107,123.376 211.44,123.043 211.5,122.5C 213.573,120.42 215.907,118.754 218.5,117.5C 222.898,117.294 227.232,117.627 231.5,118.5C 235.936,120.439 238.769,123.772 240,128.5C 240.5,141.162 240.667,153.829 240.5,166.5C 235.833,166.5 231.167,166.5 226.5,166.5C 226.667,155.828 226.5,145.161 226,134.5C 224.334,131.334 221.668,130 218,130.5C 214.066,130.096 211.399,131.762 210,135.5C 209.5,145.828 209.334,156.161 209.5,166.5C 205.167,166.5 200.833,166.5 196.5,166.5C 196.5,144.5 196.5,122.5 196.5,100.5C 200.833,100.5 205.167,100.5 209.5,100.5 Z"/></g>
<g><path style="opacity:1" fill="#7fa5c1" d="M 209.5,100.5 C 210.167,107.833 210.833,115.167 211.5,122.5C 211.44,123.043 211.107,123.376 210.5,123.5C 209.503,115.862 209.169,108.196 209.5,100.5 Z"/></g>
<g><path style="opacity:1" fill="#154d84" d="M 267.5,112.5 C 262.833,112.5 258.167,112.5 253.5,112.5C 253.5,108.5 253.5,104.5 253.5,100.5C 257.97,99.5139 262.637,99.1805 267.5,99.5C 267.5,103.833 267.5,108.167 267.5,112.5 Z"/></g>
<g><path style="opacity:1" fill="#7acbe2" d="M 319.5,3.5 C 323.662,4.83129 327.495,6.83129 331,9.5C 333.689,7.41207 336.522,5.7454 339.5,4.5C 345.536,4.35988 351.536,4.69322 357.5,5.5C 362.348,7.85022 366.848,10.8502 371,14.5C 374.258,13.1203 377.425,11.6203 380.5,10C 399.812,7.12127 417.145,11.4546 432.5,23C 434.879,25.5995 436.879,28.4328 438.5,31.5C 438.41,34.1522 439.076,36.4855 440.5,38.5C 440.591,42.1823 441.924,45.349 444.5,48C 450.738,50.0436 457.071,51.8769 463.5,53.5C 476.828,59.5061 485.494,69.5061 489.5,83.5C 489.41,86.1522 490.076,88.4855 491.5,90.5C 492.183,96.7119 494.349,102.379 498,107.5C 503.94,111.604 509.44,116.27 514.5,121.5C 529.971,141.017 536.971,163.351 535.5,188.5C 536.095,198.681 533.595,208.015 528,216.5C 527.065,218.909 526.565,221.409 526.5,224C 528.492,233.169 530.658,242.336 533,251.5C 533.667,256.5 533.667,261.5 533,266.5C 531.734,279.049 525.901,288.716 515.5,295.5C 515.167,295.5 514.833,295.5 514.5,295.5C 510.353,295.126 506.686,296.126 503.5,298.5C 502.883,298.611 502.383,298.944 502,299.5C 501.667,305.5 501.333,311.5 501,317.5C 500.105,320.951 498.938,324.284 497.5,327.5C 492.152,334.164 485.485,338.83 477.5,341.5C 468.827,341.334 460.16,341.5 451.5,342C 445.209,345.644 438.542,348.477 431.5,350.5C 425.346,350.9 419.346,350.233 413.5,348.5C 411.181,348.008 409.181,347.008 407.5,345.5C 406.15,344.35 406.316,343.683 408,343.5C 409.44,344.148 410.94,344.481 412.5,344.5C 418.767,347.36 425.433,348.193 432.5,347C 437.378,344.707 442.044,342.04 446.5,339C 448.813,338.338 451.146,337.838 453.5,337.5C 461.174,337.666 468.841,337.5 476.5,337C 484.832,334.499 490.832,329.332 494.5,321.5C 494.5,321.167 494.5,320.833 494.5,320.5C 496.41,319.025 497.576,317.025 498,314.5C 498.205,307.754 498.705,301.087 499.5,294.5C 505.13,292.605 510.797,290.772 516.5,289C 519.523,286.823 521.523,283.989 522.5,280.5C 522.833,280.5 523.167,280.5 523.5,280.5C 525.245,278.967 526.245,276.967 526.5,274.5C 528.232,266.919 528.732,259.253 528,251.5C 526.401,244.703 524.401,238.036 522,231.5C 521.333,226.833 521.333,222.167 522,217.5C 525.509,211.645 527.842,205.311 529,198.5C 529.667,188.167 529.667,177.833 529,167.5C 525.13,143.087 513.13,123.754 493,109.5C 491.333,106.5 489.667,103.5 488,100.5C 486.894,85.7881 481.061,73.2881 470.5,63C 461.514,58.4215 452.181,54.7549 442.5,52C 441,50.5 439.5,49 438,47.5C 437.494,40.1141 435.16,33.4474 431,27.5C 425.234,21.545 418.401,17.545 410.5,15.5C 407.781,14.087 404.781,13.4203 401.5,13.5C 398.686,12.8353 395.686,12.502 392.5,12.5C 387.893,12.3164 383.56,12.983 379.5,14.5C 376.358,16.0595 373.192,17.7262 370,19.5C 368.294,17.2728 366.46,15.1061 364.5,13C 353.281,4.66663 342.114,4.49997 331,12.5C 327.095,8.96449 322.595,6.63116 317.5,5.5C 314.695,4.68052 311.695,4.18052 308.5,4C 312.152,3.50137 315.818,3.3347 319.5,3.5 Z"/></g>
<g><path style="opacity:1" fill="#527e9b" d="M 401.5,13.5 C 404.781,13.4203 407.781,14.087 410.5,15.5C 407.219,15.5797 404.219,14.913 401.5,13.5 Z"/></g>
<g><path style="opacity:1" fill="#405979" d="M 401.5,13.5 C 394.155,13.6291 386.822,13.9625 379.5,14.5C 383.56,12.983 387.893,12.3164 392.5,12.5C 395.686,12.502 398.686,12.8353 401.5,13.5 Z"/></g>
<g><path style="opacity:1" fill="#044a82" d="M 27.5,103.5 C 32.9871,111.798 38.4871,120.131 44,128.5C 49.7289,120.28 55.2289,111.947 60.5,103.5C 65.5,103.5 70.5,103.5 75.5,103.5C 75.5,124.5 75.5,145.5 75.5,166.5C 71.1667,166.5 66.8333,166.5 62.5,166.5C 62.6666,153.163 62.4999,139.829 62,126.5C 61.2828,127.044 60.7828,127.711 60.5,128.5C 55.192,136.149 49.8586,143.815 44.5,151.5C 38.0635,144.061 32.3968,136.061 27.5,127.5C 27.44,126.957 27.1067,126.624 26.5,126.5C 25.5008,139.817 25.1675,153.15 25.5,166.5C 21.5,166.5 17.5,166.5 13.5,166.5C 13.5,145.5 13.5,124.5 13.5,103.5C 18.1667,103.5 22.8333,103.5 27.5,103.5 Z"/></g>
<g><path style="opacity:1" fill="#497ea6" d="M 60.5,103.5 C 65.6405,102.512 70.9738,102.179 76.5,102.5C 76.8306,124.007 76.4973,145.34 75.5,166.5C 75.5,145.5 75.5,124.5 75.5,103.5C 70.5,103.5 65.5,103.5 60.5,103.5 Z"/></g>
<g><path style="opacity:1" fill="#276595" d="M 27.5,103.5 C 22.8333,103.5 18.1667,103.5 13.5,103.5C 13.5,124.5 13.5,145.5 13.5,166.5C 12.5027,145.34 12.1694,124.007 12.5,102.5C 17.6946,102.179 22.6946,102.513 27.5,103.5 Z"/></g>
<g><path style="opacity:0.941" fill="#2597b1" d="M 279.5,103.5 C 285.31,104.49 291.31,104.823 297.5,104.5C 291.588,106.456 285.255,107.123 278.5,106.5C 278.263,105.209 278.596,104.209 279.5,103.5 Z"/></g>
<g><path style="opacity:1" fill="#aedae4" d="M 297.5,104.5 C 298.167,104.5 298.5,104.833 298.5,105.5C 295.572,106.82 292.239,107.486 288.5,107.5C 284.982,107.498 281.649,107.165 278.5,106.5C 285.255,107.123 291.588,106.456 297.5,104.5 Z"/></g>
<g><path style="opacity:1" fill="#96b4cb" d="M 253.5,100.5 C 253.5,104.5 253.5,108.5 253.5,112.5C 258.167,112.5 262.833,112.5 267.5,112.5C 262.695,113.487 257.695,113.821 252.5,113.5C 252.182,108.968 252.515,104.634 253.5,100.5 Z"/></g>
<g><path style="opacity:1" fill="#7fa4c0" d="M 160.5,117.5 C 162.641,116.837 164.975,116.503 167.5,116.5C 171.141,116.315 174.474,116.981 177.5,118.5C 171.87,117.708 166.203,117.375 160.5,117.5 Z"/></g>
<g><path style="opacity:1" fill="#85a8c2" d="M 218.5,117.5 C 222.311,116.355 226.311,116.188 230.5,117C 231.056,117.383 231.389,117.883 231.5,118.5C 227.232,117.627 222.898,117.294 218.5,117.5 Z"/></g>
<g><path style="opacity:1" fill="#81a5c1" d="M 302.5,117.5 C 306.311,116.355 310.311,116.188 314.5,117C 315.056,117.383 315.389,117.883 315.5,118.5C 311.232,117.627 306.898,117.294 302.5,117.5 Z"/></g>
<g><path style="opacity:1" fill="#81a5c1" d="M 368.5,118.5 C 362.479,117.274 356.479,117.274 350.5,118.5C 350.611,117.883 350.944,117.383 351.5,117C 353.833,116.833 356.167,116.667 358.5,116.5C 362.141,116.315 365.474,116.981 368.5,118.5 Z"/></g>
<g><path style="opacity:1" fill="#0d4d84" d="M 160.5,117.5 C 166.203,117.375 171.87,117.708 177.5,118.5C 181.922,119.761 184.755,122.427 186,126.5C 183.618,129.219 180.951,131.553 178,133.5C 172.662,129.353 166.829,128.52 160.5,131C 154.226,137.858 153.893,145.025 159.5,152.5C 163.05,155.28 167.05,156.114 171.5,155C 174.265,153.871 176.765,152.371 179,150.5C 181.862,153.028 184.362,155.861 186.5,159C 179.161,166.757 170.161,169.424 159.5,167C 145.177,161.318 139.343,150.818 142,135.5C 144.726,125.941 150.892,119.941 160.5,117.5 Z"/></g>
<g><path style="opacity:1" fill="#769dbc" d="M 280.5,118.5 C 284.97,117.514 289.637,117.181 294.5,117.5C 294.216,119.415 294.549,121.081 295.5,122.5C 295.44,123.043 295.107,123.376 294.5,123.5C 293.548,121.955 293.215,120.288 293.5,118.5C 289.167,118.5 284.833,118.5 280.5,118.5 Z"/></g>
<g><path style="opacity:1" fill="#0a4c83" d="M 302.5,117.5 C 306.898,117.294 311.232,117.627 315.5,118.5C 320.13,119.732 322.964,122.732 324,127.5C 324.5,140.496 324.667,153.496 324.5,166.5C 319.833,166.5 315.167,166.5 310.5,166.5C 310.667,155.495 310.5,144.495 310,133.5C 308.961,132.29 307.794,131.29 306.5,130.5C 304.034,129.366 301.367,129.199 298.5,130C 297.944,130.383 297.611,130.883 297.5,131.5C 296.21,132.058 295.377,133.058 295,134.5C 294.5,145.161 294.333,155.828 294.5,166.5C 289.833,166.5 285.167,166.5 280.5,166.5C 280.5,150.5 280.5,134.5 280.5,118.5C 284.833,118.5 289.167,118.5 293.5,118.5C 293.215,120.288 293.548,121.955 294.5,123.5C 295.107,123.376 295.44,123.043 295.5,122.5C 297.695,120.576 300.028,118.909 302.5,117.5 Z"/></g>
<g><path style="opacity:1" fill="#094b83" d="M 368.5,118.5 C 376.767,122.464 381.1,129.13 381.5,138.5C 381.5,141.167 381.5,143.833 381.5,146.5C 370.5,146.5 359.5,146.5 348.5,146.5C 348.263,147.791 348.596,148.791 349.5,149.5C 352.458,155.144 357.125,157.311 363.5,156C 366.39,154.971 369.224,153.805 372,152.5C 375.422,153.624 377.922,155.791 379.5,159C 374.468,165.342 367.801,168.175 359.5,167.5C 346.74,167.707 338.573,161.707 335,149.5C 331.741,134.683 336.908,124.349 350.5,118.5C 356.479,117.274 362.479,117.274 368.5,118.5 Z"/></g>
<g><path style="opacity:0.43" fill="#2f96b1" d="M 385.5,116.5 C 387.144,116.286 388.644,116.62 390,117.5C 390.497,119.81 390.663,122.143 390.5,124.5C 387.818,122.47 386.151,119.803 385.5,116.5 Z"/></g>
<g><path style="opacity:1" fill="#114f85" d="M 98.5,117.5 C 104.842,117.334 111.175,117.5 117.5,118C 126.121,119.621 130.954,124.787 132,133.5C 132.5,144.495 132.667,155.495 132.5,166.5C 127.833,166.5 123.167,166.5 118.5,166.5C 118.762,165.022 118.429,163.689 117.5,162.5C 111.633,167.166 104.967,168.666 97.5,167C 90.932,164.222 87.2653,159.222 86.5,152C 87.3363,143.495 92.003,138.495 100.5,137C 106.302,136.122 111.969,136.622 117.5,138.5C 118.898,133.497 116.898,130.664 111.5,130C 105.455,129.774 99.4546,130.274 93.5,131.5C 93.2523,128.42 92.5856,125.42 91.5,122.5C 91.8333,121.833 92.1667,121.167 92.5,120.5C 94.78,119.864 96.78,118.864 98.5,117.5 Z"/></g>
<g><path style="opacity:1" fill="#004880" d="M 253.5,118.5 C 257.833,118.5 262.167,118.5 266.5,118.5C 266.5,134.5 266.5,150.5 266.5,166.5C 262.167,166.5 257.833,166.5 253.5,166.5C 253.5,150.5 253.5,134.5 253.5,118.5 Z"/></g>
<g><path style="opacity:1" fill="#4378a1" d="M 253.5,118.5 C 257.97,117.514 262.637,117.181 267.5,117.5C 267.83,134.009 267.496,150.342 266.5,166.5C 266.5,150.5 266.5,134.5 266.5,118.5C 262.167,118.5 257.833,118.5 253.5,118.5 Z"/></g>
<g><path style="opacity:0.647" fill="#018ca9" d="M 385.5,170.5 C 385.833,168.167 387.167,166.833 389.5,166.5C 408.5,166.5 427.5,166.5 446.5,166.5C 446.5,151.5 446.5,136.5 446.5,121.5C 453.833,121.5 461.167,121.5 468.5,121.5C 468.5,128.167 468.5,134.833 468.5,141.5C 478.172,141.666 487.839,141.5 497.5,141C 499.674,139.203 502.007,139.036 504.5,140.5C 505.833,142.5 505.833,144.5 504.5,146.5C 502.007,147.964 499.674,147.797 497.5,146C 486.839,145.5 476.172,145.333 465.5,145.5C 465.5,138.5 465.5,131.5 465.5,124.5C 460.5,124.5 455.5,124.5 450.5,124.5C 450.824,139.745 450.491,154.911 449.5,170C 428.169,170.5 406.836,170.667 385.5,170.5 Z"/></g>
<g><path style="opacity:1" fill="#86a7c2" d="M 306.5,130.5 C 303.43,130.368 300.43,130.701 297.5,131.5C 297.611,130.883 297.944,130.383 298.5,130C 301.367,129.199 304.034,129.366 306.5,130.5 Z"/></g>
<g><path style="opacity:1" fill="#98b4cc" d="M 360.5,128.5 C 357.779,128.963 355.112,129.629 352.5,130.5C 354.715,127.66 357.382,126.993 360.5,128.5 Z"/></g>
<g><path style="opacity:1" fill="#f6f8fa" d="M 360.5,128.5 C 365.286,129.619 367.953,132.619 368.5,137.5C 362.167,137.5 355.833,137.5 349.5,137.5C 349.5,136.5 349.5,135.5 349.5,134.5C 350.026,132.77 351.026,131.436 352.5,130.5C 355.112,129.629 357.779,128.963 360.5,128.5 Z"/></g>
<g><path style="opacity:1" fill="#5a8aae" d="M 27.5,127.5 C 26.8333,140.5 26.1667,153.5 25.5,166.5C 25.1675,153.15 25.5008,139.817 26.5,126.5C 27.1067,126.624 27.44,126.957 27.5,127.5 Z"/></g>
<g><path style="opacity:1" fill="#a3bed2" d="M 62.5,166.5 C 61.8333,153.833 61.1667,141.167 60.5,128.5C 60.7828,127.711 61.2828,127.044 62,126.5C 62.4999,139.829 62.6666,153.163 62.5,166.5 Z"/></g>
<g><path style="opacity:1" fill="#96b5cc" d="M 349.5,134.5 C 349.5,135.5 349.5,136.5 349.5,137.5C 355.833,137.5 362.167,137.5 368.5,137.5C 362.021,138.491 355.354,138.824 348.5,138.5C 348.232,136.901 348.566,135.568 349.5,134.5 Z"/></g>
<g><path style="opacity:1" fill="#f1f5f8" d="M 113.5,156.5 C 109.833,156.5 106.167,156.5 102.5,156.5C 99.6778,152.92 100.011,149.587 103.5,146.5C 107.795,145.339 112.129,145.172 116.5,146C 119.793,150.751 118.793,154.251 113.5,156.5 Z"/></g>
<g><path style="opacity:1" fill="#4076a0" d="M 381.5,138.5 C 382.477,141.287 382.81,144.287 382.5,147.5C 371.116,146.856 360.116,147.523 349.5,149.5C 348.596,148.791 348.263,147.791 348.5,146.5C 359.5,146.5 370.5,146.5 381.5,146.5C 381.5,143.833 381.5,141.167 381.5,138.5 Z"/></g>
<g><path style="opacity:1" fill="#b2c7d9" d="M 102.5,156.5 C 106.167,156.5 109.833,156.5 113.5,156.5C 109.865,159.065 106.199,159.065 102.5,156.5 Z"/></g>
<g><path style="opacity:1" fill="#84cee2" d="M 335.5,171.5 C 340.174,174.164 345.174,176.331 350.5,178C 355.533,178.171 360.533,178.671 365.5,179.5C 362.833,180.5 360.167,181.5 357.5,182.5C 355.192,184.471 352.858,186.471 350.5,188.5C 348.35,186.851 346.35,185.018 344.5,183C 341.523,181.682 338.69,180.182 336,178.5C 335.503,176.19 335.337,173.857 335.5,171.5 Z"/></g>
<g><path style="opacity:0.669" fill="#018ba9" d="M 383.5,172.5 C 403.5,172.5 423.5,172.5 443.5,172.5C 443.5,185.833 443.5,199.167 443.5,212.5C 451.833,212.5 460.167,212.5 468.5,212.5C 468.334,204.16 468.5,195.827 469,187.5C 477.415,186.517 485.915,186.183 494.5,186.5C 494.573,182.888 493.573,179.722 491.5,177C 494.627,171.056 497.627,171.056 500.5,177C 498.296,181.314 496.962,185.981 496.5,191C 488.507,191.5 480.507,191.666 472.5,191.5C 472.5,199.5 472.5,207.5 472.5,215.5C 461.5,215.5 450.5,215.5 439.5,215.5C 439.5,202.167 439.5,188.833 439.5,175.5C 418.833,175.5 398.167,175.5 377.5,175.5C 378.911,173.461 380.911,172.461 383.5,172.5 Z"/></g>
<g><path style="opacity:1" fill="#91b1c9" d="M 286.5,172.5 C 281.833,172.5 277.167,172.5 272.5,172.5C 272.5,176.5 272.5,180.5 272.5,184.5C 277.167,184.5 281.833,184.5 286.5,184.5C 281.695,185.487 276.695,185.821 271.5,185.5C 271.5,180.833 271.5,176.167 271.5,171.5C 276.695,171.179 281.695,171.513 286.5,172.5 Z"/></g>
<g><path style="opacity:1" fill="#054c83" d="M 286.5,172.5 C 286.5,176.5 286.5,180.5 286.5,184.5C 281.833,184.5 277.167,184.5 272.5,184.5C 272.5,180.5 272.5,176.5 272.5,172.5C 277.167,172.5 281.833,172.5 286.5,172.5 Z"/></g>
<g><path style="opacity:1" fill="#004880" d="M 13.5,175.5 C 17.5,175.5 21.5,175.5 25.5,175.5C 25.1702,192.342 25.5035,209.008 26.5,225.5C 36.6532,226.494 46.9865,226.828 57.5,226.5C 57.5,230.167 57.5,233.833 57.5,237.5C 42.8333,237.5 28.1667,237.5 13.5,237.5C 13.5,216.833 13.5,196.167 13.5,175.5 Z"/></g>
<g><path style="opacity:1" fill="#4277a1" d="M 12.5,175.5 C 17.1667,174.167 21.8333,174.167 26.5,175.5C 26.5,192.167 26.5,208.833 26.5,225.5C 25.5035,209.008 25.1702,192.342 25.5,175.5C 21.5,175.5 17.5,175.5 13.5,175.5C 13.1667,175.5 12.8333,175.5 12.5,175.5 Z"/></g>
<g><path style="opacity:1" fill="#cceef7" d="M 297.5,177.5 C 306.192,177.169 314.859,177.502 323.5,178.5C 319.167,178.833 314.833,179.167 310.5,179.5C 305.778,179.492 301.445,178.825 297.5,177.5 Z"/></g>
<g><path style="opacity:0.738" fill="#028da9" d="M 416.5,178.5 C 422.5,178.5 428.5,178.5 434.5,178.5C 434.5,193.5 434.5,208.5 434.5,223.5C 449.167,223.5 463.833,223.5 478.5,223.5C 478.5,218.167 478.5,212.833 478.5,207.5C 482.182,207.665 485.848,207.499 489.5,207C 491.857,203.984 494.357,203.818 497,206.5C 498.833,212.667 496.667,214.833 490.5,213C 487.938,210.449 484.938,209.949 481.5,211.5C 482.448,216.435 482.781,221.435 482.5,226.5C 465.5,226.5 448.5,226.5 431.5,226.5C 431.5,211.5 431.5,196.5 431.5,181.5C 426.637,181.181 421.97,181.514 417.5,182.5C 416.566,181.432 416.232,180.099 416.5,178.5 Z"/></g>
<g><path style="opacity:1" fill="#4076a0" d="M 299.5,190.5 C 303.97,189.514 308.637,189.181 313.5,189.5C 313.077,191.781 313.744,193.448 315.5,194.5C 314.791,195.404 313.791,195.737 312.5,195.5C 312.5,193.833 312.5,192.167 312.5,190.5C 308.167,190.5 303.833,190.5 299.5,190.5 Z"/></g>
<g><path style="opacity:1" fill="#40709d" d="M 383.5,190.5 C 376.683,190.064 370.016,190.731 363.5,192.5C 365.385,190.689 367.719,189.522 370.5,189C 374.167,188.333 377.833,188.333 381.5,189C 382.416,189.278 383.082,189.778 383.5,190.5 Z"/></g>
<g><path style="opacity:1" fill="#0f4d84" d="M 95.5,189.5 C 109.399,194.615 115.066,204.615 112.5,219.5C 101.5,219.5 90.5,219.5 79.5,219.5C 79.7898,223.961 82.1231,226.795 86.5,228C 92.7214,229.553 98.0548,228.053 102.5,223.5C 105.167,225.833 107.833,228.167 110.5,230.5C 103.089,239.08 93.7552,241.913 82.5,239C 73.0772,235.746 67.4105,229.246 65.5,219.5C 65.4126,214.463 65.746,209.463 66.5,204.5C 68.0399,198.964 71.3732,194.964 76.5,192.5C 82.597,190.123 88.9303,189.123 95.5,189.5 Z"/></g>
<g><path style="opacity:1" fill="#0d4d84" d="M 165.5,238.5 C 161.167,238.5 156.833,238.5 152.5,238.5C 152.768,236.901 152.434,235.568 151.5,234.5C 148.884,235.48 146.551,236.98 144.5,239C 126.969,242.13 119.136,234.963 121,217.5C 122.993,213.586 126.16,211.252 130.5,210.5C 137.48,209.253 144.48,209.253 151.5,210.5C 151.784,208.585 151.451,206.919 150.5,205.5C 149.694,204.272 148.694,203.272 147.5,202.5C 140.988,201.368 134.321,201.368 127.5,202.5C 126.41,199.733 125.41,196.899 124.5,194C 125.272,192.779 126.272,191.779 127.5,191C 135.77,189.463 144.103,189.13 152.5,190C 159.097,192.263 163.264,196.763 165,203.5C 165.5,215.162 165.667,226.829 165.5,238.5 Z"/></g>
<g><path style="opacity:1" fill="#044a82" d="M 191.5,213.5 C 190.507,221.65 190.174,229.983 190.5,238.5C 186.167,238.5 181.833,238.5 177.5,238.5C 177.5,222.5 177.5,206.5 177.5,190.5C 181.833,190.5 186.167,190.5 190.5,190.5C 190.125,193.397 190.625,196.063 192,198.5C 192.464,197.906 192.631,197.239 192.5,196.5C 195.324,190.751 199.991,188.084 206.5,188.5C 206.5,193.5 206.5,198.5 206.5,203.5C 198.965,203.097 193.965,206.43 191.5,213.5 Z"/></g>
<g><path style="opacity:1" fill="#034a82" d="M 258.5,198.5 C 259.425,211.804 259.758,225.137 259.5,238.5C 255.167,238.5 250.833,238.5 246.5,238.5C 246.828,227.654 246.494,216.987 245.5,206.5C 244.461,204.469 242.795,203.136 240.5,202.5C 239.551,201.848 238.385,201.514 237,201.5C 234.992,201.307 233.492,201.974 232.5,203.5C 231.5,203.833 230.833,204.5 230.5,205.5C 229.778,205.918 229.278,206.584 229,207.5C 228.5,217.828 228.334,228.161 228.5,238.5C 224.167,238.5 219.833,238.5 215.5,238.5C 215.5,222.5 215.5,206.5 215.5,190.5C 219.833,190.5 224.167,190.5 228.5,190.5C 228.215,192.288 228.548,193.955 229.5,195.5C 230.107,195.376 230.44,195.043 230.5,194.5C 237.448,187.507 245.115,186.674 253.5,192C 255.79,193.777 257.457,195.944 258.5,198.5 Z"/></g>
<g><path style="opacity:1" fill="#054a82" d="M 342.5,197.5 C 343.427,211.137 343.76,224.804 343.5,238.5C 339.167,238.5 334.833,238.5 330.5,238.5C 330.666,228.161 330.5,217.828 330,207.5C 328.975,205.313 327.475,203.646 325.5,202.5C 323.034,201.366 320.367,201.199 317.5,202C 316.944,202.383 316.611,202.883 316.5,203.5C 316.5,204.167 316.167,204.5 315.5,204.5C 314.883,204.611 314.383,204.944 314,205.5C 313.5,216.495 313.333,227.495 313.5,238.5C 308.833,238.5 304.167,238.5 299.5,238.5C 299.5,222.5 299.5,206.5 299.5,190.5C 303.833,190.5 308.167,190.5 312.5,190.5C 312.5,192.167 312.5,193.833 312.5,195.5C 313.791,195.737 314.791,195.404 315.5,194.5C 318.521,190.351 322.688,188.351 328,188.5C 334.665,188.724 339.499,191.724 342.5,197.5 Z"/></g>
<g><path style="opacity:1" fill="#0d4c84" d="M 383.5,190.5 C 386.118,191.945 388.618,193.611 391,195.5C 391.494,193.866 391.66,192.199 391.5,190.5C 395.833,190.5 400.167,190.5 404.5,190.5C 404.5,205.833 404.5,221.167 404.5,236.5C 402.227,244.282 397.227,249.782 389.5,253C 378.176,254.387 367.176,253.22 356.5,249.5C 356.818,245.212 358.484,241.545 361.5,238.5C 368.577,241.34 375.91,242.173 383.5,241C 389.926,238.747 392.426,234.247 391,227.5C 384.936,234.182 377.436,236.349 368.5,234C 360.864,231.027 356.031,225.527 354,217.5C 352.126,207.221 355.292,198.888 363.5,192.5C 370.016,190.731 376.683,190.064 383.5,190.5 Z"/></g>
<g><path style="opacity:1" fill="#5885ab" d="M 95.5,189.5 C 88.9303,189.123 82.597,190.123 76.5,192.5C 78.3854,190.689 80.7187,189.522 83.5,189C 87.6888,188.188 91.6888,188.355 95.5,189.5 Z"/></g>
<g><path style="opacity:1" fill="#638fb2" d="M 192.5,196.5 C 192.631,197.239 192.464,197.906 192,198.5C 190.625,196.063 190.125,193.397 190.5,190.5C 186.167,190.5 181.833,190.5 177.5,190.5C 177.5,206.5 177.5,222.5 177.5,238.5C 181.833,238.5 186.167,238.5 190.5,238.5C 190.174,229.983 190.507,221.65 191.5,213.5C 191.5,222.167 191.5,230.833 191.5,239.5C 186.5,239.5 181.5,239.5 176.5,239.5C 176.5,222.833 176.5,206.167 176.5,189.5C 181.5,189.5 186.5,189.5 191.5,189.5C 191.198,192.059 191.532,194.393 192.5,196.5 Z"/></g>
<g><path style="opacity:1" fill="#6c96b6" d="M 230.5,194.5 C 230.44,195.043 230.107,195.376 229.5,195.5C 228.548,193.955 228.215,192.288 228.5,190.5C 224.167,190.5 219.833,190.5 215.5,190.5C 215.5,206.5 215.5,222.5 215.5,238.5C 219.833,238.5 224.167,238.5 228.5,238.5C 224.03,239.486 219.363,239.819 214.5,239.5C 214.5,222.833 214.5,206.167 214.5,189.5C 219.5,189.5 224.5,189.5 229.5,189.5C 229.216,191.415 229.549,193.081 230.5,194.5 Z"/></g>
<g><path style="opacity:1" fill="#014981" d="M 272.5,190.5 C 276.833,190.5 281.167,190.5 285.5,190.5C 285.5,206.5 285.5,222.5 285.5,238.5C 281.167,238.5 276.833,238.5 272.5,238.5C 272.5,222.5 272.5,206.5 272.5,190.5 Z"/></g>
<g><path style="opacity:1" fill="#4f80a7" d="M 272.5,190.5 C 276.97,189.514 281.637,189.181 286.5,189.5C 286.5,206.167 286.5,222.833 286.5,239.5C 281.637,239.819 276.97,239.486 272.5,238.5C 276.833,238.5 281.167,238.5 285.5,238.5C 285.5,222.5 285.5,206.5 285.5,190.5C 281.167,190.5 276.833,190.5 272.5,190.5 Z"/></g>
<g><path style="opacity:1" fill="#457aa3" d="M 391.5,190.5 C 395.97,189.514 400.637,189.181 405.5,189.5C 405.83,205.342 405.496,221.009 404.5,236.5C 404.5,221.167 404.5,205.833 404.5,190.5C 400.167,190.5 395.833,190.5 391.5,190.5 Z"/></g>
<g><path style="opacity:1" fill="#f1f5f8" d="M 84.5,200.5 C 92.8206,198.83 97.4873,202.163 98.5,210.5C 91.8002,210.83 85.1335,210.497 78.5,209.5C 79.7448,205.935 81.7448,202.935 84.5,200.5 Z"/></g>
<g><path style="opacity:1" fill="#abc1d5" d="M 147.5,202.5 C 140.639,202.814 133.972,202.814 127.5,202.5C 134.321,201.368 140.988,201.368 147.5,202.5 Z"/></g>
<g><path style="opacity:1" fill="#92b1c9" d="M 240.5,202.5 C 237.763,202.401 235.096,202.735 232.5,203.5C 233.492,201.974 234.992,201.307 237,201.5C 238.385,201.514 239.551,201.848 240.5,202.5 Z"/></g>
<g><path style="opacity:1" fill="#8aabc5" d="M 325.5,202.5 C 322.43,202.368 319.43,202.701 316.5,203.5C 316.611,202.883 316.944,202.383 317.5,202C 320.367,201.199 323.034,201.366 325.5,202.5 Z"/></g>
<g><path style="opacity:1" fill="#f6f8fa" d="M 375.5,200.5 C 381.302,199.489 386.135,201.156 390,205.5C 392.863,218.308 387.696,223.808 374.5,222C 372,220.833 370.167,219 369,216.5C 366.724,209.126 368.891,203.793 375.5,200.5 Z"/></g>
<g><path style="opacity:1" fill="#6691b3" d="M 342.5,197.5 C 343.222,197.918 343.722,198.584 344,199.5C 344.5,212.829 344.667,226.163 344.5,239.5C 339.637,239.819 334.97,239.486 330.5,238.5C 334.833,238.5 339.167,238.5 343.5,238.5C 343.76,224.804 343.427,211.137 342.5,197.5 Z"/></g>
<g><path style="opacity:1" fill="#98b5cc" d="M 150.5,205.5 C 151.451,206.919 151.784,208.585 151.5,210.5C 144.48,209.253 137.48,209.253 130.5,210.5C 130.611,209.883 130.944,209.383 131.5,209C 137.749,208.191 143.916,208.358 150,209.5C 150.49,208.207 150.657,206.873 150.5,205.5 Z"/></g>
<g><path style="opacity:1" fill="#5f8db0" d="M 258.5,198.5 C 259.268,199.263 259.768,200.263 260,201.5C 260.5,214.162 260.667,226.829 260.5,239.5C 255.5,239.5 250.5,239.5 245.5,239.5C 245.5,228.5 245.5,217.5 245.5,206.5C 246.494,216.987 246.828,227.654 246.5,238.5C 250.833,238.5 255.167,238.5 259.5,238.5C 259.758,225.137 259.425,211.804 258.5,198.5 Z"/></g>
<g><path style="opacity:1" fill="#7ba1be" d="M 230.5,205.5 C 229.924,216.65 229.257,227.65 228.5,238.5C 228.334,228.161 228.5,217.828 229,207.5C 229.278,206.584 229.778,205.918 230.5,205.5 Z"/></g>
<g><path style="opacity:1" fill="#b9cddd" d="M 315.5,204.5 C 314.874,215.962 314.208,227.296 313.5,238.5C 313.333,227.495 313.5,216.495 314,205.5C 314.383,204.944 314.883,204.611 315.5,204.5 Z"/></g>
<g><path style="opacity:1" fill="#6c95b6" d="M 66.5,204.5 C 65.746,209.463 65.4126,214.463 65.5,219.5C 64.838,217.696 64.5046,215.696 64.5,213.5C 64.3425,210.186 65.0092,207.186 66.5,204.5 Z"/></g>
<g><path style="opacity:1" fill="#edf2f6" d="M 137.5,217.5 C 142.547,217.337 147.547,217.671 152.5,218.5C 152.451,226.048 148.618,229.714 141,229.5C 134.726,229.399 132.56,226.399 134.5,220.5C 135.548,219.452 136.548,218.452 137.5,217.5 Z"/></g>
<g><path style="opacity:0.796" fill="#78bdce" d="M 202.5,222.5 C 202.5,223.167 202.833,223.5 203.5,223.5C 204.833,224.5 204.833,225.5 203.5,226.5C 202.833,226.5 202.5,226.833 202.5,227.5C 201.167,225.833 201.167,224.167 202.5,222.5 Z"/></g>
<g><path style="opacity:1" fill="#8aabc5" d="M 26.5,175.5 C 27.4965,191.992 27.8298,208.658 27.5,225.5C 38.0135,225.172 48.3468,225.506 58.5,226.5C 58.1667,226.5 57.8333,226.5 57.5,226.5C 46.9865,226.828 36.6532,226.494 26.5,225.5C 26.5,208.833 26.5,192.167 26.5,175.5 Z"/></g>
<g><path style="opacity:1" fill="#206091" d="M 12.5,175.5 C 12.8333,175.5 13.1667,175.5 13.5,175.5C 13.5,196.167 13.5,216.833 13.5,237.5C 28.1667,237.5 42.8333,237.5 57.5,237.5C 57.5,233.833 57.5,230.167 57.5,226.5C 57.8333,226.5 58.1667,226.5 58.5,226.5C 58.5,230.5 58.5,234.5 58.5,238.5C 43.1667,238.5 27.8333,238.5 12.5,238.5C 12.5,217.5 12.5,196.5 12.5,175.5 Z"/></g>
<g><path style="opacity:1" fill="#8cadc7" d="M 151.5,234.5 C 152.434,235.568 152.768,236.901 152.5,238.5C 156.833,238.5 161.167,238.5 165.5,238.5C 161.03,239.486 156.363,239.819 151.5,239.5C 151.5,237.833 151.5,236.167 151.5,234.5 Z"/></g>
<g><path style="opacity:0.653" fill="#0a8daa" d="M 417.5,184.5 C 420.5,184.5 423.5,184.5 426.5,184.5C 426.5,200.5 426.5,216.5 426.5,232.5C 442.167,232.5 457.833,232.5 473.5,232.5C 473.5,238.167 473.5,243.833 473.5,249.5C 480.327,249.992 486.993,249.325 493.5,247.5C 497.147,248.486 498.314,250.819 497,254.5C 494.38,255.923 491.88,255.757 489.5,254C 482.842,253.5 476.175,253.334 469.5,253.5C 469.193,247.907 469.527,242.407 470.5,237C 454.503,236.5 438.503,236.333 422.5,236.5C 422.5,220.167 422.5,203.833 422.5,187.5C 420.833,187.5 419.167,187.5 417.5,187.5C 418.462,206.133 418.795,224.799 418.5,243.5C 433.5,243.5 448.5,243.5 463.5,243.5C 463.5,251.167 463.5,258.833 463.5,266.5C 470.532,266.17 477.532,266.503 484.5,267.5C 485.022,272.578 486.189,277.245 488,281.5C 484.075,285.727 480.909,285.227 478.5,280C 478.777,278.108 479.777,276.775 481.5,276C 480.167,274.667 480.167,273.333 481.5,272C 474.508,271.5 467.508,271.334 460.5,271.5C 460.5,263.5 460.5,255.5 460.5,247.5C 445.5,247.5 430.5,247.5 415.5,247.5C 415.5,246.167 415.5,244.833 415.5,243.5C 416.048,223.673 416.714,204.007 417.5,184.5 Z"/></g>
<g><path style="opacity:0.863" fill="#242549" d="M 112.5,244.5 C 115.256,247.389 118.589,249.556 122.5,251C 127.681,252.282 132.681,253.949 137.5,256C 151.782,257.622 166.116,258.622 180.5,259C 189.564,260.869 197.898,264.369 205.5,269.5C 222.403,285.456 241.736,297.622 263.5,306C 282.809,311.65 302.142,311.65 321.5,306C 325.167,303.833 328.833,301.667 332.5,299.5C 338.785,316.412 350.951,326.078 369,328.5C 375.306,328.975 381.473,330.142 387.5,332C 394.066,336.747 400.732,341.247 407.5,345.5C 409.181,347.008 411.181,348.008 413.5,348.5C 414.347,349.966 415.68,350.8 417.5,351C 422.352,351.815 427.019,351.648 431.5,350.5C 438.542,348.477 445.209,345.644 451.5,342C 460.16,341.5 468.827,341.334 477.5,341.5C 478.167,341.5 478.5,341.833 478.5,342.5C 470.343,343.329 462.01,343.829 453.5,344C 451.122,344.511 448.788,345.178 446.5,346C 442.185,349.322 437.518,351.822 432.5,353.5C 427.833,353.5 423.167,353.5 418.5,353.5C 414.199,352.061 409.865,350.394 405.5,348.5C 399.222,343.383 392.555,338.883 385.5,335C 371.876,334.393 358.876,331.393 346.5,326C 339.31,321.809 333.81,315.975 330,308.5C 315.076,315.932 299.242,318.766 282.5,317C 266.695,314.954 251.695,310.287 237.5,303C 231.366,299.364 225.366,295.531 219.5,291.5C 208.427,280.259 195.427,272.092 180.5,267C 164.082,266.564 147.748,265.231 131.5,263C 126.856,260.784 122.023,258.95 117,257.5C 112.869,255.191 109.035,252.524 105.5,249.5C 107.228,247.123 109.561,245.456 112.5,244.5 Z"/></g>
<g><path style="opacity:0.89" fill="#26284b" d="M 191.5,250.5 C 205.165,255.999 217.165,263.999 227.5,274.5C 243.094,287.283 260.761,295.783 280.5,300C 291.544,300.85 302.544,300.517 313.5,299C 316.832,298.504 319.832,297.337 322.5,295.5C 324.527,295.662 326.527,295.495 328.5,295C 329.131,292.901 330.131,291.068 331.5,289.5C 333.473,288.513 335.473,287.513 337.5,286.5C 337.833,286.833 338.167,287.167 338.5,287.5C 340.457,293.916 342.623,300.249 345,306.5C 346.978,309.645 349.478,312.312 352.5,314.5C 363.582,319.751 375.248,322.918 387.5,324C 397.342,330.663 407.342,337.163 417.5,343.5C 422.8,344.569 428.134,344.736 433.5,344C 439.843,340.279 446.51,337.445 453.5,335.5C 453.5,336.167 453.5,336.833 453.5,337.5C 451.146,337.838 448.813,338.338 446.5,339C 442.044,342.04 437.378,344.707 432.5,347C 425.433,348.193 418.767,347.36 412.5,344.5C 405.363,339.56 398.03,334.727 390.5,330C 381.142,326.628 371.475,324.628 361.5,324C 353.63,321.484 346.797,317.317 341,311.5C 338.025,306.744 335.525,301.744 333.5,296.5C 309.426,310.283 284.426,312.116 258.5,302C 252.985,299.077 247.318,296.41 241.5,294C 227.809,284.487 214.476,274.487 201.5,264C 197.465,261.993 193.465,259.993 189.5,258C 177.928,256.018 166.262,255.018 154.5,255C 147.578,254.052 140.912,252.552 134.5,250.5C 153.506,249.231 172.506,249.231 191.5,250.5 Z"/></g>
<g><path style="opacity:0.69" fill="#038ca9" d="M 240.5,251.5 C 240.5,255.833 240.5,260.167 240.5,264.5C 236.288,264.078 232.288,264.744 228.5,266.5C 224.851,265.461 223.684,263.128 225,259.5C 225.75,258.874 226.584,258.374 227.5,258C 230.284,258.919 233.284,259.419 236.5,259.5C 236.5,256.833 236.5,254.167 236.5,251.5C 237.151,250.909 237.818,250.243 238.5,249.5C 239.182,250.243 239.849,250.909 240.5,251.5 Z"/></g>
<g><path style="opacity:0.653" fill="#0e8caa" d="M 264.5,250.5 C 262.642,254.527 261.975,258.86 262.5,263.5C 266.833,263.5 271.167,263.5 275.5,263.5C 275.5,259.5 275.5,255.5 275.5,251.5C 277.167,248.833 278.833,248.833 280.5,251.5C 280.5,256.5 280.5,261.5 280.5,266.5C 273.167,266.5 265.833,266.5 258.5,266.5C 258.998,260.911 258.332,255.578 256.5,250.5C 259.167,249.167 261.833,249.167 264.5,250.5 Z M 264.5,250.5 C 268.371,250.185 272.038,250.518 275.5,251.5C 275.5,255.5 275.5,259.5 275.5,263.5C 271.167,263.5 266.833,263.5 262.5,263.5C 261.975,258.86 262.642,254.527 264.5,250.5 Z"/></g>
<g><path style="opacity:0.679" fill="#018ca6" d="M 293.5,250.5 C 293.831,259.192 293.498,267.859 292.5,276.5C 288.889,277.262 285.222,277.762 281.5,278C 278.453,281.293 275.953,280.793 274,276.5C 272.877,272.945 274.211,270.945 278,270.5C 281.649,272.352 285.482,272.852 289.5,272C 288.184,265.167 288.184,258.334 289.5,251.5C 290.568,250.566 291.901,250.232 293.5,250.5 Z"/></g>
<g><path style="opacity:0.787" fill="#048ba9" d="M 316.5,250.5 C 316.5,252.167 316.5,253.833 316.5,255.5C 310.5,255.5 304.5,255.5 298.5,255.5C 298.334,262.841 298.5,270.174 299,277.5C 302,279.997 302.167,282.664 299.5,285.5C 292.217,286.483 290.717,283.816 295,277.5C 295.5,269.173 295.666,260.84 295.5,252.5C 301.598,253.117 307.265,252.45 312.5,250.5C 313.961,249.314 315.295,249.314 316.5,250.5 Z"/></g>
<g><path style="opacity:0.757" fill="#038ca8" d="M 322.5,250.5 C 322.666,254.846 322.499,259.179 322,263.5C 317.934,264.464 313.767,264.797 309.5,264.5C 309.5,274.5 309.5,284.5 309.5,294.5C 305.818,294.335 302.152,294.501 298.5,295C 298.002,296.158 297.169,296.991 296,297.5C 291.999,296.143 290.666,293.476 292,289.5C 293.085,288.707 294.252,288.04 295.5,287.5C 298.612,289.184 301.946,289.85 305.5,289.5C 305.334,279.828 305.5,270.161 306,260.5C 310.066,259.536 314.233,259.203 318.5,259.5C 318.5,256.5 318.5,253.5 318.5,250.5C 319.705,249.314 321.039,249.314 322.5,250.5 Z"/></g>
<g><path style="opacity:0.656" fill="#058ba9" d="M 327.5,250.5 C 327.666,256.842 327.5,263.175 327,269.5C 323.606,270.456 320.106,270.789 316.5,270.5C 316.5,276.833 316.5,283.167 316.5,289.5C 320.007,289.693 323.34,289.027 326.5,287.5C 328.195,288.174 329.862,288.841 331.5,289.5C 330.131,291.068 329.131,292.901 328.5,295C 326.527,295.495 324.527,295.662 322.5,295.5C 319.437,294.799 316.27,294.132 313,293.5C 312.333,284.5 312.333,275.5 313,266.5C 316.73,265.54 320.563,265.207 324.5,265.5C 324.5,260.5 324.5,255.5 324.5,250.5C 325.5,249.167 326.5,249.167 327.5,250.5 Z"/></g>
<g><path style="opacity:0.65" fill="#048ba8" d="M 333.5,250.5 C 333.5,257.167 333.5,263.833 333.5,270.5C 344.833,270.5 356.167,270.5 367.5,270.5C 367.5,281.833 367.5,293.167 367.5,304.5C 361.772,304.026 356.272,304.693 351,306.5C 346.245,305.313 345.411,302.813 348.5,299C 353.637,300.08 358.97,300.58 364.5,300.5C 364.5,291.833 364.5,283.167 364.5,274.5C 353.167,274.5 341.833,274.5 330.5,274.5C 330.5,266.5 330.5,258.5 330.5,250.5C 331.5,249.167 332.5,249.167 333.5,250.5 Z"/></g>
<g><path style="opacity:0.703" fill="#158da8" d="M 339.5,250.5 C 339.5,253.5 339.5,256.5 339.5,259.5C 340.873,259.657 342.207,259.49 343.5,259C 341.808,257.599 341.141,255.766 341.5,253.5C 345.406,255.129 349.073,257.129 352.5,259.5C 351.167,259.833 351.167,260.167 352.5,260.5C 356.78,260.699 360.447,262.032 363.5,264.5C 354.5,264.5 345.5,264.5 336.5,264.5C 336.5,259.833 336.5,255.167 336.5,250.5C 337.5,249.167 338.5,249.167 339.5,250.5 Z"/></g>
<g><path style="opacity:0.705" fill="#028ca9" d="M 412.5,249.5 C 412.5,250.5 412.5,251.5 412.5,252.5C 425.5,252.5 438.5,252.5 451.5,252.5C 451.5,263.833 451.5,275.167 451.5,286.5C 445.167,286.5 438.833,286.5 432.5,286.5C 432.5,292.167 432.5,297.833 432.5,303.5C 443.833,303.5 455.167,303.5 466.5,303.5C 466.026,309.228 466.693,314.728 468.5,320C 468.415,321.107 468.081,322.107 467.5,323C 465.231,323.758 463.064,323.591 461,322.5C 461.681,317.235 462.181,311.902 462.5,306.5C 451.167,306.5 439.833,306.5 428.5,306.5C 428.5,298.5 428.5,290.5 428.5,282.5C 435.167,282.5 441.833,282.5 448.5,282.5C 448.5,273.5 448.5,264.5 448.5,255.5C 434.99,255.829 421.656,255.496 408.5,254.5C 408.67,251.796 410.003,250.129 412.5,249.5 Z"/></g>
<g><path style="opacity:0.59" fill="#0394af" d="M 375.5,265.5 C 376.458,271.744 376.791,278.077 376.5,284.5C 382.868,284.17 389.202,284.504 395.5,285.5C 397.071,288.393 397.737,291.559 397.5,295C 397.475,297.755 397.141,300.422 396.5,303C 399.482,303.498 402.482,303.665 405.5,303.5C 405.026,309.228 405.693,314.728 407.5,320C 407.415,321.107 407.081,322.107 406.5,323C 404.231,323.758 402.064,323.591 400,322.5C 400.681,317.235 401.181,311.902 401.5,306.5C 398.5,306.5 395.5,306.5 392.5,306.5C 392.5,300.833 392.5,295.167 392.5,289.5C 385.578,289.812 378.744,289.479 372,288.5C 371.5,280.841 371.334,273.174 371.5,265.5C 372.961,264.314 374.295,264.314 375.5,265.5 Z"/></g>
<g><path style="opacity:0.699" fill="#028da9" d="M 382.5,265.5 C 382.5,269.5 382.5,273.5 382.5,277.5C 384.833,277.5 387.167,277.5 389.5,277.5C 388.706,275.127 387.706,272.794 386.5,270.5C 387.246,269.264 387.579,267.93 387.5,266.5C 390.255,264.875 392.755,265.208 395,267.5C 394.533,272.15 393.7,276.817 392.5,281.5C 388.558,282.6 384.558,282.767 380.5,282C 378.163,276.717 377.83,271.217 379.5,265.5C 380.348,264.375 381.348,264.375 382.5,265.5 Z"/></g>
<g><path style="opacity:0.145" fill="#1d1a44" d="M 524.5,275.5 C 524.371,277.216 524.038,278.883 523.5,280.5C 523.167,280.5 522.833,280.5 522.5,280.5C 522.402,278.447 523.069,276.78 524.5,275.5 Z"/></g>
<g><path style="opacity:0.933" fill="#507a98" d="M 526.5,274.5 C 526.245,276.967 525.245,278.967 523.5,280.5C 524.038,278.883 524.371,277.216 524.5,275.5C 525.167,275.167 525.833,274.833 526.5,274.5 Z"/></g>
<g><path style="opacity:0.537" fill="#3d5373" d="M 522.5,280.5 C 521.523,283.989 519.523,286.823 516.5,289C 510.797,290.772 505.13,292.605 499.5,294.5C 501.48,292.549 503.813,291.049 506.5,290C 510.019,289.605 513.352,288.605 516.5,287C 518.049,284.289 520.049,282.123 522.5,280.5 Z"/></g>
<g><path style="opacity:0.098" fill="#3e5877" d="M 514.5,295.5 C 511.224,297.358 507.558,298.692 503.5,299.5C 503.5,299.167 503.5,298.833 503.5,298.5C 506.686,296.126 510.353,295.126 514.5,295.5 Z"/></g>
<g><path style="opacity:0.22" fill="#527d9b" d="M 499.5,294.5 C 498.705,301.087 498.205,307.754 498,314.5C 497.576,317.025 496.41,319.025 494.5,320.5C 496.093,312.952 496.926,305.285 497,297.5C 497.236,295.881 498.069,294.881 499.5,294.5 Z"/></g>
<g><path style="opacity:0.953" fill="#537e9b" d="M 503.5,298.5 C 503.5,298.833 503.5,299.167 503.5,299.5C 504.092,308.207 503.092,316.707 500.5,325C 499.87,326.31 498.87,327.144 497.5,327.5C 498.938,324.284 500.105,320.951 501,317.5C 501.333,311.5 501.667,305.5 502,299.5C 502.383,298.944 502.883,298.611 503.5,298.5 Z"/></g>
<g><path style="opacity:1" fill="#73bdd5" d="M 134.5,250.5 C 140.912,252.552 147.578,254.052 154.5,255C 166.262,255.018 177.928,256.018 189.5,258C 193.465,259.993 197.465,261.993 201.5,264C 214.476,274.487 227.809,284.487 241.5,294C 247.318,296.41 252.985,299.077 258.5,302C 284.426,312.116 309.426,310.283 333.5,296.5C 335.525,301.744 338.025,306.744 341,311.5C 346.797,317.317 353.63,321.484 361.5,324C 371.475,324.628 381.142,326.628 390.5,330C 398.03,334.727 405.363,339.56 412.5,344.5C 410.94,344.481 409.44,344.148 408,343.5C 406.316,343.683 406.15,344.35 407.5,345.5C 400.732,341.247 394.066,336.747 387.5,332C 381.473,330.142 375.306,328.975 369,328.5C 350.951,326.078 338.785,316.412 332.5,299.5C 328.833,301.667 325.167,303.833 321.5,306C 302.142,311.65 282.809,311.65 263.5,306C 241.736,297.622 222.403,285.456 205.5,269.5C 197.898,264.369 189.564,260.869 180.5,259C 166.116,258.622 151.782,257.622 137.5,256C 132.681,253.949 127.681,252.282 122.5,251C 118.589,249.556 115.256,247.389 112.5,244.5C 112.866,243.305 113.699,242.639 115,242.5C 118.734,244.952 122.567,247.286 126.5,249.5C 129.115,250.269 131.781,250.603 134.5,250.5 Z"/></g>
<g><path style="opacity:0.306" fill="#24254b" d="M 464.5,335.5 C 461.5,336.833 458.5,336.833 455.5,335.5C 458.604,334.225 461.604,334.225 464.5,335.5 Z"/></g>
<g><path style="opacity:0.671" fill="#3e5675" d="M 494.5,321.5 C 490.832,329.332 484.832,334.499 476.5,337C 468.841,337.5 461.174,337.666 453.5,337.5C 453.5,336.833 453.5,336.167 453.5,335.5C 454.167,335.5 454.833,335.5 455.5,335.5C 458.5,336.833 461.5,336.833 464.5,335.5C 471.526,336.195 478.193,335.028 484.5,332C 488.037,328.631 491.371,325.131 494.5,321.5 Z"/></g>
<g><path style="opacity:0.227" fill="#3c506c" d="M 497.5,327.5 C 497.291,328.922 496.791,330.255 496,331.5C 491.204,336.815 485.371,340.481 478.5,342.5C 478.5,341.833 478.167,341.5 477.5,341.5C 485.485,338.83 492.152,334.164 497.5,327.5 Z"/></g>
<g><path style="opacity:1" fill="#507a98" d="M 413.5,348.5 C 419.346,350.233 425.346,350.9 431.5,350.5C 427.019,351.648 422.352,351.815 417.5,351C 415.68,350.8 414.347,349.966 413.5,348.5 Z"/></g>
</svg>
