<?xml version="1.0" encoding="UTF-8"?>
<svg xmlns="http://www.w3.org/2000/svg" xmlns:xlink="http://www.w3.org/1999/xlink" width="50px" height="61px" viewBox="0 0 50 60" version="1.1">
<defs>
<linearGradient id="linear0" gradientUnits="userSpaceOnUse" x1="26.648937" y1="20.603781" x2="135.66525" y2="114.39767" gradientTransform="matrix(0.270452,0,0,0.270463,-7.207269,-5.572558)">
<stop offset="0" style="stop-color:rgb(35.294118%,62.352941%,83.137255%);stop-opacity:1;"/>
<stop offset="1" style="stop-color:rgb(18.823529%,41.176471%,59.607843%);stop-opacity:1;"/>
</linearGradient>
<linearGradient id="linear1" gradientUnits="userSpaceOnUse" x1="150.96111" y1="192.35176" x2="112.03144" y2="137.27299" gradientTransform="matrix(0.270452,0,0,0.270463,-7.207269,-5.572558)">
<stop offset="0" style="stop-color:rgb(100%,83.137255%,23.137255%);stop-opacity:1;"/>
<stop offset="1" style="stop-color:rgb(100%,90.980392%,45.098039%);stop-opacity:1;"/>
</linearGradient>
<filter id="alpha" filterUnits="objectBoundingBox" x="0%" y="0%" width="100%" height="100%">
  <feColorMatrix type="matrix" in="SourceGraphic" values="0 0 0 0 1 0 0 0 0 1 0 0 0 0 1 0 0 0 1 0"/>
</filter>
<mask id="mask0">
  <g filter="url(#alpha)">
<rect x="0" y="0" width="50" height="60" style="fill:rgb(0%,0%,0%);fill-opacity:0.443137;stroke:none;"/>
  </g>
</mask>
<radialGradient id="radial0" gradientUnits="userSpaceOnUse" cx="61.518883" cy="132.28575" fx="61.518883" fy="132.28575" r="29.036913" gradientTransform="matrix(0.00000000840893,-0.11426,0.507052,0.00000018055,-40.240769,67.839052)">
<stop offset="0" style="stop-color:rgb(72.156863%,72.156863%,72.156863%);stop-opacity:0.498039;"/>
<stop offset="1" style="stop-color:rgb(49.803922%,49.803922%,49.803922%);stop-opacity:0;"/>
</radialGradient>
<clipPath id="clip1">
  <rect x="0" y="0" width="50" height="60"/>
</clipPath>
<g id="surface5" clip-path="url(#clip1)">
<path style=" stroke:none;fill-rule:nonzero;fill:url(#radial0);" d="M 44.109375 60.808594 C 44.109375 58.976562 36.375 57.492188 26.835938 57.492188 C 17.292969 57.492188 9.558594 58.976562 9.558594 60.808594 C 9.558594 62.640625 17.292969 64.128906 26.835938 64.128906 C 36.375 64.128906 44.109375 62.640625 44.109375 60.808594 Z M 44.109375 60.808594 "/>
</g>
</defs>
<g id="surface1">
<path style=" stroke:none;fill-rule:nonzero;fill:url(#linear0);" d="M 26.402344 0 C 24.199219 0.0117188 22.09375 0.195312 20.242188 0.519531 C 14.789062 1.476562 13.796875 3.472656 13.796875 7.15625 L 13.796875 12.023438 L 26.6875 12.023438 L 26.6875 13.644531 L 8.960938 13.644531 C 5.214844 13.644531 1.933594 15.875 0.90625 20.121094 C -0.277344 24.984375 -0.328125 28.019531 0.90625 33.09375 C 1.824219 36.875 4.011719 39.570312 7.757812 39.570312 L 12.191406 39.570312 L 12.191406 33.734375 C 12.191406 29.519531 15.871094 25.804688 20.242188 25.804688 L 33.117188 25.804688 C 36.703125 25.804688 39.5625 22.882812 39.5625 19.316406 L 39.5625 7.15625 C 39.5625 3.699219 36.617188 1.097656 33.117188 0.519531 C 30.90625 0.15625 28.605469 -0.0078125 26.402344 0 Z M 19.433594 3.914062 C 20.761719 3.914062 21.851562 5.007812 21.851562 6.355469 C 21.851562 7.695312 20.761719 8.78125 19.433594 8.78125 C 18.097656 8.78125 17.011719 7.695312 17.011719 6.355469 C 17.011719 5.007812 18.097656 3.914062 19.433594 3.914062 Z M 19.433594 3.914062 "/>
<path style=" stroke:none;fill-rule:nonzero;fill:url(#linear1);" d="M 41.171875 13.644531 L 41.171875 19.316406 C 41.171875 23.710938 37.410156 27.410156 33.117188 27.410156 L 20.242188 27.410156 C 16.714844 27.410156 13.796875 30.402344 13.796875 33.898438 L 13.796875 46.058594 C 13.796875 49.515625 16.835938 51.550781 20.242188 52.546875 C 24.324219 53.734375 28.238281 53.949219 33.117188 52.546875 C 36.363281 51.613281 39.5625 49.742188 39.5625 46.058594 L 39.5625 41.191406 L 26.6875 41.191406 L 26.6875 39.570312 L 46.007812 39.570312 C 49.757812 39.570312 51.152344 36.980469 52.453125 33.09375 C 53.800781 29.097656 53.742188 25.25 52.453125 20.121094 C 51.527344 16.425781 49.761719 13.644531 46.007812 13.644531 Z M 33.929688 44.433594 C 35.265625 44.433594 36.347656 45.519531 36.347656 46.859375 C 36.347656 48.207031 35.265625 49.300781 33.929688 49.300781 C 32.597656 49.300781 31.511719 48.207031 31.511719 46.859375 C 31.511719 45.519531 32.597656 44.433594 33.929688 44.433594 Z M 33.929688 44.433594 "/>
<use xlink:href="#surface5" mask="url(#mask0)"/>
</g>
</svg>
