<?xml version="1.0" encoding="UTF-8"?>
<svg xmlns="http://www.w3.org/2000/svg" xmlns:xlink="http://www.w3.org/1999/xlink" width="60px" height="60px" viewBox="0 0 60 60" version="1.1">
<g id="surface1">
<path style=" stroke:none;fill-rule:nonzero;fill:rgb(89.803922%,35.686275%,17.647059%);fill-opacity:1;" d="M 33.882812 9.210938 L 33.882812 18.421875 L 49.835938 27.636719 L 49.835938 18.421875 Z M 1.972656 18.421875 L 1.972656 27.636719 L 9.949219 32.242188 L 9.949219 23.03125 Z M 25.902344 23.03125 L 17.925781 27.636719 L 17.925781 55.269531 L 25.902344 59.878906 L 25.902344 41.453125 L 33.882812 46.058594 L 33.882812 36.847656 L 25.902344 32.242188 Z M 25.902344 23.03125 "/>
<path style=" stroke:none;fill-rule:nonzero;fill:rgb(92.941176%,55.686275%,14.117647%);fill-opacity:1;" d="M 33.882812 9.210938 L 9.949219 23.03125 L 9.949219 32.242188 L 25.902344 23.03125 L 25.902344 32.242188 L 33.882812 27.636719 Z M 57.816406 13.816406 L 49.835938 18.421875 L 49.835938 27.636719 L 57.816406 23.03125 Z M 41.859375 32.242188 L 33.882812 36.847656 L 33.882812 46.058594 L 41.859375 41.453125 Z M 33.882812 46.058594 L 25.902344 41.453125 L 25.902344 59.878906 L 33.882812 55.269531 Z M 33.882812 46.058594 "/>
<path style=" stroke:none;fill-rule:nonzero;fill:rgb(97.254902%,74.901961%,23.529412%);fill-opacity:1;" d="M 33.882812 0 L 1.972656 18.421875 L 9.949219 23.03125 L 33.882812 9.210938 L 49.835938 18.421875 L 57.816406 13.816406 Z M 33.882812 27.636719 L 25.902344 32.242188 L 33.882812 36.847656 L 41.859375 32.242188 Z M 33.882812 27.636719 "/>
</g>
</svg>
